<?xml version="1.0" encoding="UTF-8"?>
<svg width="19px" height="24px" viewBox="0 0 19 24" version="1.1" xmlns="http://www.w3.org/2000/svg" xmlns:xlink="http://www.w3.org/1999/xlink">
    <title>地点</title>
    <g id="页面-1" stroke="none" stroke-width="1" fill="none" fill-rule="evenodd">
        <g id="享服务" transform="translate(-246.000000, -1649.000000)" fill="#007DFE" fill-rule="nonzero">
            <g id="地点" transform="translate(246.000000, 1649.000000)">
                <path d="M17.0694047,18.1481545 C16.5635892,17.8177674 15.8793408,17.5320593 15.0356187,17.2989707 C14.2472668,17.0811963 13.3345037,16.9125609 12.3455338,16.7985303 L12.3455343,16.7985296 C12.5907277,16.4426758 12.8297305,16.0828026 13.0624389,15.7190674 C14.0021997,14.2491735 14.7526332,12.8378289 15.2929824,11.5242469 C15.9849784,9.8419153 16.3358682,8.30566038 16.3358682,6.95825335 C16.3358682,6.07227966 16.1448752,5.21296382 15.7681777,4.4041535 C15.4063407,3.62723463 14.8894988,2.93059866 14.2320893,2.33358156 C13.5787256,1.7402254 12.8188521,1.27474439 11.9734906,0.950054948 C11.1014222,0.615156121 10.1760462,0.445283267 9.2230114,0.445283267 C8.2699502,0.445283267 7.34454768,0.615156121 6.47247936,0.95008073 C5.62719712,1.27474439 4.86727076,1.7402254 4.21390702,2.33358156 C3.5564976,2.93059866 3.03968209,3.62723463 2.67787158,4.4041535 C2.30114758,5.21296382 2.11015457,6.07227966 2.11015457,6.95825335 C2.11015457,8.30568616 2.46101796,9.84188951 3.1530404,11.5242469 C3.69336314,12.8378547 4.44382315,14.2491993 5.38358386,15.7190674 L5.38358241,15.7190652 C5.61632919,16.0828726 5.85537454,16.4428153 6.1006193,16.7987336 C5.11236334,16.9127384 4.20026132,17.0812964 3.4123854,17.2989678 C2.56868971,17.5320821 1.88444132,17.8177645 1.37862582,18.1481516 C0.382860241,18.7985875 0.173833556,19.5532829 0.173833556,20.0718218 C0.173833556,20.5903607 0.382860241,21.3450561 1.37859938,21.995492 C1.88441487,22.3258791 2.56866327,22.611613 3.4123854,22.8446758 C4.98284877,23.2785748 7.04675261,23.5175414 9.2240412,23.5175414 C11.4012769,23.5175414 13.4652336,23.278549 15.0356706,22.8446758 C15.8793663,22.611613 16.5636146,22.3258791 17.0694301,21.995492 C18.0652222,21.3450561 18.2742224,20.5903607 18.2742224,20.0718218 C18.2742224,19.5532829 18.0651957,18.7985875 17.0694037,18.1481516 L17.0694047,18.1481545 Z M9.22301094,3.91090673 C10.9728856,3.91090673 12.3918608,5.29435599 12.3918608,7.00048376 C12.3918608,8.70663731 10.972912,10.0900866 9.22301094,10.0900866 C7.47316275,10.0900866 6.05418754,8.70663731 6.05418754,7.00048376 C6.05418754,5.29435599 7.4731363,3.91090673 9.22301094,3.91090673 Z M9.22401575,22.1984452 C4.97290743,22.1984452 1.52673035,21.2463425 1.52673035,20.0718505 C1.52673035,19.1122455 3.82742533,18.3012438 6.98791939,18.0365474 C7.89066083,19.2475714 8.56546931,20.0139716 8.60825301,20.0623372 L9.22301094,20.7574006 L9.83779531,20.0623372 C9.88055257,20.0139716 10.5554404,19.2474683 11.4582347,18.0363927 C14.6196807,18.3009086 16.9213011,19.112065 16.9213011,20.0718248 C16.9213011,21.2463425 13.4750712,22.1984452 9.22401575,22.1984452 L9.22401575,22.1984452 Z" id="形状"></path>
            </g>
        </g>
    </g>
</svg>