<?xml version="1.0" encoding="UTF-8"?>
<svg width="48px" height="43px" viewBox="0 0 48 43" version="1.1" xmlns="http://www.w3.org/2000/svg" xmlns:xlink="http://www.w3.org/1999/xlink">
    <title>形状</title>
    <g id="页面-1" stroke="none" stroke-width="1" fill="none" fill-rule="evenodd">
        <g id="流调人员疫情防控查询" transform="translate(-584.000000, -606.000000)" fill="#0484E1" fill-rule="nonzero">
            <g id="相机1-fill" transform="translate(584.000000, 606.000000)">
                <path d="M42.7423334,6.00579783 L24.3044643,6.00579783 C24.3044643,3.23244205 22.0460313,0.974003827 19.2726703,0.974003827 L15.9211554,0.974003827 C13.1477997,0.974003827 10.8893614,3.23243679 10.8893614,6.00579783 L5.87563867,6.00579783 C3.10228289,6.00579783 0.843844668,8.2642308 0.843844668,11.0375918 L0.843844668,37.8497315 C0.843844668,40.6230873 3.10227763,42.8815256 5.87563867,42.8815256 L42.7423439,42.8815256 C45.5156997,42.8815256 47.7741379,40.6230926 47.7741379,37.8497315 L47.7741379,11.0375918 C47.7651041,8.26423605 45.5066719,6.00579783 42.7423438,6.00579783 L42.7423334,6.00579783 Z M24.3044643,34.4982325 C18.7577317,34.4982325 14.2498988,29.9903995 14.2498988,24.4436669 C14.2498988,18.8969344 18.7577317,14.3891014 24.3044643,14.3891014 C29.8511969,14.3891014 34.3590298,18.8969344 34.3590298,24.4436669 C34.3590298,29.9903995 29.8511969,34.4982325 24.3044643,34.4982325 Z M40.2219173,17.7406583 C38.8307203,17.7406583 37.7105394,16.6114392 37.7105394,15.2292804 C37.7105394,13.8471164 38.8397585,12.7179025 40.2219173,12.7179025 C41.6131143,12.7179025 42.7332951,13.8471216 42.7332951,15.2292804 C42.7332951,16.6114444 41.6131143,17.7406583 40.2219173,17.7406583 Z" id="形状"></path>
            </g>
        </g>
    </g>
</svg>