<?xml version="1.0" encoding="UTF-8"?>
<svg width="76px" height="76px" viewBox="0 0 76 76" version="1.1" xmlns="http://www.w3.org/2000/svg" xmlns:xlink="http://www.w3.org/1999/xlink">
    <title>excel</title>
    <defs>
        <linearGradient x1="50%" y1="0%" x2="50%" y2="100%" id="linearGradient-1">
            <stop stop-color="#175ABE" offset="0%"></stop>
            <stop stop-color="#1F76D1" offset="100%"></stop>
        </linearGradient>
    </defs>
    <g id="页面-1" stroke="none" stroke-width="1" fill="none" fill-rule="evenodd">
        <g id="14列表视图" transform="translate(-28.000000, -912.000000)">
            <g id="excel" transform="translate(28.000000, 912.000000)">
                <g transform="translate(13.194562, 0.000000)">
                    <path d="M10.121456,2.6780018 C5.01108247,2.6780018 2.48577611,5.64251439 2.48577611,9.23601978 L2.48577611,67.7736856 C2.48577611,71.2500544 6.96067249,73.6374019 10.121456,73.6374019 L46.878544,73.4972729 C50.3414297,73.4972729 54.5142239,71.5228313 54.5142239,67.6335566 L54.15,15.2064995 L41.1332233,2.53787281 L10.121456,2.6780018 Z" id="路径" fill="#FFFFFF" fill-rule="nonzero"></path>
                    <path d="M47.8707766,75.8661434 L9.12915374,76 C4.09582168,76 0,72.5253024 0,68.2559244 L0,7.87793225 C0,3.60855423 4.09582168,0.13385661 9.12915374,0.13385661 L41.7644803,0 C42.2243819,0 42.6664367,0.15761476 43.0050363,0.437546125 L56.0511567,13.1167879 C56.4218944,13.4288714 56.6357761,13.8664175 56.6357761,14.3265519 L57,68.1221307 C57,72.3915087 52.9041086,75.8661434 47.8707766,75.8661434 Z M10.121456,2.6780018 C5.01108247,2.6780018 2.48577611,5.64251439 2.48577611,9.23601978 L2.48577611,67.7736856 C2.48577611,71.2500544 6.96067249,73.6374019 10.121456,73.6374019 L46.878544,73.4972729 C50.3414297,73.4972729 54.5142239,71.5228313 54.5142239,67.6335566 L54.15,15.2064995 L41.1332233,2.53787281 L10.121456,2.6780018 Z" id="形状" fill="#CCD3E0" fill-rule="nonzero"></path>
                    <path d="M38.4502513,18.1301445 C37.6762917,18.1301445 37.05,17.4828461 37.05,16.6829268 L37.2541809,1.44716235 C37.2541809,0.647243085 37.8804726,0 38.6544322,0 C39.4283918,0 40.05463,0.647243085 40.05463,1.44716235 L39.8504491,15.2358198 L54.5304297,15.2358198 C55.3043893,15.2358198 55.9306275,15.8830628 55.9306275,16.6829821 C55.9306275,17.4829014 55.3043893,18.1301445 54.5304297,18.1301445 L38.4502513,18.1301445 Z" id="路径" fill="#CCD3E0" fill-rule="nonzero"></path>
                    <rect id="矩形" fill="#CCD3E0" x="36.1" y="33.3658537" width="13.3" height="1.85365854"></rect>
                    <rect id="矩形备份" fill="#CCD3E0" x="36.1" y="40.7804878" width="13.3" height="1.85365854"></rect>
                    <rect id="矩形备份-2" fill="#CCD3E0" x="36.1" y="48.195122" width="13.3" height="1.85365854"></rect>
                </g>
                <g transform="translate(5.694562, 20.900000)" fill-rule="nonzero" id="路径">
                    <path d="M34.7428571,38 L3.25714286,38 C1.35714284,38 0,36.6428571 0,34.7428571 L0,3.25714285 C0,1.3571429 1.35714284,0 3.25714286,0 L35.0142857,0 C36.6428572,0 38,1.35714283 38,3.25714285 L38,35.0142857 C38,36.6428571 36.6428572,38 34.7428571,38 L34.7428571,38 Z" fill="url(#linearGradient-1)"></path>
                    <path d="M26.5808134,26.9984573 C27.5065762,28.0123491 29.195336,27.3573757 29.195336,25.9843936 L29.195336,10 L26.18752,10 L26.18752,22.1068032 L20.2082826,15.5580143 C19.6119186,14.9048456 18.5834174,14.9048456 17.9870534,15.5580143 L12.007816,22.1068032 L12.007816,10 L9,10 L9,25.9843936 C9,27.3574186 10.6887598,28.0123921 11.6145226,26.9984573 L19.097668,18.8024595 L26.5808134,26.9984573 L26.5808134,26.9984573 Z" fill="#FFFFFF"></path>
                </g>
            </g>
        </g>
    </g>
</svg>