<?xml version="1.0" encoding="UTF-8"?>
<svg width="50px" height="44px" viewBox="0 0 50 44" version="1.1" xmlns="http://www.w3.org/2000/svg" xmlns:xlink="http://www.w3.org/1999/xlink">
    <title>人员查找 (1)</title>
    <g id="页面-1" stroke="none" stroke-width="1" fill="none" fill-rule="evenodd">
        <g id="流调人员疫情防控查询" transform="translate(-585.000000, -486.000000)" fill="#0484E1" fill-rule="nonzero">
            <g id="人员查找-(1)" transform="translate(585.000000, 486.000000)">
                <path d="M47.5745678,42.3946649 C46.9461345,43.024886 46.1815257,43.6823508 45.1789611,42.6779983 L41.9533185,39.4505253 L41.9533186,39.4505252 C37.5151654,42.3663655 31.5535839,41.1322856 28.6377096,36.6941281 C25.7218693,32.2559749 26.9559492,26.2943934 31.3941067,23.3785191 C35.8322599,20.4626788 41.7938414,21.6967587 44.7097157,26.1349162 C46.8229296,29.3514066 46.8146118,33.5181029 44.6885749,36.7261649 L47.9105567,39.9481892 C48.9131213,40.9525843 48.2047876,41.7662741 47.5745664,42.3946648 L47.5745678,42.3946649 Z M40.4512595,27.5450707 C38.353502,25.4454828 34.7827596,24.8751976 32.4779507,27.178176 C30.1749723,29.4829848 30.7434271,33.0518968 32.8448454,35.155103 L32.8448453,35.1551028 C34.9462976,37.2555463 38.3526079,37.2547248 40.4530472,35.1532726 C42.5534907,33.0518203 42.5526691,29.64551 40.4512171,27.5450707 L40.4512595,27.5450707 Z M22.6485013,26.4226768 C23.7327967,26.4226768 24.7771206,26.2501482 25.7760669,25.952299 L25.7760672,25.9522984 C27.2834515,22.7962121 29.9860893,20.3706801 33.2862347,19.2121884 L33.2862347,19.2121882 C34.1163984,17.3929541 34.5450552,15.4162774 34.5430657,13.4165799 C34.5430657,6.23154781 29.2178283,0.906317318 22.6485016,0.906317318 C16.0773445,0.906317318 10.7503262,6.23159038 10.7503262,13.4165799 C10.7503262,20.5998241 16.0773445,26.4226768 22.6485442,26.4226768 L22.6485013,26.4226768 Z M24.4938297,31.7079358 C24.3085732,31.7188333 24.1523907,31.7515256 23.9580247,31.7551865 L22.1018413,31.7551865 C16.6458416,31.6552791 15.0076071,28.5658545 15.0076071,28.5658545 C15.0076071,28.5658545 10.8611307,25.2748272 7.69542397,28.5658545 C2.88965237,33.5586704 -4.83943609e-15,39.6103686 -4.83943609e-15,39.6103686 C-4.83943609e-15,42.6997932 4.14826427,42.4509399 4.14826427,42.4509399 L30.2349516,42.4509399 L30.2349516,42.4509405 C26.6739573,40.0293034 24.5282256,36.014171 24.493788,31.7079364 L24.4938297,31.7079358 Z" id="形状"></path>
            </g>
        </g>
    </g>
</svg>