<?xml version="1.0" encoding="UTF-8"?>
<svg width="44px" height="37px" viewBox="0 0 44 37" version="1.1" xmlns="http://www.w3.org/2000/svg" xmlns:xlink="http://www.w3.org/1999/xlink">
    <title>saomiao</title>
    <g id="页面-1" stroke="none" stroke-width="1" fill="none" fill-rule="evenodd">
        <g id="流调人员疫情防控查询备份-2" transform="translate(-589.000000, -628.000000)" fill="#0081DF" fill-rule="nonzero">
            <g id="saomiao" transform="translate(589.000000, 628.000000)">
                <path d="M42.002002,20.4328374 L1.9980492,20.4328374 C0.89375104,20.4328374 0,19.5347895 0,18.4304914 C0,17.3261932 0.89375104,16.4324422 1.9980492,16.4324422 L41.9977051,16.4324422 C43.1020033,16.4324422 43.9957697,17.3261932 43.9957697,18.4304914 C44.0000512,19.5347895 43.1063002,20.4328374 42.002002,20.4328374 Z M38.0016067,36.632075 L5.99844448,36.632075 C4.89414632,36.632075 4.00039528,35.738324 4.00039528,34.6340258 L4.00039528,26.2293286 C4.00039528,25.1250304 4.89414632,24.2312794 5.99844448,24.2312794 C7.10274264,24.2312794 7.99649368,25.1250304 7.99649368,26.2293286 L7.99649368,32.6273829 L35.9949638,32.6273829 L35.9949638,26.2293286 C35.9949638,25.1250304 36.8887148,24.2312794 37.993013,24.2312794 C39.0973111,24.2312794 39.9911236,25.1250304 39.9911236,26.2293286 L39.9911236,34.629729 C39.9996559,35.7340271 39.1059049,36.632075 38.0016067,36.632075 Z M38.0016067,12.6297034 C36.8973086,12.6297034 36.0035575,11.7359523 36.0035575,10.6316542 L36.0035575,4.22930296 L8.00079056,4.22930296 L8.00079056,10.6273573 C8.00079056,11.7316554 7.10703952,12.6254065 6.00274136,12.6254065 C4.8984432,12.6254065 4.00469216,11.7316554 4.00469216,10.6273573 L4.00469216,2.23125376 C4.00469216,1.1269556 4.8984432,0.23320456 6.00274136,0.23320456 L38.0016067,0.23320456 C39.1059049,0.23320456 39.9996559,1.1269556 39.9996559,2.23125376 L39.9996559,10.6316542 C39.9996559,11.7359523 39.1059049,12.6297034 38.0016067,12.6297034 Z" id="形状"></path>
            </g>
        </g>
    </g>
</svg>