<?xml version="1.0" encoding="UTF-8"?>
<svg width="24px" height="24px" viewBox="0 0 24 24" version="1.1" xmlns="http://www.w3.org/2000/svg" xmlns:xlink="http://www.w3.org/1999/xlink">
    <title>时长</title>
    <g id="页面-1" stroke="none" stroke-width="1" fill="none" fill-rule="evenodd">
        <g id="享服务" transform="translate(-243.000000, -1692.000000)" fill="#FFAC00" fill-rule="nonzero">
            <g id="时长" transform="translate(243.000000, 1692.000000)">
                <path d="M12.000014,2.60801085 L12.0000136,2.60801085 C6.81331226,2.60727468 2.6080808,6.81132043 2.6073308,11.9980218 C2.60659463,17.1847231 6.81064038,21.3899546 11.9973417,21.3907046 C17.1840431,21.3914407 21.3892745,17.187395 21.3900246,12.0006937 C21.3900246,12.0004715 21.3900246,12.0002493 21.3900246,12.0000271 L21.3900246,11.9993607 C21.3900246,6.81291716 17.1857775,2.60838883 11.9993574,2.60801085 L12.000014,2.60801085 Z M18.8400219,13.7153597 L11.9846858,13.7153597 L11.9846858,13.7153597 C11.5115618,13.7153597 11.1280184,13.3318163 11.1280184,12.8586923 C11.1280184,12.8586923 11.1280184,12.8586923 11.1280184,12.8586923 L11.1280184,5.08669105 L11.1280184,5.08669116 C11.1280184,4.61356717 11.5115618,4.23002376 11.9846858,4.23002376 C12.4578098,4.23002376 12.8413532,4.61356717 12.8413532,5.08669116 C12.8413532,5.08669117 12.8413532,5.08669119 12.8413532,5.0866912 L12.8413532,12.0000352 L18.8413602,12.0000352 L18.8413601,12.0000352 C19.3146693,12.0132376 19.6876588,12.4076325 19.6744564,12.8809417 C19.6617717,13.3356906 19.2961091,13.7013536 18.8413601,13.714038 L18.8400219,13.7153597 Z M12.000014,0 L12.0000134,0 C5.37258385,0 -5.24536549e-07,5.37258438 -5.24536549e-07,12.000014 C-5.24536549e-07,18.6274436 5.37258385,24.0000279 12.0000134,24.0000279 C18.627443,24.0000279 24.0000274,18.6274436 24.0000274,12.000014 L24.0000274,12.0000145 C24.0000274,5.3725849 18.627443,0 12.0000134,0 L12.000014,0 Z M12.000014,22.320026 L12.0000135,22.320026 C6.30042876,22.320026 1.6800015,17.6995987 1.6800015,12.000014 C1.6800015,6.30042921 6.30042876,1.68000195 12.0000135,1.68000195 C17.6995983,1.68000195 22.3200255,6.30042921 22.3200255,12.000014 L22.3200255,11.9993469 C22.3200255,17.698791 17.7001139,22.3192886 12.0006698,22.320026 L12.000014,22.320026 Z" id="形状"></path>
            </g>
        </g>
    </g>
</svg>