<?xml version="1.0" standalone="no"?><!DOCTYPE svg PUBLIC "-//W3C//DTD SVG 1.1//EN" "http://www.w3.org/Graphics/SVG/1.1/DTD/svg11.dtd"><svg t="1657694344093" class="icon" viewBox="0 0 1024 1024" version="1.1" xmlns="http://www.w3.org/2000/svg" p-id="16043" width="40" height="40" xmlns:xlink="http://www.w3.org/1999/xlink"><defs><style type="text/css">@font-face { font-family: feedback-iconfont; src: url("//at.alicdn.com/t/font_1031158_u69w8yhxdu.woff2?t=1630033759944") format("woff2"), url("//at.alicdn.com/t/font_1031158_u69w8yhxdu.woff?t=1630033759944") format("woff"), url("//at.alicdn.com/t/font_1031158_u69w8yhxdu.ttf?t=1630033759944") format("truetype"); }
</style></defs><path d="M512 512m-512 0a512 512 0 1 0 1024 0 512 512 0 1 0-1024 0Z" fill="#d81e06" p-id="16044" data-spm-anchor-id="a313x.7781069.0.i23" class="selected"></path><path d="M253.046154 417.398154h74.436923a16.541538 16.541538 0 0 0 16.265846-16.817231 16.541538 16.541538 0 0 0-16.226461-16.817231H253.046154a16.541538 16.541538 0 0 0-16.226462 16.817231 16.541538 16.541538 0 0 0 16.226462 16.817231z m0 120.832h74.436923a16.541538 16.541538 0 0 0 16.265846-16.817231 17.014154 17.014154 0 0 0-4.726154-11.894154 15.832615 15.832615 0 0 0-11.500307-4.923077H253.046154a16.541538 16.541538 0 0 0-16.226462 16.817231 16.541538 16.541538 0 0 0 16.226462 16.817231z m90.702769 103.581538a17.014154 17.014154 0 0 0-4.726154-11.894154 15.832615 15.832615 0 0 0-11.500307-4.923076H253.046154a16.541538 16.541538 0 0 0-16.226462 16.81723 16.541538 16.541538 0 0 0 16.226462 16.817231h74.436923a16.541538 16.541538 0 0 0 16.265846-16.817231z m51.987692 17.053539l-2.205538 5.316923h36.115692l1.102769-2.048c16.935385-31.901538 56.753231-55.296 96.807385-56.832H535.827692c40.093538 1.575385 79.950769 24.891077 96.886154 56.832l1.063385 2.048h36.155077l-2.205539-5.316923c-6.577231-15.990154-18.038154-31.586462-33.201231-45.174154a176.443077 176.443077 0 0 0-40.88123-27.254154c14.611692-9.452308 27.057231-22.291692 35.997538-37.100308 10.633846-17.565538 16.226462-37.809231 16.226462-58.407384a114.530462 114.530462 0 0 0-114.372923-114.412308 114.530462 114.530462 0 0 0-114.412308 114.412308c0 20.676923 5.632 40.920615 16.305231 58.525538 8.979692 14.808615 21.464615 27.648 36.155077 37.139693-14.808615 7.128615-28.868923 16.541538-40.723693 27.175384-15.123692 13.587692-26.545231 29.144615-33.083077 45.095385z m135.75877-249.068308c44.701538 0 81.132308 36.391385 81.132307 81.132308 0 44.740923-36.430769 81.132308-81.132307 81.132307a81.211077 81.211077 0 0 1-81.132308-81.132307c0-44.740923 36.391385-81.132308 81.132308-81.132308z" fill="#ffffff" p-id="16045" data-spm-anchor-id="a313x.7781069.0.i26" class=""></path><path d="M724.755692 236.465231H338.195692c-33.713231 0-61.164308 27.451077-61.164307 61.203692V343.433846h32.807384v-38.951384c0-23.158154 12.248615-35.446154 35.446154-35.446154h372.972308c23.197538 0 35.446154 12.248615 35.446154 35.446154v433.821538c0 23.236923-12.248615 35.446154-35.446154 35.446154h-372.972308c-23.197538 0-35.446154-12.209231-35.446154-35.446154v-38.951385h-32.807384v45.13477c0 33.752615 27.451077 61.203692 61.164307 61.203692h386.56c33.713231 0 61.164308-27.451077 61.164308-61.203692V297.668923c0-33.752615-27.451077-61.203692-61.164308-61.203692z" fill="#ffffff" p-id="16046" data-spm-anchor-id="a313x.7781069.0.i25" class="selected"></path></svg>