<?xml version="1.0" encoding="UTF-8"?>
<svg width="32px" height="32px" viewBox="0 0 32 32" version="1.1" xmlns="http://www.w3.org/2000/svg" xmlns:xlink="http://www.w3.org/1999/xlink">
    <title>team</title>
    <g id="页面-1" stroke="none" stroke-width="1" fill="none" fill-rule="evenodd">
        <g id="07-相关议题" transform="translate(-54.000000, -546.000000)" fill="#AAAAAA" fill-rule="nonzero">
            <g id="编组-3" transform="translate(30.000000, 291.000000)">
                <g id="编组" transform="translate(23.999922, 251.000000)">
                    <g id="team" transform="translate(0.000000, 4.000000)">
                        <path d="M19.8720099,6.88073674 C24.3039766,6.81273873 27.9999487,10.4486321 27.9999487,14.8805021 C27.9999487,17.3924284 26.8439574,19.6323627 25.0319711,21.1003197 C26.2999615,21.6883024 27.4719527,22.5002786 28.4879451,23.5162488 C30.6799286,25.7041847 31.9199192,28.5921 32,31.6720096 C32.0039186,31.8520043 31.8599197,32 31.679921,32 L31.679921,32 L29.4399379,32 C29.2679392,32 29.1239403,31.864004 29.1199403,31.692009 C29.0399409,29.3720771 28.099948,27.2001408 26.4519604,25.5521891 C24.7279734,23.8282397 22.4359906,22.8802675 20.0000179,22.8802675 C17.5640273,22.8802675 15.2720445,23.8282397 13.5480575,25.5521891 C11.8960699,27.2001408 10.956077,29.3720771 10.8800776,31.692009 C10.8760776,31.864004 10.7320787,32 10.56008,32 L10.56008,32 L8.32009686,32 C8.14009822,32 7.9960993,31.8520043 8.00001791,31.6720096 C8.08009867,28.5921 9.32008934,25.7041847 11.5040729,23.5162488 C12.5240652,22.4962787 13.6920564,21.6883024 14.9600469,21.1003197 C13.1520605,19.6323627 11.9920692,17.3924284 11.9920692,14.8805021 C11.9920692,10.5046305 15.5080428,6.94873475 19.8720099,6.88073674 Z M12.1360681,0.000938522092 C15.208045,0.0489371143 17.864025,1.82488503 19.1640152,4.39680959 C19.2640145,4.59680373 19.1360155,4.83679669 18.9120171,4.86079598 C18.1480229,4.94079364 17.4040285,5.11278859 16.7000338,5.35678144 C16.5640348,5.40478003 16.408036,5.35278155 16.3280366,5.22878519 C16.1000383,4.87679551 15.8280404,4.54880513 15.5120427,4.25281382 C14.5800497,3.38083939 13.348059,2.88885382 12.0720686,2.87685417 C10.6600793,2.86085464 9.33208925,3.41283845 8.34409668,4.42480877 C7.44410345,5.34478179 6.92810734,6.56474601 6.89210761,7.84870835 C6.85210791,9.292666 7.40810373,10.656626 8.44009596,11.6645964 C8.87209271,12.088584 9.37208894,12.4245741 9.91608485,12.668567 C10.0480839,12.7285652 10.1240833,12.8765609 10.0960835,13.0205567 C9.98408434,13.6245389 9.92408479,14.2445208 9.92408479,14.8805021 C9.92408479,15.2364917 9.94408464,15.5884813 9.98008437,15.9364711 C10.0000781,16.0964664 9.896085,16.2444621 9.74008617,16.2844609 C8.16809801,16.6804493 6.72810884,17.4964254 5.55211769,18.6723909 C3.90013013,20.3203426 2.9601372,22.4922789 2.88413777,24.8122108 C2.8801378,24.9842058 2.73613889,25.1202018 2.56414018,25.1202018 L2.56414018,25.1202018 L0.320157071,25.1202018 C0.140158426,25.1202018 -0.00384049034,24.9722061 7.81205567e-05,24.7922114 C0.0801588775,21.7083019 1.32014954,18.8203866 3.51213305,16.6324507 C4.5281254,15.6164805 5.70011658,14.8045043 6.97210701,14.2165216 C5.16012064,12.7485646 4.00412934,10.5086303 4.00412934,7.99670401 C4.00412934,3.56883388 7.70010153,-0.0670594835 12.1360681,0.000938522092 Z M19.9480093,9.76065227 C18.5760197,9.7766518 17.2920293,10.3246357 16.3320366,11.3086069 C15.4160435,12.2485793 14.8920474,13.5165421 14.8800475,14.8285036 C14.8640476,16.2164629 15.4000436,17.5204247 16.3800362,18.5003959 C17.3440289,19.4683675 18.6320193,20.0003519 20.000009,20.0003519 C21.3679987,20.0003519 22.655989,19.4683675 23.6239817,18.5003959 C24.5919744,17.5324243 25.1239704,16.248462 25.1239704,14.8805021 C25.1239704,13.4965427 24.5799745,12.1965808 23.587982,11.2246093 C22.6199892,10.2766371 21.3039991,9.74865262 19.9480093,9.76065227 Z" id="形状结合"></path>
                    </g>
                </g>
            </g>
        </g>
    </g>
</svg>