<?xml version="1.0" encoding="UTF-8"?>
<svg width="25px" height="32px" viewBox="0 0 25 32" version="1.1" xmlns="http://www.w3.org/2000/svg" xmlns:xlink="http://www.w3.org/1999/xlink">
    <title>file-text</title>
    <g id="页面-1" stroke="none" stroke-width="1" fill="none" fill-rule="evenodd">
        <g id="07-相关议题" transform="translate(-59.000000, -675.000000)" fill="#AAAAAA" fill-rule="nonzero">
            <g id="编组-3" transform="translate(30.000000, 291.000000)">
                <g id="编组-2" transform="translate(29.000000, 380.000000)">
                    <g id="file-text" transform="translate(0.000000, 4.000000)">
                        <path d="M16.2215909,0 C16.5234375,0 16.8110795,0.121428571 17.0241477,0.335714286 L17.0241477,0.335714286 L24.6661932,8.02142857 C24.8792614,8.23571429 25,8.52857143 25,8.83214286 L25,8.83214286 L25,30.8571429 C25,31.4892857 24.4921875,32 23.8636364,32 L23.8636364,32 L1.13636364,32 C0.5078125,32 0,31.4892857 0,30.8571429 L0,30.8571429 L0,1.14285714 C0,0.510714286 0.5078125,0 1.13636364,0 L1.13636364,0 Z M13.28125,2.57142857 L2.55681818,2.57142857 L2.55681818,29.4285714 L22.4431818,29.4285714 L22.4431818,11.7857143 L14.7727273,11.7857143 C13.9488636,11.7857143 13.28125,11.1142857 13.28125,10.2857143 L13.28125,10.2857143 L13.28125,2.57142857 Z M12.2159091,19.7857143 C12.3721591,19.7857143 12.5,19.9142857 12.5,20.0714286 L12.5,20.0714286 L12.5,21.7857143 C12.5,21.9428571 12.3721591,22.0714286 12.2159091,22.0714286 L12.2159091,22.0714286 L5.68181818,22.0714286 C5.52556818,22.0714286 5.39772727,21.9428571 5.39772727,21.7857143 L5.39772727,21.7857143 L5.39772727,20.0714286 C5.39772727,19.9142857 5.52556818,19.7857143 5.68181818,19.7857143 L5.68181818,19.7857143 Z M19.3181818,14.9285714 C19.4744318,14.9285714 19.6022727,15.0571429 19.6022727,15.2142857 L19.6022727,15.2142857 L19.6022727,16.9285714 C19.6022727,17.0857143 19.4744318,17.2142857 19.3181818,17.2142857 L19.3181818,17.2142857 L5.68181818,17.2142857 C5.52556818,17.2142857 5.39772727,17.0857143 5.39772727,16.9285714 L5.39772727,16.9285714 L5.39772727,15.2142857 C5.39772727,15.0571429 5.52556818,14.9285714 5.68181818,14.9285714 L5.68181818,14.9285714 Z M15.6960227,2.63571429 L15.6960227,9.35714286 L22.3792614,9.35714286 L15.6960227,2.63571429 Z" id="形状结合"></path>
                    </g>
                </g>
            </g>
        </g>
    </g>
</svg>