<?xml version="1.0" encoding="UTF-8"?>
<svg width="100px" height="100px" viewBox="0 0 100 100" version="1.1" xmlns="http://www.w3.org/2000/svg" xmlns:xlink="http://www.w3.org/1999/xlink">
    <title>待办事项-选中</title>
    <defs>
        <filter x="-13.1%" y="-13.1%" width="126.2%" height="126.2%" filterUnits="objectBoundingBox" id="filter-1">
            <feOffset dx="0" dy="1" in="SourceAlpha" result="shadowOffsetOuter1"></feOffset>
            <feGaussianBlur stdDeviation="2" in="shadowOffsetOuter1" result="shadowBlurOuter1"></feGaussianBlur>
            <feColorMatrix values="0 0 0 0 0.83313519   0 0 0 0 0.83313519   0 0 0 0 0.83313519  0 0 0 0.5 0" type="matrix" in="shadowBlurOuter1" result="shadowMatrixOuter1"></feColorMatrix>
            <feMerge>
                <feMergeNode in="shadowMatrixOuter1"></feMergeNode>
                <feMergeNode in="SourceGraphic"></feMergeNode>
            </feMerge>
        </filter>
    </defs>
    <g id="页面-1" stroke="none" stroke-width="1" fill="none" fill-rule="evenodd">
        <g id="工作台-待办事项" transform="translate(-126.000000, -359.000000)">
            <g id="待办事项-选中" transform="translate(126.000000, 359.000000)">
                <rect id="矩形" x="0" y="0" width="100" height="100"></rect>
                <g id="gongzuotai" filter="url(#filter-1)" transform="translate(10.000000, 10.000000)"></g>
                <path d="M80.5883164,10 C83.084413,10 85.4783496,10.9915453 87.243609,12.7568046 C89.0084547,14.5216504 90,16.9154491 90,19.4116836 L90,61.7645356 C90,64.2607701 89.0084547,66.6551202 87.243609,68.419966 C85.4783496,70.1846739 83.084413,71.1767707 80.5883164,71.1767707 L19.4116836,71.1767707 C16.9154491,71.1767707 14.5216504,70.1846739 12.7568046,68.419966 C10.9914074,66.6551202 10,64.2607701 10,61.7645356 L10,19.4116836 C10,16.9154491 10.9914074,14.5216504 12.7568046,12.7568046 C14.5216504,10.9915453 16.9154491,10 19.4116836,10 L80.5883164,10 Z M26.4703774,38.2354644 C25.2225359,38.2354644 24.0252918,38.7309613 23.1432136,39.613591 C22.2605839,40.4963586 21.7645356,41.6929133 21.7645356,42.9413062 L21.7645356,57.0586938 C21.765087,59.6577776 23.871845,61.7639841 26.4703774,61.7639841 C29.0693234,61.7639841 31.1762192,59.6577776 31.1767707,57.0586938 L31.1767707,42.9413062 C31.1767707,40.3422224 29.0693234,38.2354644 26.4703774,38.2354644 Z M50,24.1175254 C48.7521585,24.1175254 47.5549145,24.6134359 46.6722848,25.4962035 C45.7902066,26.3782817 45.2941582,27.5755257 45.2941582,28.8237808 L45.2941582,57.0586938 C45.2941582,59.6577776 47.4009161,61.7645356 50,61.7645356 C52.598946,61.7645356 54.7058418,59.6577776 54.7058418,57.0586938 L54.7058418,28.8237808 C54.7058418,27.5755257 54.2103449,26.3782817 53.3277152,25.4962035 C52.4449477,24.6134359 51.248393,24.1175254 50,24.1175254 Z M73.5296226,42.9413062 C70.9305388,42.9413062 68.8237808,45.0480642 68.8237808,47.647148 L68.8237808,57.0586938 C68.8237808,59.6577776 70.9305388,61.7639841 73.5296226,61.7639841 C76.1280172,61.7639841 78.234913,59.6577776 78.2354644,57.0586938 L78.2354644,47.647148 C78.2354644,45.0480642 76.1285686,42.9413062 73.5296226,42.9413062 Z M14.7058418,80.5883164 L85.2941582,80.5883164 C88.4317537,80.5883164 90,82.1571142 90,85.2941582 C90,88.4317537 88.4317537,90 85.2941582,90 L14.7058418,90 C11.5687978,90 10,88.4317537 10,85.2941582 C10,82.1571142 11.5687978,80.5883164 14.7058418,80.5883164 Z" id="形状结合" fill="#FFFFFF"></path>
            </g>
        </g>
    </g>
</svg>