<?xml version="1.0" encoding="UTF-8"?>
<svg width="100px" height="100px" viewBox="0 0 100 100" version="1.1" xmlns="http://www.w3.org/2000/svg" xmlns:xlink="http://www.w3.org/1999/xlink">
    <title>应用中心-未选中@2x</title>
    <g id="页面-1" stroke="none" stroke-width="1" fill="none" fill-rule="evenodd" opacity="0.5">
        <g id="工作台-签报管理" transform="translate(-125.000000, -1169.000000)">
            <g id="应用中心-未选中" transform="translate(125.000000, 1169.000000)">
                <rect id="矩形备份-22" x="0" y="0" width="100" height="100"></rect>
                <path d="M19.4097003,14.8770334 L41.3507353,14.8770334 C44.3384902,14.8770334 46.7605059,17.2657565 46.7605059,20.2874813 L46.7605059,42.681372 C46.7605059,45.6694617 44.3514933,48.0918198 41.3507353,48.0918198 L19.4097003,48.0918198 C16.422086,48.0918198 14,45.7030968 14,42.6813015 L14,20.2875518 C14,17.2993915 16.4089424,14.8770334 19.4097003,14.8770334 Z M19.4097003,52.7852136 L41.3507353,52.7852136 C44.3384902,52.7852136 46.7605059,55.1739366 46.7605059,58.1956614 L46.7605059,80.5895522 C46.7605059,83.5776419 44.3514933,86 41.3507353,86 L19.4097003,86 C16.422086,86 14,83.611277 14,80.5894817 L14,58.1957319 C14,55.2075717 16.4089424,52.7852136 19.4097003,52.7852136 Z M50.2470166,30.2963408 L65.7082334,14.7852245 C66.769495,13.7206083 68.5187247,13.7493779 69.5716925,14.8056735 L85.1968887,30.4812983 C86.2693962,31.5573378 86.2592046,33.3120014 85.2172719,34.3572264 L69.756055,49.8683427 C68.6947934,50.9330295 66.9455637,50.9042599 65.8925959,49.8478937 L50.2673295,34.1722689 C49.1948219,33.0963705 49.2050135,31.3416363 50.2469463,30.2963408 L50.2470166,30.2963408 Z M56.7616267,52.7852136 L78.7026617,52.7852136 C81.6903463,52.7852136 84.112362,55.1739366 84.112362,58.1956614 L84.112362,80.5895522 C84.112362,83.5776419 81.7034197,86 78.7026617,86 L56.7616267,86 C53.7739421,86 51.3519264,83.611277 51.3519264,80.5894817 L51.3519264,58.1957319 C51.3519264,55.2075717 53.7608688,52.7852136 56.7616267,52.7852136 L56.7616267,52.7852136 Z" id="形状" fill="#FFFFFF" fill-rule="nonzero"></path>
            </g>
        </g>
    </g>
</svg>