<?xml version="1.0" encoding="UTF-8"?>
<svg width="42px" height="42px" viewBox="0 0 42 42" version="1.1" xmlns="http://www.w3.org/2000/svg" xmlns:xlink="http://www.w3.org/1999/xlink">
    <title>手写签批</title>
    <g id="页面-1" stroke="none" stroke-width="1" fill="none" fill-rule="evenodd">
        <g id="意见附件" transform="translate(-26.000000, -1148.000000)" fill-rule="nonzero">
            <g id="手写签批" transform="translate(26.000000, 1148.000000)">
                <rect id="矩形" fill="#000000" opacity="0" x="0" y="0" width="42" height="42"></rect>
                <path d="M41.6013934,17.3177407 L24.6822593,0.398606619 C24.2836526,0.200049764 23.8865389,0 23.4879323,0 C23.0893257,0 22.692212,0.198556855 22.2936054,0.597163474 L15.5262503,8.9574521 C14.1333665,10.5503857 14.1333665,12.9390396 15.3276935,14.5304802 L1.39437671,18.5120677 C0.797213237,18.7106245 0.398606619,19.307788 0.398606619,19.9049515 L0,40.4070664 C0,41.0042299 0,41.2027868 0.398606619,41.6013934 C0.597163474,41.7999502 0.995770092,42 1.39437671,42 L21.8964917,41.4028365 C22.4936551,41.4028365 23.0908186,41.0042299 23.2893755,40.4070664 L27.4695198,26.4737497 C28.2652401,27.0709132 29.2610102,27.26947 30.0567305,27.26947 C31.0525006,27.26947 32.0467778,26.8708634 33.0425479,26.4737497 L41.4028365,19.7063946 C41.8014431,19.307788 42,18.9106743 42,18.5120677 C42,18.1134611 41.8014431,17.7163474 41.6013934,17.3177407 Z M20.9007216,38.6170689 L5.17591441,39.0156755 L10.5503857,33.6412043 C11.1475491,33.8397611 11.7447126,34.0398109 12.3418761,34.0398109 C13.536203,34.0398109 14.73053,33.4426474 15.5262503,32.6469271 C16.5220204,31.8512068 16.9191341,30.6568798 16.9191341,29.4625529 C16.9191341,28.2682259 16.3219706,27.073899 15.5262503,26.2781787 C14.73053,25.2824086 13.536203,24.8852948 12.3418761,24.8852948 C11.1475491,24.8852948 9.95322219,25.4824583 9.15750187,26.2781787 C8.16173177,27.073899 7.76461806,28.2682259 7.76461806,29.4625529 C7.76461806,30.2582732 7.96317492,31.0554864 8.36178154,31.6526499 L2.98731028,37.0271212 L3.38591689,21.1022642 L17.7178403,16.9221199 L25.0823588,24.0880816 L20.9022145,38.6185618 L20.9007216,38.6170689 Z M11.346106,30.4553371 C11.1475491,30.2567803 10.9474994,29.8581737 10.9474994,29.4595671 C10.9474994,29.0609604 11.1460562,28.8624036 11.346106,28.463797 C11.5446629,28.2652401 11.9432695,28.0651903 12.3418761,28.0651903 C12.7404827,28.0651903 13.3376462,28.2637472 13.536203,28.463797 C13.7347599,28.6623538 13.9348097,29.0609604 13.9348097,29.4595671 C13.9348097,29.8581737 13.7362528,30.0567305 13.536203,30.4553371 C12.9390396,31.0525006 11.9432695,31.0525006 11.346106,30.4553371 Z M31.0525006,23.8865389 C30.4553371,24.4837024 29.6596168,24.4837024 29.0624533,23.8865389 L27.6695695,22.4936551 L19.3092809,14.1333665 C19.3092809,14.1333665 19.1107241,13.9348097 18.9106743,13.9348097 C18.3135108,13.3376462 17.9149042,12.7404827 17.9149042,12.7404827 C17.5165762,12.1369306 17.5165762,11.3539875 17.9149042,10.7504354 L23.6879821,3.58447375 L38.2184623,18.114954 L31.0525006,23.8880318 L31.0525006,23.8865389 Z" id="形状" fill="#0086D9"></path>
            </g>
        </g>
    </g>
</svg>