<?xml version="1.0" encoding="UTF-8"?>
<svg width="24px" height="24px" viewBox="0 0 24 24" version="1.1" xmlns="http://www.w3.org/2000/svg" xmlns:xlink="http://www.w3.org/1999/xlink">
    <!-- Generator: Sketch 55.1 (78136) - https://sketchapp.com -->
    <title>编组 14</title>
    <desc>Created with Sketch.</desc>
    <g id="页面-1" stroke="none" stroke-width="1" fill="none" fill-rule="evenodd">
        <g id="编组-14" transform="translate(-0.000000, -0.000000)">
            <rect id="矩形备份-4" fill="#F8E2E2" x="1.36424205e-12" y="1.13686838e-13" width="24" height="24" rx="2.66666667"></rect>
            <path d="M2.66666667,1.13686838e-13 L21.3333333,1.13686838e-13 C22.8060927,1.13686838e-13 24,1.19390733 24,2.66666667 L24,21.3333333 C24,22.8060927 22.8060927,24 21.3333333,24 L2.66666667,24 C1.19390733,24 1.36424205e-12,22.8060927 1.36424205e-12,21.3333333 L1.36424205e-12,2.66666667 C1.36424205e-12,1.19390733 1.19390733,1.13686838e-13 2.66666667,1.13686838e-13 Z M2.66666667,1 C1.74619208,1 1,1.74619208 1,2.66666667 L1,21.3333333 C1,22.2538079 1.74619208,23 2.66666667,23 L21.3333333,23 C22.2538079,23 23,22.2538079 23,21.3333333 L23,2.66666667 C23,1.74619208 22.2538079,1 21.3333333,1 L2.66666667,1 Z" id="矩形备份-4" fill="#E30000" fill-rule="nonzero"></path>
            <path d="M16.976,14.192 L6.688,14.192 L6.688,13.168 L15.872,13.168 L15.872,11.888 L7.344,11.888 L7.344,10.896 L15.872,10.896 L15.872,9.616 L6.912,9.616 L6.912,9.312 C6.464,9.664 6,9.984 5.552,10.272 L4.816,9.392 C6.784,8.208 8.4,6.64 9.664,4.72 L10.832,4.976 C10.592,5.344 10.352,5.696 10.128,6.032 L15.344,6.032 L15.344,6.832 C14.832,7.52 14.304,8.112 13.792,8.592 L16.976,8.592 L16.976,14.192 Z M12.352,8.592 C12.88,8.128 13.408,7.6 13.936,6.992 L9.36,6.992 C8.864,7.568 8.336,8.096 7.792,8.592 L12.352,8.592 Z M6.576,15.2 L7.696,15.424 C7.312,16.864 6.768,18.128 6.064,19.2 L5.088,18.576 C5.76,17.552 6.256,16.416 6.576,15.2 Z M14.064,19.36 L10.256,19.36 C9.296,19.36 8.816,18.864 8.816,17.904 L8.816,14.992 L9.968,14.992 L9.968,17.664 C9.968,18.096 10.176,18.32 10.592,18.32 L13.856,18.32 C14.24,18.32 14.496,18.24 14.64,18.096 C14.848,17.904 14.992,17.344 15.056,16.416 L16.144,16.768 C16.032,18 15.808,18.752 15.456,19.024 C15.168,19.248 14.704,19.36 14.064,19.36 Z M12.112,14.576 C12.912,15.344 13.52,16.032 13.936,16.608 L12.976,17.264 C12.544,16.624 11.936,15.92 11.168,15.152 L12.112,14.576 Z M16.992,14.864 C17.984,16.16 18.736,17.296 19.28,18.256 L18.32,18.928 C17.776,17.872 17.024,16.72 16.064,15.44 L16.992,14.864 Z" id="急" fill="#E30000" fill-rule="nonzero"></path>
        </g>
    </g>
</svg>