<?xml version="1.0" encoding="UTF-8"?>
<svg width="30px" height="30px" viewBox="0 0 30 30" version="1.1" xmlns="http://www.w3.org/2000/svg" xmlns:xlink="http://www.w3.org/1999/xlink">
    <title>设置</title>
    <g id="页面-1" stroke="none" stroke-width="1" fill="none" fill-rule="evenodd">
        <g id="领导活动-全部" transform="translate(-684.000000, -286.000000)" fill-rule="nonzero">
            <g id="设置" transform="translate(684.000000, 286.000000)">
                <rect id="矩形" fill="#000000" opacity="0" x="0" y="0" width="30" height="30"></rect>
                <path d="M11.931072,27.9280108 C11.5811264,27.7326859 11.3008307,27.4112062 11.1820921,27.0478764 C11.0079217,26.5105805 10.3114043,24.8565801 9.41520215,24.3563579 C8.51046473,23.8513718 6.68481317,24.0976042 6.1206837,24.2228123 C5.52962805,24.3549955 4.84068859,24.107984 4.48164232,23.6325287 L4.42880394,23.5590285 L2.00995873,19.491429 C1.771597,18.9568113 1.89462862,18.25534 2.30306074,17.8286885 C2.69736955,17.4161581 3.82913183,16.0069826 3.82946364,15.0059828 C3.82979545,14.0049829 2.69634036,12.5966928 2.30279926,12.1789982 C1.90679425,11.7654293 1.76386506,11.0805404 1.96679075,10.550186 L2.15266513,10.088836 C2.34955182,9.6162756 2.67733437,8.87446971 3.01313105,8.3121872 C3.53548144,7.4375255 4.45420336,6.36602436 4.49476954,6.31715345 C4.86840041,5.88207942 5.55339133,5.6593005 6.12187053,5.78406597 L6.46572766,5.84700779 C7.23090248,5.96641716 8.65693677,6.07597897 9.41762728,5.64875293 C10.3208928,5.14623144 11.014893,3.49821672 11.1830174,2.95943973 C11.3634615,2.40003392 11.923595,1.94803543 12.5259563,1.88267376 L12.6213414,1.87540255 L17.4696087,1.875 C18.0750467,1.93787902 18.6407903,2.39117857 18.8179079,2.95212356 C18.9920783,3.48941946 19.6885957,5.14341989 20.5847979,5.64364206 C21.4895353,6.14862822 23.3151868,5.90239582 23.8793163,5.77718767 C24.470372,5.64500453 25.1593114,5.89201596 25.5183577,6.36747125 L25.571196,6.44097153 L27.9900413,10.508571 C28.228403,11.0431887 28.1053714,11.74466 27.6969393,12.1713115 L27.4882482,12.4050336 C27.0023602,12.9781333 26.1708208,14.1360173 26.1705363,14.9940172 C26.1702045,15.9950171 27.3036596,17.4033072 27.6972007,17.8210018 C28.0932058,18.2345707 28.2361349,18.9194596 28.0332092,19.449814 L27.8473349,19.911164 C27.6504482,20.3837244 27.3226656,21.1255303 26.986869,21.6878128 C26.4645186,22.5624745 25.5457966,23.6339756 25.5052305,23.6828465 C25.1315996,24.1179206 24.4466087,24.3406995 23.8781295,24.215934 C23.3096503,24.0911685 21.4813706,23.8463435 20.5823727,24.351247 C19.6791072,24.8537685 18.985107,26.5017833 18.8169826,27.0405602 C18.6390025,27.5958403 18.076405,28.0519645 17.4740437,28.1173262 L17.3786586,28.1245974 L12.5303913,28.125 C12.3202634,28.0957318 12.1145801,28.0304372 11.931072,27.9280108 Z M3.78384618,18.8070312 L5.96275411,22.443778 L6.40225298,22.3668789 C7.30098524,22.2304658 9.09921846,22.0770371 10.3388996,22.7654811 C11.8442267,23.6014489 12.6461372,25.7400879 12.8166178,26.25 L17.1804165,26.2466775 L17.3431298,25.8120842 C17.6755893,24.9898251 18.4336786,23.4465119 19.6620727,22.766021 C21.2192429,21.8997242 23.6507363,22.3602341 24.0845304,22.4501417 L24.3491771,22.1329774 C24.6384008,21.7783605 25.0777873,21.215676 25.3564823,20.7513649 C25.754618,20.0880634 26.1695387,19.051202 26.25,18.8424286 L25.9841161,18.5452481 C25.4275469,17.8944487 24.3220323,16.4254813 24.3231731,15.0005399 C24.3255107,13.3247099 25.8524007,11.5841587 26.2161538,11.1929687 L24.0372459,7.55622202 L23.7760333,7.60446312 C22.958755,7.74332059 20.9893302,7.9721375 19.6611004,7.23451887 C18.1515685,6.39621599 17.3538628,4.25991212 17.1833822,3.75 L12.8195835,3.75332253 L12.7260564,4.0116844 C12.4382569,4.76763661 11.6608132,6.50114268 10.3379273,7.23397893 C8.78075713,8.10027579 6.34926367,7.63976584 5.91546956,7.54985828 L5.65082293,7.86702262 C5.36159923,8.22163952 4.92221264,8.78432401 4.64351768,9.24863507 C4.24538201,9.91193659 3.83046126,10.948798 3.75,11.1575714 L3.90562467,11.3281321 C4.40887626,11.8954741 5.67804921,13.4727372 5.67682695,14.9994601 C5.67448934,16.6752901 4.14759936,18.4158413 3.78384618,18.8070312 Z M12.1841759,19.8692719 C9.4977251,18.3185832 8.57746363,14.8718456 10.1284867,12.1859741 C11.6795098,9.50010254 15.1293733,8.57591372 17.8158241,10.1266024 C20.5022749,11.677291 21.4225364,15.1240286 19.8715133,17.8099002 C18.3204902,20.4957717 14.8706267,21.4199605 12.1841759,19.8692719 Z M16.8752464,11.7519779 C15.0837714,10.7176693 12.7862865,11.3332786 11.7519779,13.1247536 C10.7176693,14.9162286 11.3332786,17.2137135 13.1247536,18.2480221 C14.9162286,19.2823307 17.2137135,18.6667214 18.2480221,16.8752464 C19.2823307,15.0837714 18.6667214,12.7862865 16.8752464,11.7519779 Z" id="形状" fill="#999999"></path>
            </g>
        </g>
    </g>
</svg>