<?xml version="1.0" encoding="UTF-8"?>
<svg width="40px" height="40px" viewBox="0 0 40 40" version="1.1" xmlns="http://www.w3.org/2000/svg" xmlns:xlink="http://www.w3.org/1999/xlink">
    <title>特</title>
    <g id="页面-1" stroke="none" stroke-width="1" fill="none" fill-rule="evenodd">
        <g id="紧急程度" transform="translate(-118.000000, -38.000000)" fill="#E30000">
            <g id="特" transform="translate(118.000000, 38.000000)">
                <rect id="矩形" fill-opacity="0.09555" x="0" y="0" width="40" height="40" rx="4"></rect>
                <path d="M36,0 C38.209139,0 40,1.790861 40,4 L40,36 C40,38.209139 38.209139,40 36,40 L4,40 C1.790861,40 0,38.209139 0,36 L0,4 C0,1.790861 1.790861,0 4,0 L36,0 Z M36,1.33333333 L4,1.33333333 C2.52724067,1.33333333 1.33333333,2.52724067 1.33333333,4 L1.33333333,36 C1.33333333,37.4727593 2.52724067,38.6666667 4,38.6666667 L36,38.6666667 C37.4727593,38.6666667 38.6666667,37.4727593 38.6666667,36 L38.6666667,4 C38.6666667,2.52724067 37.4727593,1.33333333 36,1.33333333 Z" id="矩形" fill-rule="nonzero"></path>
                <g transform="translate(5.344000, 4.856000)" fill-rule="nonzero" id="形状">
                    <path d="M19.52,0 L19.52,3.424 L13.888,3.424 L13.888,5.504 L19.52,5.504 L19.52,9.248 L12.128,9.248 L12.128,11.424 L29.152,11.424 L29.152,9.248 L21.824,9.248 L21.824,5.504 L27.744,5.504 L27.744,3.424 L21.824,3.424 L21.824,0 L19.52,0 Z M12.896,15.2 L12.896,17.376 L23.136,17.376 L23.136,25.824 C23.136,26.656 22.752,27.104 22.048,27.104 C20.832,27.104 19.584,27.04 18.304,26.944 L18.784,29.12 L22.848,29.12 C24.512,29.12 25.376,28.192 25.376,26.4 L25.376,17.376 L28.896,17.376 L28.896,15.2 L25.376,15.2 L25.376,13.12 L23.136,13.12 L23.136,15.2 L12.896,15.2 Z M15.264,18.848 L13.472,19.968 C15.072,21.792 16.352,23.456 17.28,24.992 L19.104,23.712 C18.208,22.304 16.928,20.704 15.264,18.848 Z M3.168,8.928 L6.176,8.928 L6.176,17.408 C4.192,18.048 2.176,18.592 0.128,19.008 L0.672,21.248 C2.528,20.736 4.384,20.192 6.176,19.584 L6.176,29.344 L8.384,29.344 L8.384,18.752 C9.376,18.368 10.368,17.952 11.392,17.504 L11.392,15.328 C10.4,15.776 9.408,16.192 8.384,16.608 L8.384,8.928 L11.296,8.928 L11.296,6.688 L8.384,6.688 L8.384,0.032 L6.176,0.032 L6.176,6.688 L3.488,6.688 C3.648,5.408 3.744,4.096 3.808,2.72 L1.696,2.56 C1.568,6.24 0.992,9.728 0,13.056 L2.016,13.632 C2.464,12.128 2.848,10.56 3.168,8.928 Z"></path>
                </g>
            </g>
        </g>
    </g>
</svg>