<?xml version="1.0" encoding="UTF-8"?>
<svg width="40px" height="40px" viewBox="0 0 40 40" version="1.1" xmlns="http://www.w3.org/2000/svg" xmlns:xlink="http://www.w3.org/1999/xlink">
    <title>编组 6</title>
    <defs>
        <path d="M1.524,0 C0.685,0 -2.84217094e-14,0.71 -2.84217094e-14,1.576 L-2.84217094e-14,1.576 L-2.84217094e-14,2.404 C-2.84217094e-14,2.849 0.126,2.964 0.597,2.964 L0.597,2.964 L3.366,2.964 C3.81,2.962 3.913,2.915 3.913,2.479 L3.913,2.479 L3.913,2.37 C3.913,1.936 4.256,1.582 4.675,1.582 L4.675,1.582 L5.285,1.582 C5.703,1.582 6.046,1.936 6.046,2.37 L6.046,2.37 L6.046,2.485 C6.046,2.92 6.154,2.962 6.573,2.962 L6.573,2.962 L11.885,2.962 C12.273,2.962 12.31,2.907 12.31,2.545 L12.31,2.545 L12.31,2.37 C12.31,1.936 12.654,1.582 13.073,1.582 L13.073,1.582 L13.666,1.582 C14.085,1.582 14.428,1.936 14.428,2.37 L14.428,2.37 L14.428,2.508 C14.428,2.899 14.556,2.962 14.93,2.962 L14.93,2.962 L17.862,2.962 C18.258,2.962 18.372,2.851 18.372,2.457 L18.372,2.457 L18.372,1.576 C18.372,0.71 17.685,0 16.847,0 L16.847,0 L1.524,0 Z M14.954,4.146 C14.541,4.146 14.432,4.217 14.432,4.569 L14.432,4.569 L14.432,4.737 C14.432,5.17 14.089,5.526 13.669,5.526 L13.669,5.526 L13.076,5.526 C12.658,5.526 12.315,5.17 12.315,4.737 L12.315,4.737 L12.315,4.581 C12.315,4.24 12.22,4.146 11.881,4.146 L11.881,4.146 L6.596,4.146 C6.164,4.146 6.05,4.241 6.05,4.636 L6.05,4.636 L6.05,4.737 C6.05,5.17 5.707,5.526 5.288,5.526 L5.288,5.526 L4.679,5.526 C4.26,5.526 3.916,5.17 3.916,4.737 L3.916,4.737 L3.916,4.673 C3.916,4.212 3.805,4.146 3.39,4.146 L3.39,4.146 L0.583,4.146 C0.121,4.146 -2.84217094e-14,4.264 -2.84217094e-14,4.737 L-2.84217094e-14,4.737 L-2.84217094e-14,12.619 C-2.84217094e-14,13.487 0.686,14.196 1.524,14.196 L1.524,14.196 L16.847,14.196 C17.687,14.196 18.372,13.486 18.372,12.619 L18.372,12.619 L18.372,4.618 C18.372,4.264 18.225,4.146 17.903,4.146 L17.903,4.146 L14.954,4.146 Z" id="path-1"></path>
        <path d="M0.264,3.496 C0.264,3.496 0.232,3.871 0.794,3.871 L0.794,3.871 C1.356,3.871 1.441,3.496 1.441,3.496 L1.441,3.496 C1.88,2.189 3.005,1.26 4.323,1.26 L4.323,1.26 C5.64,1.26 6.765,2.189 7.205,3.496 L7.205,3.496 C7.205,3.496 7.298,3.927 7.841,3.927 L7.841,3.927 C8.384,3.927 8.38300001,3.496 8.38300001,3.496 L8.38300001,3.496 C7.906,1.483 6.269,0 4.323,0 L4.323,0 C2.378,0 0.741,1.483 0.264,3.496 L0.264,3.496 Z M-2.84217094e-14,7.347 L-2.84217094e-14,8.272 C-2.84217094e-14,8.685 0.23,9.024 0.511,9.024 L0.511,9.024 C0.792,9.024 1.023,8.685 1.023,8.272 L1.023,8.272 L1.023,7.347 C1.023,6.934 0.792,6.596 0.511,6.596 L0.511,6.596 C0.23,6.596 -2.84217094e-14,6.934 -2.84217094e-14,7.347 L-2.84217094e-14,7.347 Z M8.383,7.37 L8.383,8.295 C8.383,8.708 8.613,9.046 8.894,9.046 L8.894,9.046 C9.176,9.046 9.406,8.708 9.406,8.295 L9.406,8.295 L9.406,7.37 C9.406,6.957 9.176,6.618 8.894,6.618 L8.894,6.618 C8.613,6.618 8.383,6.957 8.383,7.37 L8.383,7.37 Z" id="path-3"></path>
    </defs>
    <g id="页面-1" stroke="none" stroke-width="1" fill="none" fill-rule="evenodd">
        <g id="申请界面" transform="translate(-208.000000, -165.000000)">
            <g id="编组-6" transform="translate(208.000000, 165.000000)">
                <rect id="矩形备份-4" fill="#3389E0" x="0" y="0" width="40" height="40" rx="20"></rect>
                <g id="编组-13" opacity="0.900000036" transform="translate(10.810000, 10.218000)">
                    <g id="编组" transform="translate(0.000000, 4.426000)">
                        <mask id="mask-2" fill="white">
                            <use xlink:href="#path-1"></use>
                        </mask>
                        <g id="Clip-6"></g>
                        <polygon id="Fill-5" fill="#FFFFFF" mask="url(#mask-2)" points="-0.835 15.031 19.207 15.031 19.207 -0.836 -0.835 -0.836"></polygon>
                    </g>
                    <g id="编组" transform="translate(4.483000, 0.000000)">
                        <mask id="mask-4" fill="white">
                            <use xlink:href="#path-3"></use>
                        </mask>
                        <g id="Clip-8"></g>
                        <polygon id="Fill-7" fill="#FFFFFF" mask="url(#mask-4)" points="-0.835 9.881 10.241 9.881 10.241 -0.835 -0.835 -0.835"></polygon>
                    </g>
                </g>
            </g>
        </g>
    </g>
</svg>