<?xml version="1.0" encoding="UTF-8"?>
<svg width="48px" height="48px" viewBox="0 0 48 48" version="1.1" xmlns="http://www.w3.org/2000/svg" xmlns:xlink="http://www.w3.org/1999/xlink">
    <title>钉钉云盘</title>
    <g id="页面-1" stroke="none" stroke-width="1" fill="none" fill-rule="evenodd">
        <g id="16.2团队文件-分享" transform="translate(-616.000000, -108.000000)" fill="#000000" fill-rule="nonzero">
            <g id="钉钉云盘" transform="translate(616.000000, 108.000000)">
                <path d="M13.096563,37.3483894 L33.0928494,37.3483894 C37.1087279,37.3455602 40.3594434,33.9587074 40.3594434,29.0972071 C40.3594434,23.3361026 36.9314753,20.4073675 33.0928494,19.4312324 C32.1174074,19.1831845 31.3604338,19.0764625 30.8219285,19.1110664 C30.7566615,16.8875438 30.3153918,15.1026173 29.4981194,13.7562871 C27.6925785,10.781937 23.7430155,9.86493963 20.2338681,10.375184 C16.7247207,10.8854284 13.4854276,13.9927235 12.7664445,17.0067998 C12.5004298,18.1219701 12.6104693,20.2317377 13.096563,23.3361026 L11.599737,24.2357067 C8.86848606,25.5389802 7.07344942,29.2768342 7.83737254,32.2045474 C8.4641933,34.6083936 10.6226165,37.3394303 13.096563,37.3483894 Z M33.0928494,41 L13.096563,41 C8.07683216,41.0036691 4.00414061,35.8678431 4.00000205,30.8267445 C3.99756721,27.1742939 6.16350289,22.8197886 9.50607738,21.3792727 C8.23951185,16.3584627 11.7335213,6.58503878 22.6857444,7.01364694 C28.6728656,7.24794906 33.4360958,10.6272944 33.6924374,16.0224607 C39.116902,17.0067998 44.0000021,21.7905017 44.0000021,28.4734489 C44.0000021,35.1563962 39.116902,41 33.0928494,41 Z" id="形状"></path>
                <path d="M16.3666657,24.0816899 L21.3437263,19.4611847 C21.8020616,18.9111841 22.7187279,18.8195187 23.2687285,19.3695181 C23.5437289,19.6445184 23.7270638,20.0111841 23.7270638,20.377854 L23.7270638,32.2945202 C23.7270638,33.0278559 23.0853979,33.6695218 22.3520622,33.6695218 C21.6187266,33.6695218 20.9770606,33.0278559 20.9770606,32.2945202 L20.9770606,24.0445106 L18.4750029,25.9150126 C18.0166676,26.4650133 17.1000013,26.5566786 16.5500006,26.0066792 C16.1833337,25.8233456 16,25.4566786 16,24.9983433 C16,24.6316892 16.0916653,24.3566902 16.3666657,24.0816899 Z M25.2853819,20.377851 C25.2853819,19.6445154 25.9270479,19.0028494 26.6603835,19.0028494 C27.3937192,19.0028494 28.0353851,19.6445154 28.0353851,20.377851 L28.0353851,28.6278606 L30.53495,25.9150126 C31.0849506,25.365012 31.9099516,25.2733466 32.4599522,25.823346 C33.0099528,26.3733466 33.1016182,27.1983476 32.5516188,27.7483482 L27.5770511,33.2111994 C27.1187158,33.7612001 26.2020495,33.8528654 25.6520489,33.3028661 C25.4687152,33.0278657 25.2853819,32.6612001 25.2853819,32.2945301 L25.2853819,20.377851 Z" id="形状"></path>
            </g>
        </g>
    </g>
</svg>