<?xml version="1.0" encoding="UTF-8"?>
<svg width="28px" height="28px" viewBox="0 0 28 28" version="1.1" xmlns="http://www.w3.org/2000/svg" xmlns:xlink="http://www.w3.org/1999/xlink">
    <title>5-反馈</title>
    <g id="页面-1" stroke="none" stroke-width="1" fill="none" fill-rule="evenodd">
        <g id="5更多" transform="translate(-402.000000, -587.000000)" fill-rule="nonzero">
            <g id="5-反馈" transform="translate(416.000000, 601.000000) scale(-1, 1) translate(-416.000000, -601.000000) translate(402.000000, 587.000000)">
                <rect id="矩形" fill="#0A0E11" opacity="0" x="0" y="0" width="28" height="28"></rect>
                <path d="M22.6589147,1 C25.0465116,1 27,2.83941606 27,5.08759123 L27,27 L17.6666666,22.7489051 L5.34108525,22.7489051 C2.95348837,22.7489051 1,20.909489 1,18.6613139 L1,5.08759123 C1,2.83941606 2.95348837,1 5.34108525,1 L22.6589147,1 Z M22.4343599,3.33586466 L5.59827529,3.36215606 C4.43626436,3.36215606 3.4855282,4.25737482 3.4855282,5.35153111 L3.4855282,18.255424 C3.4855282,19.3495803 4.43626441,20.2447991 5.59827529,20.2447991 L18.2818678,20.2447991 L24.5471069,23.2007622 L24.5471069,5.3252397 C24.5471069,4.23108342 23.5963707,3.33586466 22.4343599,3.33586466 Z M19.2189349,9.65088757 C20.3398442,9.65088757 21.2485207,10.5595641 21.2485207,11.6804734 C21.2485207,12.8013827 20.3398442,13.7100592 19.2189349,13.7100592 C18.0980256,13.7100592 17.1893491,12.8013827 17.1893491,11.6804734 C17.1893491,10.5595641 18.0980256,9.65088757 19.2189349,9.65088757 Z M9.36094675,9.65088757 C10.481856,9.65088757 11.3905325,10.5595641 11.3905325,11.6804734 C11.3905325,12.8013827 10.481856,13.7100592 9.36094675,13.7100592 C8.24003746,13.7100592 7.33136095,12.8013827 7.33136095,11.6804734 C7.33136095,10.5595641 8.24003746,9.65088757 9.36094675,9.65088757 Z" id="形状" fill="#171A1D"></path>
            </g>
        </g>
    </g>
</svg>