<?xml version="1.0" encoding="UTF-8"?>
<svg width="76px" height="76px" viewBox="0 0 76 76" version="1.1" xmlns="http://www.w3.org/2000/svg" xmlns:xlink="http://www.w3.org/1999/xlink">
    <title>excel备份</title>
    <defs>
        <linearGradient x1="12.3202501%" y1="16.9064115%" x2="94.2615964%" y2="96.7831454%" id="linearGradient-1">
            <stop stop-color="#9563FF" offset="0%"></stop>
            <stop stop-color="#B885FF" offset="100%"></stop>
        </linearGradient>
    </defs>
    <g id="页面-1" stroke="none" stroke-width="1" fill="none" fill-rule="evenodd">
        <g id="14列表视图" transform="translate(-28.000000, -1052.000000)">
            <g id="excel备份" transform="translate(28.000000, 1052.000000)">
                <g id="excel" transform="translate(13.194562, 0.000000)" fill="#CCD3E0">
                    <path d="M47.8707766,75.8661434 L9.12915374,76 C4.09582168,76 0,72.5253024 0,68.2559244 L0,7.87793225 C0,3.60855423 4.09582168,0.13385661 9.12915374,0.13385661 L41.7644803,0 C42.2243819,0 42.6664367,0.15761476 43.0050363,0.437546125 L56.0511567,13.1167879 C56.4218944,13.4288714 56.6357761,13.8664175 56.6357761,14.3265519 L57,68.1221307 C57,72.3915087 52.9041086,75.8661434 47.8707766,75.8661434 Z M10.121456,2.6780018 C5.01108247,2.6780018 2.48577611,5.64251439 2.48577611,9.23601978 L2.48577611,67.7736856 C2.48577611,71.2500544 6.96067249,73.6374019 10.121456,73.6374019 L46.878544,73.4972729 C50.3414297,73.4972729 54.5142239,71.5228313 54.5142239,67.6335566 L54.15,15.2064995 L41.1332233,2.53787281 L10.121456,2.6780018 Z" id="形状" fill-rule="nonzero"></path>
                    <path d="M38.4502513,18.1301445 C37.6762917,18.1301445 37.05,17.4828461 37.05,16.6829268 L37.2541809,1.44716235 C37.2541809,0.647243085 37.8804726,0 38.6544322,0 C39.4283918,0 40.05463,0.647243085 40.05463,1.44716235 L39.8504491,15.2358198 L54.5304297,15.2358198 C55.3043893,15.2358198 55.9306275,15.8830628 55.9306275,16.6829821 C55.9306275,17.4829014 55.3043893,18.1301445 54.5304297,18.1301445 L38.4502513,18.1301445 Z" id="路径" fill-rule="nonzero"></path>
                    <rect id="矩形" x="36.1" y="33.3658537" width="13.3" height="1.85365854"></rect>
                    <rect id="矩形备份" x="36.1" y="40.7804878" width="13.3" height="1.85365854"></rect>
                    <rect id="矩形备份-2" x="36.1" y="48.195122" width="13.3" height="1.85365854"></rect>
                </g>
                <path d="M40.4374188,58.9 L8.95170453,58.9 C7.05170451,58.9 5.69456167,57.5428571 5.69456167,55.6428571 L5.69456167,24.1571429 C5.69456167,22.2571429 7.05170451,20.9 8.95170453,20.9 L40.7088474,20.9 C42.3374188,20.9 43.6945617,22.2571428 43.6945617,24.1571429 L43.6945617,55.9142857 C43.6945617,57.5428571 42.3374188,58.9 40.4374188,58.9 L40.4374188,58.9 Z" id="路径" fill="url(#linearGradient-1)" fill-rule="nonzero"></path>
                <g id="编组-3" transform="translate(12.000000, 27.000000)">
                    <path d="M24,0 C24.5522847,-1.01453063e-16 25,0.44771525 25,1 L25,6 C25,6.55228475 24.5522847,7 24,7 L16,7 C15.4477153,7 15,6.55228475 15,6 L15,4.5 L13,4.5 C10.4071744,4.5 8.27530056,6.47356941 8.02464364,9.00044318 L13,9 C13.5522847,9 14,9.44771525 14,10 L14,16 C14,16.5522847 13.5522847,17 13,17 L8.02475849,17.0007133 C8.2689098,19.4562168 10.2895436,21.3889557 12.7831104,21.4953805 L13,21.5 L20,21.5 L20,23.5 L13,23.5 C9.30225663,23.5 6.27417336,20.6328443 6.01760973,17.0003924 L1,17 C0.44771525,17 6.76353751e-17,16.5522847 0,16 L0,10 C-6.76353751e-17,9.44771525 0.44771525,9 1,9 L6.01753877,9.00061334 C6.26803729,5.44680744 9.17132205,2.62527506 12.7593502,2.50405902 L13,2.5 L15,2.5 L15,1 C15,0.44771525 15.4477153,1.01453063e-16 16,0 L24,0 Z" id="形状结合" fill="#FFFFFF"></path>
                    <rect id="矩形备份-6" fill="#DCD2FF" x="15" y="19" width="10" height="7" rx="1"></rect>
                </g>
            </g>
        </g>
    </g>
</svg>