<?xml version="1.0" encoding="UTF-8"?>
<svg width="76px" height="76px" viewBox="0 0 76 76" version="1.1" xmlns="http://www.w3.org/2000/svg" xmlns:xlink="http://www.w3.org/1999/xlink">
    <title>apk</title>
    <defs>
        <linearGradient x1="50%" y1="0%" x2="50%" y2="100%" id="linearGradient-1">
            <stop stop-color="#1F8FFE" offset="0%"></stop>
            <stop stop-color="#00ADFF" offset="100%"></stop>
        </linearGradient>
    </defs>
    <g id="页面-1" stroke="none" stroke-width="1" fill="none" fill-rule="evenodd">
        <g id="2搜索(全局）" transform="translate(-27.000000, -902.000000)" fill-rule="nonzero">
            <g id="apk" transform="translate(27.000000, 902.000000)">
                <rect id="矩形" fill="#000000" opacity="0" x="0" y="0" width="76" height="76"></rect>
                <path d="M10.1205357,0 L49.859375,0 L68.7745536,18.8910935 L68.7745536,72.9673721 C68.7745536,74.1240432 67.8251473,75.0617284 66.6540179,75.0617284 L10.1205357,75.0617284 C8.94940625,75.0617284 8,74.1240432 8,72.9673721 L8,2.09435626 C8,0.937685185 8.94940625,0 10.1205357,0 Z" id="路径" fill="#D1EAFF"></path>
                <path d="M46.1627119,58 L46.1627119,56.1261993 C43.9028249,55.9845018 42.4384181,55.6892989 41.7694915,55.2405904 C41.100565,54.7918819 40.7661017,53.6307503 40.7661017,51.7571956 L40.7661017,29.0073801 L43.8576271,29.0073801 C47.0757062,29.0073801 49.1864407,29.397048 50.1898305,30.1763838 C51.1932203,30.9557196 52.020339,32.6364084 52.6711864,35.2184502 L54,35.2184502 L53.7016949,26 L22.3254237,26 L22,35.2184502 L23.3559322,35.2184502 C23.9163842,32.6206642 24.7525424,30.9360394 25.8644068,30.1645756 C26.9762712,29.3931119 29.0689266,29.0073801 32.1423729,29.0073801 L35.2338983,29.0073801 L35.2338983,51.1904059 C35.2338983,53.2843788 34.9446328,54.5911439 34.3661017,55.1107011 C33.7875706,55.6302583 32.3231638,55.9687577 29.9728814,56.1261993 L29.9728814,58 L46.1627119,58 Z" id="T" fill="url(#linearGradient-1)"></path>
            </g>
        </g>
    </g>
</svg>