<?xml version="1.0" encoding="UTF-8"?>
<svg width="76px" height="76px" viewBox="0 0 76 76" version="1.1" xmlns="http://www.w3.org/2000/svg" xmlns:xlink="http://www.w3.org/1999/xlink">
    <title>16.2pdf</title>
    <g id="页面-1" stroke="none" stroke-width="1" fill="none" fill-rule="evenodd">
        <g id="16.2团队文件-分享" transform="translate(-28.000000, -561.000000)" fill-rule="nonzero">
            <g id="16.2pdf" transform="translate(28.000000, 561.000000)">
                <rect id="矩形" fill="#000000" opacity="0" x="0" y="0" width="76" height="76"></rect>
                <path d="M9.14704241,0 L49.6190569,0 L68.5342355,18.8910935 L68.5342355,73.8794643 C68.5342355,75.0505938 67.5729617,76 66.3871931,76 L9.14704241,76 C7.96127383,76 7,75.0505938 7,73.8794643 L7,2.12053571 C7,0.94940625 7.96127383,0 9.14704241,0 Z" id="路径" fill="#FF4867"></path>
                <path d="M49.6190569,0 L49.6190569,16.7967372 C49.6190569,17.9534083 50.5684632,18.8910935 51.7395926,18.8910935 L68.5342355,18.8910935 L49.6190569,0 Z" id="路径" fill="#FF97A9"></path>
                <path d="M51.4458107,62.8641975 C47.6797379,62.8641975 44.3021474,56.3948787 42.5251378,52.1881104 C39.5357751,50.9390629 36.2405463,49.7723795 33.0394692,49.0182809 C30.238495,50.8683317 25.4722075,53.6374641 21.8120768,53.6374641 C19.5407277,53.6374641 17.9048611,52.494471 17.3046644,50.5030426 C16.8456955,48.8651006 17.234093,47.7338253 17.7283476,47.1210193 C18.6933613,45.8012406 20.6822549,45.129591 23.6598274,45.129591 C26.0724042,45.129591 29.1322535,45.5538086 32.5452146,46.3786385 C34.7459073,44.8114278 36.9819706,42.9967001 38.970949,41.0759181 C38.0882969,36.8809526 37.1231984,30.0816678 39.5711457,26.9472463 C40.7832443,25.4506819 42.630995,24.9557331 44.8670583,25.6274676 C47.3150056,26.3344404 48.2446488,27.8310048 48.5271043,29.0094059 C49.5627743,33.0983171 44.8670583,38.6131463 41.701267,41.853707 C42.4074056,44.6582475 43.3371337,47.6159682 44.4669555,50.326172 C49.0096536,52.3530085 54.4114234,55.3814604 55.023495,58.6809498 C55.2705799,59.8239429 54.917553,60.884487 53.987825,61.8154561 C53.1875345,62.4753031 52.3401682,62.8641975 51.4457259,62.8641975 L51.4458107,62.8641975 Z M49.4,57.2345679 C50.0399777,58.5094444 50.6501449,59.1111111 50.9717717,59.1111111 C51.0215652,59.1111111 51.0912106,59.0915833 51.1906666,59.0135309 C51.3100401,58.8964815 51.3100401,58.818429 51.2901226,58.7468858 C51.2238186,58.4118642 50.6832969,57.8622716 49.4,57.2345679 Z M24.3536364,47.8518519 C23.2544509,47.8518519 22.9523508,48.2059556 22.8603767,48.3711852 C22.8341286,48.4242914 22.7553137,48.5836099 22.8341286,48.996637 C22.8997841,49.3507407 23.0837323,49.7283951 23.6529584,49.7283951 C24.3667253,49.7283951 25.4001848,49.1914222 26.6,48.2295062 C25.7417627,47.9757975 24.9841551,47.8518519 24.3536364,47.8518519 Z M38,45.295567 C38.6333107,45.4832213 39.2899643,45.7250788 39.9,45.9753086 C39.6785143,45.3581425 39.4997786,44.7159316 39.3483214,44.0987654 C38.9066439,44.5074906 38.4571083,44.9065088 38,45.295567 L38,45.295567 Z M44.5494878,30.962963 C44.3319718,30.962963 44.1793831,31.0453298 44.0420598,31.1982681 C43.6376243,31.7198801 43.591828,33.0336614 43.904671,34.7160494 C45.0912466,33.4140635 45.7360634,32.2179012 45.5758092,31.5786702 C45.5528783,31.484575 45.4842166,31.1982681 44.9309924,31.0335344 C44.7783381,30.9864868 44.6639457,30.962963 44.5494878,30.962963 Z" id="形状" fill="#FFFFFF"></path>
            </g>
        </g>
    </g>
</svg>