<?xml version="1.0" encoding="UTF-8"?>
<svg width="38px" height="38px" viewBox="0 0 38 38" version="1.1" xmlns="http://www.w3.org/2000/svg" xmlns:xlink="http://www.w3.org/1999/xlink">
    <title>文件2备份 4</title>
    <g id="页面-1" stroke="none" stroke-width="1" fill="none" fill-rule="evenodd">
        <g id="文件2备份-4" transform="translate(19.000000, 19.000000) scale(-1, 1) translate(-19.000000, -19.000000) " fill="#0089FE" fill-rule="nonzero">
            <path d="M33.1418995,7.94166565 L33.1418995,29.9620909 C33.1418995,30.5522137 32.7055156,31.0335195 32.1704709,31.0335195 L5.86612447,31.0335195 C5.33107982,31.0335195 4.8946959,30.5522137 4.8946959,29.9620909 L4.8946959,11.775364 C4.8946959,11.1852412 5.33107982,10.7039354 5.86612447,10.7039354 L20.0055804,10.7039354 L23.6800513,6.89465638 L32.1704709,6.87023708 C32.7055156,6.87023708 33.1418995,7.35154288 33.1418995,7.94166565 Z M32.6,4 L23.1058036,4 C22.6542411,4 22.2216518,4.19670759 21.9029018,4.54827009 L19,7.75 L5.4,7.75 C3.52165179,7.75 2,9.42829241 2,11.5 L2,30.25 C2,32.3217076 3.52165179,34 5.4,34 L32.6,34 C34.4783482,34 36,32.3217076 36,30.25 L36,7.75 C36,5.67829241 34.4783482,4 32.6,4 Z" id="形状"></path>
            <path d="M13.3400425,20.4443997 C14.5638051,20.4443997 15.5555556,19.4495429 15.5555556,18.2224088 L15.5555556,18.2224027 C15.5540104,17.8304107 15.4467364,17.446316 15.2453497,17.111706 C14.6335695,16.0485018 13.278712,15.6844969 12.2191644,16.298064 C11.1596168,16.9120269 10.7965036,18.2708885 11.4082854,19.3337047 C11.8064737,20.025158 12.5440656,20.4493686 13.34024,20.4444444 M27.7777778,18.2224088 C27.7762326,17.8304107 27.6689586,17.446316 27.4675719,17.111706 C26.8557917,16.0485018 25.5009342,15.6844969 24.4413866,16.298064 C23.381839,16.9120269 23.0187259,18.2708885 23.6305077,19.3337047 C24.0286959,20.025158 24.7662878,20.4493686 25.5624622,20.4444444 C26.7860273,20.4443997 27.7777778,19.4495429 27.7777778,18.2224088 Z M15.1038859,21.6714131 C14.8147146,21.5917812 14.515857,21.5528367 14.2159356,21.555703 L12.4406795,21.555703 C12.1408067,21.5536284 11.8420564,21.592559 11.5527292,21.6714131 C10.9389956,21.8172145 10.375203,22.123939 9.91938633,22.5600157 C9.24781253,23.237825 8.87663214,24.1569857 8.88919785,25.1110773 C8.8890284,25.601727 9.28653099,25.9996541 9.77716054,26 L16.8801204,26 C17.3705002,25.9994708 17.767751,25.6017845 17.767751,25.1113974 C17.7811201,24.9575133 17.7811201,24.8027595 17.7677509,24.648876 C17.5867132,23.3280221 16.6817561,22.2195413 15.4238541,21.7778621 C15.3194075,21.735453 15.2126347,21.6998971 15.1038859,21.6714131 Z M27.3261081,21.6714131 C27.0369369,21.5917812 26.7380792,21.5528367 26.4381578,21.555703 L24.6629017,21.555703 C24.3630289,21.5536284 24.0642786,21.592559 23.7749514,21.6714131 C23.1612178,21.8172145 22.5974252,22.123939 22.1416086,22.5600157 C21.4700348,23.237825 21.0988544,24.1569857 21.1114201,25.1110773 C21.1112506,25.601727 21.5087532,25.9996541 21.9993828,26 L29.1023426,26 C29.5927224,25.9994708 29.9899732,25.6017845 29.9899732,25.1113974 C30.0033423,24.9575133 30.0033423,24.8027595 29.9899731,24.648876 C29.8089354,23.3280221 28.9039783,22.2195413 27.6460763,21.7778621 C27.5416298,21.735453 27.4348569,21.6998971 27.3261081,21.6714131 Z" id="形状"></path>
        </g>
    </g>
</svg>