<?xml version="1.0" encoding="UTF-8"?>
<svg width="34px" height="34px" viewBox="0 0 34 34" version="1.1" xmlns="http://www.w3.org/2000/svg" xmlns:xlink="http://www.w3.org/1999/xlink">
    <title>15-邮件</title>
    <g id="页面-1" stroke="none" stroke-width="1" fill="none" fill-rule="evenodd">
        <g id="15文件菜单（功能不同，页面形式一样）" transform="translate(-60.000000, -1544.000000)" fill="#171A1D" fill-rule="nonzero">
            <g id="15-邮件" transform="translate(60.000000, 1544.000000)">
                <path d="M29.4897959,3 C31.9807128,3 34,4.96546233 34,7.389983 L34,27.130017 C34,29.5545376 31.9807128,31.52 29.4897959,31.52 L4.51020409,31.52 C2.01928715,31.52 0,29.5545376 0,27.130017 L0,7.389983 C0,4.96546233 2.01928716,3 4.51020409,3 L29.4897959,3 Z M31.0020492,13.5125324 L18.6759844,19.99889 C17.4968357,20.5679168 16.1193385,20.6126019 14.903278,20.1212741 L14.6274302,20.0002349 L3.00329569,13.5111875 L3.00329569,26.8559953 C3.00329569,27.7261329 3.68873569,28.4429541 4.56643325,28.5290264 L4.74475909,28.5370957 L29.2605858,28.5370957 C30.2218736,28.5370957 31.0020492,27.7839627 31.0020492,26.8559953 L31.0020492,13.5125324 Z M29.2605856,6.01451023 L4.74475908,6.01451023 C3.78347128,6.01451023 3.00329569,6.75864503 3.00329569,7.67552543 L3.00329569,10.0357862 L15.8729248,17.0386263 C16.3020213,17.2432634 16.7979901,17.2698396 17.2424116,17.1156974 L17.4304897,17.0386263 L31.0020717,10.0344574 L31.0020717,7.67552543 C31.0024568,6.82373685 30.3272605,6.10970617 29.4389114,6.0224831 L29.2605856,6.01451023 Z" id="形状"></path>
            </g>
        </g>
    </g>
</svg>