<?xml version="1.0" encoding="UTF-8"?>
<svg width="48px" height="48px" viewBox="0 0 48 48" version="1.1" xmlns="http://www.w3.org/2000/svg" xmlns:xlink="http://www.w3.org/1999/xlink">
    <title>更多</title>
    <g id="页面-1" stroke="none" stroke-width="1" fill="none" fill-rule="evenodd">
        <g id="16.2团队文件-分享" transform="translate(-674.000000, -108.000000)">
            <g id="更多" transform="translate(674.000000, 108.000000)">
                <rect id="矩形" fill="#000000" fill-rule="nonzero" opacity="0" x="0" y="0" width="48" height="48"></rect>
                <path d="M9,20 C11.209139,20 13,21.790861 13,24 C13,26.209139 11.209139,28 9,28 C6.790861,28 5,26.209139 5,24 C5,21.790861 6.790861,20 9,20 Z M24,20 C26.209139,20 28,21.790861 28,24 C28,26.209139 26.209139,28 24,28 C21.790861,28 20,26.209139 20,24 C20,21.790861 21.790861,20 24,20 Z M39,20 C41.209139,20 43,21.790861 43,24 C43,26.209139 41.209139,28 39,28 C36.790861,28 35,26.209139 35,24 C35,21.790861 36.790861,20 39,20 Z" id="形状结合" fill="#0B1013"></path>
            </g>
        </g>
    </g>
</svg>