<?xml version="1.0" encoding="UTF-8"?>
<svg width="48px" height="48px" viewBox="0 0 48 48" version="1.1" xmlns="http://www.w3.org/2000/svg" xmlns:xlink="http://www.w3.org/1999/xlink">
    <title>更多备份 2</title>
    <g id="页面-1" stroke="none" stroke-width="1" fill="none" fill-rule="evenodd">
        <g id="16.1团队文件" transform="translate(-674.000000, -652.000000)">
            <g id="更多备份-2" transform="translate(674.000000, 652.000000)">
                <rect id="矩形" fill="#EFF0F1" fill-rule="nonzero" x="0" y="10" width="48" height="28" rx="4"></rect>
                <path d="M14.5263158,22 C15.9215615,22 17.0526316,23.1192881 17.0526316,24.5 C17.0526316,25.8807119 15.9215615,27 14.5263158,27 C13.1310701,27 12,25.8807119 12,24.5 C12,23.1192881 13.1310701,22 14.5263158,22 Z M24.5789474,22 C25.9741931,22 27.1052632,23.1192881 27.1052632,24.5 C27.1052632,25.8807119 25.9741931,27 24.5789474,27 C23.1837017,27 22.0526316,25.8807119 22.0526316,24.5 C22.0526316,23.1192881 23.1837017,22 24.5789474,22 Z M34.6315789,22 C36.0268246,22 37.1578947,23.1192881 37.1578947,24.5 C37.1578947,25.8807119 36.0268246,27 34.6315789,27 C33.2363333,27 32.1052632,25.8807119 32.1052632,24.5 C32.1052632,23.1192881 33.2363333,22 34.6315789,22 Z" id="形状结合" fill="#999A9C"></path>
            </g>
        </g>
    </g>
</svg>