<?xml version="1.0" encoding="UTF-8"?>
<svg width="38px" height="38px" viewBox="0 0 38 38" version="1.1" xmlns="http://www.w3.org/2000/svg" xmlns:xlink="http://www.w3.org/1999/xlink">
    <title>文件2备份 5</title>
    <g id="页面-1" stroke="none" stroke-width="1" fill="none" fill-rule="evenodd">
        <g id="文件2备份-5" transform="translate(19.000000, 19.000000) scale(-1, 1) translate(-19.000000, -19.000000) " fill="#171A1D" fill-rule="nonzero">
            <path d="M32.6,4 C34.4177563,4 35.9014577,5.57176188 35.9952889,7.55078344 L36,7.75 L36,30.25 C36,32.2548783 34.5749359,33.8913137 32.780623,33.9948039 L32.6,34 L21,34 L21,31.033 L32.1704709,31.0335195 C32.6698459,31.0335195 33.0832765,30.6142486 33.1361811,30.0785542 L33.1418995,29.9620909 L33.1418995,7.94166565 C33.1418995,7.3908844 32.7617606,6.93489482 32.2760643,6.87654412 L32.1704709,6.87023708 L23.6800513,6.89465638 L20.0055804,10.7039354 L5.86612447,10.7039354 C5.36674947,10.7039354 4.95331891,11.1232062 4.90041428,11.6589007 L4.8946959,11.775364 L4.894,14 L2,14 L2,11.5 C2,9.49512169 3.42506411,7.85868631 5.21937699,7.75519608 L5.4,7.75 L19,7.75 L21.9029018,4.54827009 C22.1862351,4.23577009 22.5595155,4.04562459 22.9561156,4.00722806 L23.1058036,4 L32.6,4 Z M10,26 C14.086258,26 17.5445567,28.9584761 18.6390794,32.9986695 C18.7647638,33.4626061 18.4126725,34.0353027 17.492179,34 C16.5716856,33.9646973 16.0994113,33.4278401 15.9548322,33.0414096 C14.9679651,30.4037145 13.0257523,28.6214246 10,28.6214246 C6.97424767,28.6214246 5.20143811,30.398123 4.2118399,33.0295451 C4.06157526,33.429111 3.33520204,33.9779461 2.46901422,34 C1.60282639,34.0220539 1.23740027,33.4557411 1.35924891,33.0048478 C2.45191833,28.9614926 5.91165935,26 10,26 Z M10.5,16 C12.9808125,16 15,18.0191875 15,20.5 C15,22.9808125 12.981,25 10.5,25 C8.0191875,25 6,22.9808125 6,20.5 C6,18.0191875 8.0191875,16 10.5,16 Z M10.5,18.3061214 C9.37653909,18.3061214 8.25184945,19.2686971 8.25184945,20.4992472 C8.25184945,21.7297973 9.25181855,22.7369128 10.5,22.7369128 C11.7481815,22.7369128 12.7199315,21.6595458 12.7199315,20.5 C12.7199315,19.3404542 11.6234609,18.3061214 10.5,18.3061214 Z" id="形状结合"></path>
        </g>
    </g>
</svg>