<?xml version="1.0" encoding="UTF-8"?>
<svg width="38px" height="38px" viewBox="0 0 38 38" version="1.1" xmlns="http://www.w3.org/2000/svg" xmlns:xlink="http://www.w3.org/1999/xlink">
    <title>文件2备份 3</title>
    <g id="页面-1" stroke="none" stroke-width="1" fill="none" fill-rule="evenodd">
        <g id="文件2备份-3" transform="translate(19.000000, 19.000000) scale(-1, 1) translate(-19.000000, -19.000000) " fill="#171A1D" fill-rule="nonzero">
            <path d="M32.6,4 C34.4783482,4 36,5.67829241 36,7.75 L36,7.75 L36,30.25 C36,32.3217076 34.4783482,34 32.6,34 L32.6,34 L25,34 L25,31.033 L32.1704709,31.0335195 C32.6698459,31.0335195 33.0832765,30.6142486 33.1361811,30.0785542 L33.1418995,29.9620909 L33.1418995,7.94166565 C33.1418995,7.35154288 32.7055156,6.87023708 32.1704709,6.87023708 L32.1704709,6.87023708 L23.6800513,6.89465638 L20.0055804,10.7039354 L5.86612447,10.7039354 C5.33107982,10.7039354 4.8946959,11.1852412 4.8946959,11.775364 L4.8946959,11.775364 L4.894,14 L2,14 L2,11.5 C2,9.42829241 3.52165179,7.75 5.4,7.75 L5.4,7.75 L19,7.75 L21.9029018,4.54827009 C22.2216518,4.19670759 22.6542411,4 23.1058036,4 L23.1058036,4 Z" id="形状结合"></path>
            <path d="M15.5,25 C13.0191875,25 11,22.9808125 11,20.5 C11,18.0191875 13.0191875,16 15.5,16 C17.9808125,16 20,18.0191875 20,20.5 C20,22.9808125 17.981,25 15.5,25 Z M15.5,18.3061214 C14.3765391,18.3061214 13.2518495,19.2686971 13.2518495,20.4992472 C13.2518495,21.7297973 14.2518185,22.7369128 15.5,22.7369128 C16.7481815,22.7369128 17.7199315,21.6595458 17.7199315,20.5 C17.7199315,19.3404542 16.6234609,18.3061214 15.5,18.3061214 Z" id="形状"></path>
            <path d="M20.9548322,33.0414096 C19.9679651,30.4037145 18.0257523,28.6214246 15,28.6214246 C11.9742477,28.6214246 10.2014381,30.398123 9.2118399,33.0295451 C9.06157526,33.429111 8.33520204,33.9779461 7.46901422,34 C6.60282639,34.0220539 6.23740027,33.4557411 6.35924891,33.0048478 C7.45191833,28.9614926 10.9116594,26 15,26 C19.086258,26 22.5445567,28.9584761 23.6390794,32.9986695 C23.7647638,33.4626061 23.4126725,34.0353027 22.492179,34 C21.5716856,33.9646973 21.0994113,33.4278401 20.9548322,33.0414096 Z" id="路径"></path>
            <path d="M5.99281609,18.312825 C6.10004149,17.6588149 6.71714482,17.2155582 7.37115497,17.3227836 C8.02516512,17.430009 8.46842175,18.0471124 8.36119635,18.7011225 C7.97820152,21.0371596 8.25305163,22.6851461 9.10242124,23.720267 L9.22179761,23.8576282 C9.47040095,24.177457 9.57024854,24.5240772 9.52134036,24.897489 C9.47243218,25.2709008 9.20198489,25.5758384 8.7099985,25.8123017 L8.68787564,25.8216185 C8.62501534,25.8487543 8.54761047,25.8871003 8.45758382,25.93809 C8.17623806,26.0974398 7.68437101,26.4562152 7.36204263,26.7641707 C6.38718989,27.6955538 5.09113249,29.2559264 4.50435302,31.2669656 C4.31871935,31.9031784 3.65248116,32.2684449 3.01626838,32.0828113 C2.3800556,31.8971776 2.01478907,31.2309394 2.20042274,30.5947266 C2.90379948,28.1840796 4.60281173,26.124359 5.88694229,24.897489 C6.04304755,24.7483447 6.19922456,24.6105739 6.35476863,24.4837141 L6.6088254,24.284623 L6.57445501,24.2201538 C5.82047009,22.7595333 5.62083181,20.8976172 5.93838375,18.6679319 L5.99281609,18.312825 Z" id="路径"></path>
        </g>
    </g>
</svg>