<?xml version="1.0" encoding="UTF-8"?>
<svg width="56px" height="56px" viewBox="0 0 56 56" version="1.1" xmlns="http://www.w3.org/2000/svg" xmlns:xlink="http://www.w3.org/1999/xlink">
    <title>3-白板</title>
    <defs>
        <linearGradient x1="12.3202501%" y1="16.9064115%" x2="94.2615964%" y2="96.7831454%" id="linearGradient-1">
            <stop stop-color="#FEA31A" offset="0%"></stop>
            <stop stop-color="#FFCB42" offset="100%"></stop>
        </linearGradient>
        <linearGradient x1="46.3226754%" y1="38.6617821%" x2="94.0006323%" y2="81.4478669%" id="linearGradient-2">
            <stop stop-color="#FFFFFF" offset="0%"></stop>
            <stop stop-color="#FFE7C8" offset="100%"></stop>
        </linearGradient>
    </defs>
    <g id="页面-1" stroke="none" stroke-width="1" fill="none" fill-rule="evenodd">
        <g id="3新建（全局）" transform="translate(-347.000000, -1409.000000)">
            <g id="3-白板" transform="translate(347.000000, 1409.000000)">
                <g id="excel" transform="translate(9.722309, 0.000000)">
                    <path d="M35.2732038,55.9013688 L6.72674486,56 C3.01797387,56 0,53.4396965 0,50.293839 L0,5.80479219 C0,2.65893469 3.01797387,0.0986311866 6.72674486,0.0986311866 L30.7738276,0 C31.1127024,0 31.438427,0.116137192 31.6879215,0.322402408 L41.3008523,9.66500158 C41.5740274,9.89495785 41.7316245,10.2173603 41.7316245,10.5564067 L42,50.1952542 C42,53.3411117 38.9819748,55.9013688 35.2732038,55.9013688 Z" id="路径" fill="#FFFFFF" fill-rule="nonzero"></path>
                    <path d="M35.2732038,55.9013688 L6.72674486,56 C3.01797387,56 0,53.4396965 0,50.293839 L0,5.80479219 C0,2.65893469 3.01797387,0.0986311866 6.72674486,0.0986311866 L30.7738276,0 C31.1127024,0 31.438427,0.116137192 31.6879215,0.322402408 L41.3008523,9.66500158 C41.5740274,9.89495785 41.7316245,10.2173603 41.7316245,10.5564067 L42,50.1952542 C42,53.3411117 38.9819748,55.9013688 35.2732038,55.9013688 Z M7.45791491,1.97326448 C3.69237656,1.97326448 1.8316245,4.15764218 1.8316245,6.80548826 L1.8316245,49.9385052 C1.8316245,52.5000401 5.12891657,54.2591382 7.45791491,54.2591382 L34.5420851,54.1558853 C37.093685,54.1558853 40.1683755,52.7010336 40.1683755,49.8352522 L39.9,11.2047891 L30.3086909,1.87001154 L7.45791491,1.97326448 Z" id="形状" fill="#CCD3E0" fill-rule="nonzero"></path>
                    <path d="M28.3317641,13.3590538 C27.7614781,13.3590538 27.3,12.8820971 27.3,12.2926829 L27.4504491,1.06633015 C27.4504491,0.476915957 27.9119272,0 28.4822132,0 C29.0524992,0 29.5139379,0.476915957 29.5139379,1.06633015 L29.3634888,11.2263935 L40.1803166,11.2263935 C40.7506027,11.2263935 41.2120413,11.7033095 41.2120413,12.2927237 C41.2120413,12.8821379 40.7506027,13.3590538 40.1803166,13.3590538 L28.3317641,13.3590538 Z" id="路径" fill="#CCD3E0" fill-rule="nonzero"></path>
                    <rect id="矩形" fill="#CCD3E0" x="26.6" y="24.5853659" width="9.8" height="1.36585366"></rect>
                    <rect id="矩形备份" fill="#CCD3E0" x="26.6" y="30.0487805" width="9.8" height="1.36585366"></rect>
                    <rect id="矩形备份-2" fill="#CCD3E0" x="26.6" y="35.5121951" width="9.8" height="1.36585366"></rect>
                </g>
                <path d="M29.7959928,43.4 L6.59599281,43.4 C5.19599281,43.4 4.19599281,42.4 4.19599281,41 L4.19599281,17.8 C4.19599281,16.4 5.19599281,15.4 6.59599281,15.4 L29.9959928,15.4 C31.1959928,15.4 32.1959928,16.4 32.1959928,17.8 L32.1959928,41.2 C32.1959928,42.4 31.1959928,43.4 29.7959928,43.4 L29.7959928,43.4 Z" id="路径" fill="url(#linearGradient-1)" fill-rule="nonzero"></path>
                <g id="粗细2" transform="translate(10.000000, 23.000000)" fill="url(#linearGradient-2)" fill-rule="nonzero">
                    <path d="M0.418381497,4.49071334 L0.956302798,4.10527397 L1.4788966,3.7374832 L1.98762381,3.38592806 L2.48102352,3.05061048 L2.96055464,2.73294149 L3.42548872,2.43291918 L3.8765542,2.14913442 L4.31375309,1.88299827 L4.73708339,1.63380423 L4.94363938,1.5159134 L5.34653301,1.29283805 L5.73628851,1.0874113 L6.11290786,0.898927237 C8.27043268,-0.145853196 9.76011371,-0.292688069 10.7170046,0.525488451 C11.6483316,1.32178133 11.3417817,2.27267268 10.412644,3.41134219 L10.25353,3.60194416 L10.0287267,3.85890374 L9.91194574,3.98597172 L9.72509617,4.18363294 L9.43606308,4.47588971 L9.08134129,4.82179684 L8.22956953,5.62655981 L7.26977684,6.52732938 L6.91140479,6.86970601 L6.587338,7.18455292 L6.29611556,7.47539672 L6.1625474,7.61234776 L5.91730745,7.87001383 L5.69980268,8.10932481 L5.69980316,8.10932427 C5.66668339,8.14673069 5.63384702,8.18437087 5.60129645,8.22224191 L5.42247565,8.43684524 L5.26774097,8.63803694 L5.13490267,8.82793301 C5.07870184,8.91264493 5.0334492,8.98747379 4.9984149,9.05171291 L4.96046118,9.12512996 L5.06629396,9.15477915 C5.59837764,9.28255303 6.28957391,9.18089861 7.17200864,8.84628674 L7.37929508,8.76439844 C7.663219,8.64933143 7.95298054,8.51732192 8.27923868,8.35636894 L8.69089175,8.14811818 L9.53171472,7.70055644 L10.3586691,7.25722974 L10.7323687,7.06451006 C11.0272414,6.91626415 11.2819692,6.7983739 11.5235589,6.69883681 C12.5629089,6.27315871 13.3854845,6.18703517 14.1007737,6.69036562 C15.5116339,7.68220219 15.1992443,9.1759554 13.6044542,11.137743 L13.3548355,11.4349413 L13.0869696,11.7399051 L12.9461027,11.8952103 L12.6505015,12.2100572 L12.3366531,12.5319631 L12.1738896,12.6957395 L12.1738896,12.6957395 C11.7728022,13.0939979 11.1138535,13.1023734 10.7020847,12.7144468 C10.2903159,12.3265193 10.2816562,11.6891912 10.6827428,11.2909328 C11.7709951,10.2108551 12.460002,9.34115159 12.742475,8.7248694 L12.8366295,8.51309008 L12.8702041,8.42555434 L12.8848018,8.37755085 L12.8767731,8.37966866 C12.7891874,8.39449325 12.6797052,8.42484834 12.5483276,8.47143983 L12.3366624,8.55262222 L12.3366625,8.55262219 C12.256182,8.58572581 12.1763668,8.62032289 12.0972622,8.65639433 L11.8272068,8.78346231 L11.5206569,8.93876746 L10.7462531,9.35103201 L10.1550488,9.66870099 L9.65800079,9.93130859 C9.1062109,10.2165063 8.64784489,10.4325207 8.18583063,10.6202988 C6.5954212,11.2669328 5.2429512,11.4349449 4.01966527,10.9330263 C2.5642835,10.3365121 2.51538121,9.04818569 3.38320892,7.74008345 C3.58538619,7.43511961 3.82770633,7.12592265 4.13279736,6.78213304 L4.3736586,6.51740793 L4.64152457,6.23715173 L4.93639727,5.9378359 L5.43636506,5.4486244 L5.81152351,5.09071669 L7.37054949,3.62519969 L7.82891549,3.184697 L8.11356986,2.90232328 L8.39968314,2.60018344 L8.6003995,2.37499057 L8.6982035,2.26062946 L8.86899573,2.0495547 L8.92081724,1.98037327 L8.85366823,1.99096226 C8.74856531,2.01002245 8.62886494,2.04037756 8.49456773,2.08202752 L8.28144168,2.15262076 L8.04787896,2.2415683 L7.79315113,2.34745816 L7.51798664,2.47099642 L7.22165503,2.61218308 L6.90561721,2.77101796 L6.56987118,2.94750124 L6.21441894,3.14304493 L5.83926049,3.35694178 L5.44512428,3.58848722 L5.03201232,3.83909423 L4.60065304,4.10734791 L4.15104646,4.3960742 L3.68319258,4.70244908 L3.19782184,5.02859009 L2.69493425,5.37379073 L2.17525826,5.73805294 L1.90885119,5.92794881 L1.66361124,6.10443209 L1.6636113,6.10443205 C1.20286634,6.43699704 0.550615487,6.34533938 0.206768638,5.89971178 C-0.137078211,5.45408418 -0.0423111715,4.82323413 0.418433787,4.49066914 L0.418381497,4.49071334 Z" id="路径"></path>
                </g>
            </g>
        </g>
    </g>
</svg>