<?xml version="1.0" encoding="UTF-8"?>
<svg width="56px" height="56px" viewBox="0 0 56 56" version="1.1" xmlns="http://www.w3.org/2000/svg" xmlns:xlink="http://www.w3.org/1999/xlink">
    <title>3-文档</title>
    <defs>
        <linearGradient x1="12.3202501%" y1="16.9064115%" x2="94.2615964%" y2="96.7831454%" id="linearGradient-1">
            <stop stop-color="#428CFC" offset="0%"></stop>
            <stop stop-color="#5AB0FE" offset="100%"></stop>
        </linearGradient>
    </defs>
    <g id="页面-1" stroke="none" stroke-width="1" fill="none" fill-rule="evenodd">
        <g id="3新建（全局）" transform="translate(-347.000000, -1252.000000)">
            <g id="3-文档" transform="translate(347.000000, 1252.000000)">
                <g id="excel" transform="translate(10.000000, 0.000000)">
                    <path d="M7.45791491,1.97326448 C3.69237656,1.97326448 1.8316245,4.15764218 1.8316245,6.80548826 L1.8316245,49.9385052 C1.8316245,52.5000401 5.12891657,54.2591382 7.45791491,54.2591382 L34.5420851,54.1558853 C37.093685,54.1558853 40.1683755,52.7010336 40.1683755,49.8352522 L39.9,11.2047891 L30.3086909,1.87001154 L7.45791491,1.97326448 Z" id="路径" fill="#FFFFFF" fill-rule="nonzero"></path>
                    <path d="M35.2732038,55.9013688 L6.72674486,56 C3.01797387,56 0,53.4396965 0,50.293839 L0,5.80479219 C0,2.65893469 3.01797387,0.0986311866 6.72674486,0.0986311866 L30.7738276,0 C31.1127024,0 31.438427,0.116137192 31.6879215,0.322402408 L41.3008523,9.66500158 C41.5740274,9.89495785 41.7316245,10.2173603 41.7316245,10.5564067 L42,50.1952542 C42,53.3411117 38.9819748,55.9013688 35.2732038,55.9013688 Z M7.45791491,1.97326448 C3.69237656,1.97326448 1.8316245,4.15764218 1.8316245,6.80548826 L1.8316245,49.9385052 C1.8316245,52.5000401 5.12891657,54.2591382 7.45791491,54.2591382 L34.5420851,54.1558853 C37.093685,54.1558853 40.1683755,52.7010336 40.1683755,49.8352522 L39.9,11.2047891 L30.3086909,1.87001154 L7.45791491,1.97326448 Z" id="形状" fill="#CCD3E0" fill-rule="nonzero"></path>
                    <path d="M28.3317641,13.3590538 C27.7614781,13.3590538 27.3,12.8820971 27.3,12.2926829 L27.4504491,1.06633015 C27.4504491,0.476915957 27.9119272,0 28.4822132,0 C29.0524992,0 29.5139379,0.476915957 29.5139379,1.06633015 L29.3634888,11.2263935 L40.1803166,11.2263935 C40.7506027,11.2263935 41.2120413,11.7033095 41.2120413,12.2927237 C41.2120413,12.8821379 40.7506027,13.3590538 40.1803166,13.3590538 L28.3317641,13.3590538 Z" id="路径" fill="#CCD3E0" fill-rule="nonzero"></path>
                    <rect id="矩形" fill="#CCD3E0" x="26.6" y="24.5853659" width="9.8" height="1.36585366"></rect>
                    <rect id="矩形备份" fill="#CCD3E0" x="26.6" y="30.0487805" width="9.8" height="1.36585366"></rect>
                    <rect id="矩形备份-2" fill="#CCD3E0" x="26.6" y="35.5121951" width="9.8" height="1.36585366"></rect>
                </g>
                <g id="excel" transform="translate(4.000000, 15.000000)">
                    <path d="M25.6,28 L2.4,28 C1,28 0,27 0,25.6 L0,2.4 C0,1 1,0 2.4,0 L25.8,0 C27,0 28,1 28,2.4 L28,25.8 C28,27 27,28 25.6,28 L25.6,28 Z" id="路径" fill="url(#linearGradient-1)" fill-rule="nonzero"></path>
                    <path d="M21,12.5263158 C21.61042,12.5263158 22.1052632,13.021159 22.1052632,13.6315789 C22.1052632,14.2419989 21.61042,14.7368421 21,14.7368421 L7,14.7368421 C6.38958001,14.7368421 5.89473684,14.2419989 5.89473684,13.6315789 C5.89473684,13.021159 6.38958001,12.5263158 7,12.5263158 L21,12.5263158 Z M21,6.63157895 C21.61042,6.63157895 22.1052632,7.12642212 22.1052632,7.73684211 C22.1052632,8.34726209 21.61042,8.84210526 21,8.84210526 L7,8.84210526 C6.38958001,8.84210526 5.89473684,8.34726209 5.89473684,7.73684211 C5.89473684,7.12642212 6.38958001,6.63157895 7,6.63157895 L21,6.63157895 Z" id="形状结合" fill="#FFFFFF"></path>
                    <rect id="矩形备份-4" fill="#CDE0FF" x="5.89473684" y="18.4210526" width="9.57894737" height="2.21052632" rx="1.10526316"></rect>
                </g>
            </g>
        </g>
    </g>
</svg>