<?xml version="1.0" encoding="UTF-8"?>
<svg width="56px" height="56px" viewBox="0 0 56 56" version="1.1" xmlns="http://www.w3.org/2000/svg" xmlns:xlink="http://www.w3.org/1999/xlink">
    <title>3-表格</title>
    <g id="页面-1" stroke="none" stroke-width="1" fill="none" fill-rule="evenodd">
        <g id="3新建（全局）" transform="translate(-597.000000, -1252.000000)">
            <g id="3-表格" transform="translate(597.000000, 1252.000000)">
                <g id="excel" transform="translate(9.722309, 0.000000)">
                    <path d="M7.45791491,1.97326448 C3.69237656,1.97326448 1.8316245,4.15764218 1.8316245,6.80548826 L1.8316245,49.9385052 C1.8316245,52.5000401 5.12891657,54.2591382 7.45791491,54.2591382 L34.5420851,54.1558853 C37.093685,54.1558853 40.1683755,52.7010336 40.1683755,49.8352522 L39.9,11.2047891 L30.3086909,1.87001154 L7.45791491,1.97326448 Z" id="路径" fill="#FFFFFF" fill-rule="nonzero"></path>
                    <path d="M35.2732038,55.9013688 L6.72674486,56 C3.01797387,56 0,53.4396965 0,50.293839 L0,5.80479219 C0,2.65893469 3.01797387,0.0986311866 6.72674486,0.0986311866 L30.7738276,0 C31.1127024,0 31.438427,0.116137192 31.6879215,0.322402408 L41.3008523,9.66500158 C41.5740274,9.89495785 41.7316245,10.2173603 41.7316245,10.5564067 L42,50.1952542 C42,53.3411117 38.9819748,55.9013688 35.2732038,55.9013688 Z M7.45791491,1.97326448 C3.69237656,1.97326448 1.8316245,4.15764218 1.8316245,6.80548826 L1.8316245,49.9385052 C1.8316245,52.5000401 5.12891657,54.2591382 7.45791491,54.2591382 L34.5420851,54.1558853 C37.093685,54.1558853 40.1683755,52.7010336 40.1683755,49.8352522 L39.9,11.2047891 L30.3086909,1.87001154 L7.45791491,1.97326448 Z" id="形状" fill="#CCD3E0" fill-rule="nonzero"></path>
                    <path d="M28.3317641,13.3590538 C27.7614781,13.3590538 27.3,12.8820971 27.3,12.2926829 L27.4504491,1.06633015 C27.4504491,0.476915957 27.9119272,0 28.4822132,0 C29.0524992,0 29.5139379,0.476915957 29.5139379,1.06633015 L29.3634888,11.2263935 L40.1803166,11.2263935 C40.7506027,11.2263935 41.2120413,11.7033095 41.2120413,12.2927237 C41.2120413,12.8821379 40.7506027,13.3590538 40.1803166,13.3590538 L28.3317641,13.3590538 Z" id="路径" fill="#CCD3E0" fill-rule="nonzero"></path>
                    <rect id="矩形" fill="#CCD3E0" x="26.6" y="24.5853659" width="9.8" height="1.36585366"></rect>
                    <rect id="矩形备份" fill="#CCD3E0" x="26.6" y="30.0487805" width="9.8" height="1.36585366"></rect>
                    <rect id="矩形备份-2" fill="#CCD3E0" x="26.6" y="35.5121951" width="9.8" height="1.36585366"></rect>
                </g>
                <g id="excel" transform="translate(4.195993, 15.400000)">
                    <path d="M25.6,28 L2.4,28 C1,28 0,27 0,25.6 L0,2.4 C0,1 1,0 2.4,0 L25.8,0 C27,0 28,1 28,2.4 L28,25.8 C28,27 27,28 25.6,28 L25.6,28 Z" id="路径" fill="#107C41" fill-rule="nonzero"></path>
                    <rect id="矩形" fill="#FFFFFF" x="6" y="6" width="6.4" height="6.4" rx="1"></rect>
                    <rect id="矩形备份-18" fill="#FFFFFF" x="6" y="15.6" width="6.4" height="6.4" rx="1"></rect>
                    <rect id="矩形备份-17" fill="#FFFFFF" x="15.6" y="6" width="6.4" height="6.4" rx="1"></rect>
                    <rect id="矩形备份-19" fill="#FFFFFF" opacity="0.802007631" x="15.6" y="15.6" width="6.4" height="6.4" rx="1"></rect>
                </g>
            </g>
        </g>
    </g>
</svg>