<?xml version="1.0" encoding="UTF-8"?>
<svg width="56px" height="56px" viewBox="0 0 56 56" version="1.1" xmlns="http://www.w3.org/2000/svg" xmlns:xlink="http://www.w3.org/1999/xlink">
    <title>3-脑图</title>
    <defs>
        <linearGradient x1="12.3202501%" y1="16.9064115%" x2="94.2615964%" y2="96.7831454%" id="linearGradient-1">
            <stop stop-color="#9563FF" offset="0%"></stop>
            <stop stop-color="#B885FF" offset="100%"></stop>
        </linearGradient>
    </defs>
    <g id="页面-1" stroke="none" stroke-width="1" fill="none" fill-rule="evenodd">
        <g id="3新建（全局）" transform="translate(-98.000000, -1409.000000)">
            <g id="3-脑图" transform="translate(98.000000, 1409.000000)">
                <g id="excel" transform="translate(9.722309, 0.000000)">
                    <path d="M35.2732038,55.9013688 L6.72674486,56 C3.01797387,56 0,53.4396965 0,50.293839 L0,5.80479219 C0,2.65893469 3.01797387,0.0986311866 6.72674486,0.0986311866 L30.7738276,0 C31.1127024,0 31.438427,0.116137192 31.6879215,0.322402408 L41.3008523,9.66500158 C41.5740274,9.89495785 41.7316245,10.2173603 41.7316245,10.5564067 L42,50.1952542 C42,53.3411117 38.9819748,55.9013688 35.2732038,55.9013688 Z" id="路径" fill="#FFFFFF" fill-rule="nonzero"></path>
                    <path d="M35.2732038,55.9013688 L6.72674486,56 C3.01797387,56 0,53.4396965 0,50.293839 L0,5.80479219 C0,2.65893469 3.01797387,0.0986311866 6.72674486,0.0986311866 L30.7738276,0 C31.1127024,0 31.438427,0.116137192 31.6879215,0.322402408 L41.3008523,9.66500158 C41.5740274,9.89495785 41.7316245,10.2173603 41.7316245,10.5564067 L42,50.1952542 C42,53.3411117 38.9819748,55.9013688 35.2732038,55.9013688 Z M7.45791491,1.97326448 C3.69237656,1.97326448 1.8316245,4.15764218 1.8316245,6.80548826 L1.8316245,49.9385052 C1.8316245,52.5000401 5.12891657,54.2591382 7.45791491,54.2591382 L34.5420851,54.1558853 C37.093685,54.1558853 40.1683755,52.7010336 40.1683755,49.8352522 L39.9,11.2047891 L30.3086909,1.87001154 L7.45791491,1.97326448 Z" id="形状" fill="#CCD3E0" fill-rule="nonzero"></path>
                    <path d="M28.3317641,13.3590538 C27.7614781,13.3590538 27.3,12.8820971 27.3,12.2926829 L27.4504491,1.06633015 C27.4504491,0.476915957 27.9119272,0 28.4822132,0 C29.0524992,0 29.5139379,0.476915957 29.5139379,1.06633015 L29.3634888,11.2263935 L40.1803166,11.2263935 C40.7506027,11.2263935 41.2120413,11.7033095 41.2120413,12.2927237 C41.2120413,12.8821379 40.7506027,13.3590538 40.1803166,13.3590538 L28.3317641,13.3590538 Z" id="路径" fill="#CCD3E0" fill-rule="nonzero"></path>
                    <rect id="矩形" fill="#CCD3E0" x="26.6" y="24.5853659" width="9.8" height="1.36585366"></rect>
                    <rect id="矩形备份" fill="#CCD3E0" x="26.6" y="30.0487805" width="9.8" height="1.36585366"></rect>
                    <rect id="矩形备份-2" fill="#CCD3E0" x="26.6" y="35.5121951" width="9.8" height="1.36585366"></rect>
                </g>
                <path d="M29.7959928,43.4 L6.59599281,43.4 C5.19599281,43.4 4.19599281,42.4 4.19599281,41 L4.19599281,17.8 C4.19599281,16.4 5.19599281,15.4 6.59599281,15.4 L29.9959928,15.4 C31.1959928,15.4 32.1959928,16.4 32.1959928,17.8 L32.1959928,41.2 C32.1959928,42.4 31.1959928,43.4 29.7959928,43.4 L29.7959928,43.4 Z" id="路径" fill="url(#linearGradient-1)" fill-rule="nonzero"></path>
                <g id="编组-3" transform="translate(8.842105, 19.894737)">
                    <path d="M17.4210526,0 C17.9733374,-5.91980459e-16 18.4210526,0.44771525 18.4210526,1 L18.4210526,4.15789474 C18.4210526,4.71017949 17.9733374,5.15789474 17.4210526,5.15789474 L12.0526316,5.15789474 C11.5003468,5.15789474 11.0526316,4.71017949 11.0526316,4.15789474 L11.052,3.315 L9.57894737,3.31578947 C7.66861467,3.31578947 6.0978701,4.76973912 5.91294477,6.63140732 L9.31578947,6.63157895 C9.86807422,6.63157895 10.3157895,7.0792942 10.3157895,7.63157895 L10.3157895,11.5263158 C10.3157895,12.0786005 9.86807422,12.5263158 9.31578947,12.5263158 L5.91299986,12.5270416 C6.09299077,14.3362649 7.58183676,15.7602861 9.41913396,15.8387014 L9.57894737,15.8421053 L14.7368421,15.8421053 L14.7368421,17.3157895 L9.57894737,17.3157895 C6.85427454,17.3157895 4.62304265,15.2031177 4.4340241,12.5265465 L1,12.5263158 C0.44771525,12.5263158 6.76353751e-17,12.0786005 0,11.5263158 L0,7.63157895 C-6.76353751e-17,7.0792942 0.44771525,6.63157895 1,6.63157895 L4.43404121,6.63110596 C4.61905755,4.01294752 6.75812753,1.93440269 9.4016265,1.84509612 L9.57894737,1.84210526 L11.052,1.842 L11.0526316,1 C11.0526316,0.44771525 11.5003468,-9.5692398e-18 12.0526316,0 L17.4210526,0 Z" id="形状结合" fill="#FFFFFF"></path>
                    <rect id="矩形备份-6" fill="#DCD2FF" x="11.0526316" y="14" width="7.36842105" height="5.15789474" rx="1"></rect>
                </g>
            </g>
        </g>
    </g>
</svg>