<?xml version="1.0" encoding="UTF-8"?>
<svg width="56px" height="56px" viewBox="0 0 56 56" version="1.1" xmlns="http://www.w3.org/2000/svg" xmlns:xlink="http://www.w3.org/1999/xlink">
    <title>3-文件</title>
    <defs>
        <linearGradient x1="50%" y1="0%" x2="50%" y2="100%" id="linearGradient-1">
            <stop stop-color="#42C2FF" offset="0%"></stop>
            <stop stop-color="#1F8FFE" offset="100%"></stop>
        </linearGradient>
    </defs>
    <g id="页面-1" stroke="none" stroke-width="1" fill="none" fill-rule="evenodd">
        <g id="3新建（全局）" transform="translate(-597.000000, -1096.000000)" fill-rule="nonzero">
            <g id="3-文件" transform="translate(597.000000, 1096.000000)">
                <rect id="矩形" fill="#000000" opacity="0" x="0" y="0" width="56" height="56"></rect>
                <path d="M6.59868045,0 L36.5579522,0 L50.8181818,14.09375 L50.8181818,54.4375 C50.8181818,55.3004375 50.1024206,56 49.2195014,56 L6.59868045,56 C5.71576121,56 5,55.3004375 5,54.4375 L5,1.5625 C5,0.6995625 5.71576121,0 6.59868045,0 Z" id="路径" fill="#D1EAFF"></path>
                <path d="M19.5888339,32.3617532 L19.7784085,32.4606752 L27.4498353,37.282339 C27.77449,37.4863917 28.1872379,37.4868289 28.5123241,37.2834644 L36.2248386,32.4587385 C37.0935844,31.9423502 38.2194087,32.2230622 38.7394374,33.0857263 C39.2223213,33.8867716 39.0130641,34.9079297 38.28514,35.4631719 L38.1080294,35.5827217 L29.8639177,40.4830768 C28.7914297,41.1205709 27.4729167,41.1683399 26.3637118,40.6268514 L26.0910347,40.4792033 L17.8887163,35.580785 C17.0210477,35.0626139 16.7406853,33.9440929 17.2625094,33.0824984 C17.7470603,32.2824464 18.7529093,31.9852511 19.5888339,32.3617532 Z M27.5923329,19.1161311 C27.8450653,18.9612896 28.157859,18.9612896 28.4105904,19.1161312 L28.4105904,19.1161312 L38.6210512,25.6296012 C38.7244351,25.7021832 38.8132687,25.7952526 38.8825473,25.9035661 L38.8825473,25.9035661 L38.8858527,25.9091912 C39.1102843,26.3016666 38.9902685,26.8030888 38.6210514,27.034804 L38.6210514,27.034804 L28.4105904,33.5510027 C28.1577532,33.7052213 27.8451702,33.7052213 27.592333,33.5510027 L27.592333,33.5510027 L17.3818719,27.034814 C17.271905,26.9685907 17.1801216,26.8742452 17.1169123,26.759942 C17.1142828,26.7554943 17.1116942,26.7510203 17.1091468,26.7465205 C16.8895915,26.3586883 17.0116943,25.8578193 17.3818719,25.6277939 L17.3818719,25.6277939 Z" id="路径-2" fill="url(#linearGradient-1)"></path>
            </g>
        </g>
    </g>
</svg>