<?xml version="1.0" encoding="UTF-8"?>
<svg width="38px" height="38px" viewBox="0 0 38 38" version="1.1" xmlns="http://www.w3.org/2000/svg" xmlns:xlink="http://www.w3.org/1999/xlink">
    <title>主页备份</title>
    <g id="页面-1" stroke="none" stroke-width="1" fill="none" fill-rule="evenodd">
        <g id="主页备份" fill="#171A1D" fill-rule="nonzero">
            <path d="M18.8513921,3.00367616 C20.0583513,2.95605056 21.0746535,3.37135742 21.9164503,4.23901279 C26.3831411,8.84291904 30.8574323,13.4391661 35.2993136,18.0674852 C35.6654935,18.4490749 36.0057488,19.0522708 35.9999263,19.5481544 C35.9943154,20.026683 35.6312383,20.6974464 35.2293154,20.9192263 C34.8329583,21.1378627 34.1271208,21.0382983 33.6742385,20.8240118 C33.1876571,20.5937491 32.8267048,20.0783157 32.4294145,19.6689489 C28.5810531,15.7040345 24.7423064,11.7294326 20.8882759,7.77012375 C19.2800753,6.11818533 18.823073,6.12658514 17.1867802,7.80306773 C14.6583494,10.3936698 12.1607646,13.0155144 9.61191249,15.585058 C8.98652635,16.2154692 8.70819351,16.8420086 8.722686,17.7601344 C8.78108104,21.4666156 8.74040852,25.1746749 8.75107603,28.8821451 C8.7582154,31.3701259 9.13038841,31.7273419 11.6490674,31.7061113 C12.2039898,31.7014174 12.7584429,31.6444438 13.5361101,31.5981931 L13.5361101,31.5981931 L13.5369007,31.1420078 C13.5384129,30.5718964 13.5418843,29.6906046 13.5454588,28.7735126 L13.5478367,28.1598362 C13.5509733,27.3425881 13.5538654,26.5454054 13.5552097,25.9616966 L13.5559073,25.5669633 L13.5559073,25.5669633 L13.5560002,25.4052827 C13.5863477,24.4258374 14.1338317,23.8347391 15.0997305,23.8218629 C17.6856001,23.7872395 20.2728029,23.7777653 22.8583361,23.8235855 C22.8830187,23.8240222 22.9074584,23.8248086 22.931653,23.8259393 C22.9803473,23.8216047 23.0309837,23.8189448 23.0822413,23.8189448 C23.8829686,23.8189448 24.5320863,24.4680625 24.5320863,25.2687898 L24.5340175,25.334873 C24.5352946,25.3762077 24.5350353,25.4170878 24.5332681,25.4574703 L24.5326836,31.7087563 C25.3211339,31.6989576 26.1141559,31.7256017 26.9026852,31.7058922 C28.849824,31.6572735 29.2073765,31.2990694 29.2437565,29.3259168 C29.2695965,27.9225544 29.2468165,26.5183672 29.251789,25.1145209 L29.251789,25.1145209 L29.2499136,24.4428672 C29.2525432,24.2191011 29.2630938,23.9963419 29.2955638,23.7772545 C29.4504327,22.7323066 30.0181512,22.1775553 30.8599896,22.1791056 C31.6918437,22.1806585 32.3556507,22.7603004 32.4240333,23.7736816 C32.5097557,25.043598 32.4446883,26.3240647 32.4446627,27.5999548 C32.4526528,27.5999978 32.4606853,27.5999978 32.4686753,27.6000839 C32.4686753,28.6210485 32.5014853,29.6433008 32.4623003,30.6627126 C32.3588439,33.3525301 30.8136932,34.9093368 28.1729099,34.9701003 C26.6519511,35.005107 24.5764057,34.9701003 23.0291659,34.9701003 L23.367869,34.9718721 C23.2755239,34.9903221 23.1800128,35 23.0822413,35 C22.281514,35 21.6323963,34.3508823 21.6323963,33.550155 L21.6338691,26.9755829 C21.1174761,26.9803213 20.5102502,26.976169 19.8121915,26.963126 L19.8121915,26.963126 L16.6657441,26.9635136 C16.6672716,27.4681441 16.6683779,27.9430653 16.6690631,28.3882773 L16.6693031,30.1911938 C16.6674232,31.3484675 16.6610943,32.1919373 16.6503166,32.7216032 C16.614192,34.4962744 16.1617375,34.9412103 14.3644954,34.97325 C12.9139672,34.9990453 11.4622926,34.9996052 10.0118101,34.9728624 C7.20233601,34.9211421 5.66953006,33.4051692 5.63026003,30.5859373 C5.59196751,27.8377756 5.62031501,25.0887134 5.61942253,22.3400635 L5.61942253,22.3400635 L5.61933752,20.0104701 C5.02467722,20.4434784 4.7416694,20.664354 4.44425411,20.8632238 C3.69889055,21.3616471 2.98633318,21.2744423 2.41024602,20.6096197 C1.83084469,19.9410896 1.89922724,19.2003909 2.40204352,18.5038291 C2.58691937,18.2476811 2.81948025,18.0253431 3.04022527,17.7974914 C7.32708223,13.372944 11.6199198,8.95437229 15.8995087,4.52250231 C16.7224375,3.67030832 17.6323636,3.05177857 18.8513921,3.00367616 Z" id="形状"></path>
        </g>
    </g>
</svg>