<?xml version="1.0" encoding="UTF-8"?>
<svg width="263px" height="186px" viewBox="0 0 263 186" version="1.1" xmlns="http://www.w3.org/2000/svg" xmlns:xlink="http://www.w3.org/1999/xlink">
    <title>编组 3</title>
    <defs>
        <linearGradient x1="49.9971557%" y1="-29.9044151%" x2="49.9971557%" y2="55.080792%" id="linearGradient-1">
            <stop stop-color="#3389E0" offset="6.050502e-06%"></stop>
            <stop stop-color="#3389E0" stop-opacity="0.59" offset="37.1558129%"></stop>
            <stop stop-color="#E0E9FB" stop-opacity="0.2214" offset="77.86%"></stop>
            <stop stop-color="#EAF0FC" stop-opacity="0" offset="100%"></stop>
        </linearGradient>
        <linearGradient x1="50%" y1="0%" x2="50%" y2="100%" id="linearGradient-2">
            <stop stop-color="#3389E0" offset="0%"></stop>
            <stop stop-color="#3389E0" stop-opacity="0" offset="100%"></stop>
        </linearGradient>
        <linearGradient x1="49.9999962%" y1="-2.50191104e-14%" x2="49.9999962%" y2="99.8579545%" id="linearGradient-3">
            <stop stop-color="#3389E0" offset="0%"></stop>
            <stop stop-color="#FFFFFF" stop-opacity="0" offset="100%"></stop>
        </linearGradient>
        <linearGradient x1="49.9999962%" y1="-2.50191104e-14%" x2="49.9999962%" y2="100%" id="linearGradient-4">
            <stop stop-color="#3389E0" offset="0%"></stop>
            <stop stop-color="#FFFFFF" stop-opacity="0" offset="99.8579545%"></stop>
        </linearGradient>
        <linearGradient x1="1.02897296%" y1="72.0821743%" x2="50.5721822%" y2="48.44068%" id="linearGradient-5">
            <stop stop-color="#3389E0" stop-opacity="0" offset="0%"></stop>
            <stop stop-color="#3069A3" offset="60.6861888%"></stop>
            <stop stop-color="#3389E0" stop-opacity="0" offset="100%"></stop>
        </linearGradient>
        <linearGradient x1="-0.00699223474%" y1="49.9432738%" x2="100.110833%" y2="49.9432738%" id="linearGradient-6">
            <stop stop-color="#3389E0" offset="0%"></stop>
            <stop stop-color="#BCDDFF" offset="100%"></stop>
        </linearGradient>
        <linearGradient x1="-0.00699223474%" y1="49.9432738%" x2="100.110833%" y2="49.9432738%" id="linearGradient-7">
            <stop stop-color="#3389E0" offset="0%"></stop>
            <stop stop-color="#BCDDFF" offset="100%"></stop>
        </linearGradient>
    </defs>
    <g id="页面-1" stroke="none" stroke-width="1" fill="none" fill-rule="evenodd">
        <g id="上班打卡成功" transform="translate(-56.000000, -230.000000)">
            <g id="编组-3" transform="translate(56.000000, 230.000000)">
                <rect id="矩形" fill="#D8D8D8" opacity="0" x="0" y="0" width="263" height="186"></rect>
                <g id="编组-2" transform="translate(23.000000, 13.000000)">
                    <ellipse id="椭圆形" fill="url(#linearGradient-1)" fill-rule="nonzero" opacity="0.5" cx="109" cy="145" rx="109" ry="28"></ellipse>
                    <path d="M107.172489,0 L121.944614,7.86329533 L121.944614,17.47189 L127.391159,17.47189 L127.032277,76.4345599 L136.048884,76.4345599 L136.048884,49.162365 L147.211857,49.162365 L147.211857,67.4895223 L153.737642,67.6294463 L153.737642,43.5423253 L161.809589,43.6808068 L161.809589,24.4073594 L188,36.476741 L188.001506,112.034718 C168.207627,101.524856 140.57383,95 110,95 C78.3814746,95 49.9073338,101.978378 29.9971036,113.125929 L30,52.9100199 L44.5975886,52.9100199 L44.5975886,38.6983588 L63.4892049,38.6983588 L63.4892049,52.8696294 L72.9345082,52.8696294 L72.9345082,88.7983588 L87.5320968,88.7983588 L87.5320968,17.47189 L92.5604756,17.47189 L92.5604756,7.86329533 L107.172489,0 Z" id="形状结合" fill="url(#linearGradient-2)" opacity="0.200000003"></path>
                    <path d="M182.518719,15.8028169 L182.518719,15.8028169 L182.518719,15.8028169 C182.690115,15.8177817 182.877093,15.8327465 183.06407,15.8327465 C183.251048,15.8327465 183.422444,15.8177817 183.609422,15.8028169 L195.934368,15.8028169 C196.978327,16.5510563 198.28717,17 199.705085,17 C203.179753,17 206,14.2913732 206,10.9542254 C206,7.61707746 203.179753,4.9084507 199.705085,4.9084507 C199.393455,4.9084507 199.097407,4.92341549 198.801359,4.96830986 C198.131356,3.33714789 196.479719,2.16989437 194.547617,2.16989437 C193.893195,2.16989437 193.285517,2.30457746 192.724584,2.54401408 C191.820859,1.01760563 190.106897,0 188.143631,0 C185.229895,0 182.861511,2.27464789 182.861511,5.07306338 C182.861511,5.43221831 182.892674,5.76144366 182.970582,6.1056338 C180.212661,6.15052817 178,8.32042254 178,10.9691901 C177.98451,13.4683099 179.963357,15.5484155 182.518719,15.8028169 Z" id="路径" fill="url(#linearGradient-3)" fill-rule="nonzero" opacity="0.100000001"></path>
                    <path d="M14.9096341,29.5867657 L14.9096341,29.5867657 L14.9402539,29.5867657 C15.2158327,29.6178258 15.4914115,29.6333558 15.7669903,29.6333558 C16.0425691,29.6333558 16.3334578,29.6178258 16.6090366,29.5867657 L38.6400299,29.5867657 C39.8188947,30.4719784 41.2886482,31 42.8655713,31 C46.800224,31 50,27.7542201 50,23.762998 C50,19.7717758 46.800224,16.5259959 42.8655713,16.5259959 C42.6359223,16.5259959 42.3909634,16.541526 42.1613144,16.557056 C41.0130695,14.1498987 38.5941001,12.5037137 35.7923824,12.5037137 C35.4555639,12.5037137 35.1187453,12.5347738 34.7972367,12.5813639 C33.0978342,9.83254558 30.0817774,8 26.6523525,8 C21.9062733,8 17.9716206,11.4787306 17.190814,16.0600945 C16.7315161,15.9669142 16.2722181,15.9047941 15.7823002,15.9047941 C12.0466766,15.9047941 9,18.9797434 9,22.784605 C9,26.2633356 11.5720687,29.1519244 14.9096341,29.5867657 Z" id="路径" fill="url(#linearGradient-4)" fill-rule="nonzero" opacity="0.100000001"></path>
                    <polygon id="路径" fill="url(#linearGradient-5)" fill-rule="nonzero" opacity="0.32" points="99.3853611 117 144.693053 133.259615 107.842287 136 104.360023 134.867308"></polygon>
                    <g id="编组" opacity="0.200000003" transform="translate(166.000000, 127.000000)" fill-rule="nonzero">
                        <path d="M0.935986644,6.26239358 C2.50010584,3.30789309 5.8108248,0.380251694 10.1121526,0.0310834544 C10.7638689,-0.0226347364 13.240391,-0.156930213 15.9254622,1.18602456 C16.2122174,1.32032003 20.8263691,3.68392042 20.6178198,5.91322534 C20.3571333,8.84086674 12.4583314,9.96894874 9.30402433,10.4255534 C6.41040382,10.8552989 1.09239856,11.6073536 0.127858394,9.51234412 C-0.263171404,8.57227578 0.310338967,7.47105287 0.935986644,6.26239358 Z" id="路径" fill="url(#linearGradient-6)"></path>
                        <path d="M11.441146,9.04757173 C12.5873663,6.8824501 15.0135325,4.73701138 18.1656382,4.48113337 C18.64323,4.44176752 20.4580787,4.3433529 22.4257568,5.3274991 C22.6358972,5.42591372 26.017247,7.15801103 25.8644176,8.79169372 C25.6733809,10.9371324 19.8849686,11.7638152 17.5734244,12.0984249 C15.4529169,12.4133517 11.5557681,12.9644736 10.8489322,11.4292055 C10.5623772,10.7403032 10.9826579,9.93330331 11.441146,9.04757173 Z" id="路径备份" fill="url(#linearGradient-7)"></path>
                    </g>
                    <path d="M106.680945,23.1653448 C107.591655,23.1278749 108.578257,23.1278749 109.488967,23.1653448 C117.53357,23.3901645 125.198711,25.7882413 131.763411,30.0598155 C137.872756,34.0691001 142.919606,39.6895925 146.334768,46.2843036 C149.787876,52.9539546 151.381618,60.3355346 151.040102,67.6796447 C150.698585,75.5108642 148.080295,83.1172639 143.488799,89.711975 L143.488799,89.711975 L113.017967,133.589286 C111.917526,135.163024 110.05816,136.137242 108.084956,136.137242 C106.111751,136.137242 104.290331,135.200494 103.151944,133.589286 L103.151944,133.589286 L72.6811119,89.711975 C68.0896166,83.1172639 65.4713259,75.5108642 65.1298097,67.6796447 C64.7882936,60.3355346 66.419982,52.9539546 69.8351438,46.2843036 C73.2123593,39.6895925 78.2592095,34.0691001 84.4065007,30.0598155 C90.9712005,25.7882413 98.6363414,23.3901645 106.680945,23.1653448 Z M107.585355,45.1372423 C99.0205624,45.1372423 92.0853546,52.0724502 92.0853546,60.6372423 C92.0853546,69.2020345 99.0205624,76.1372423 107.585355,76.1372423 C116.150147,76.1372423 123.085355,69.2020345 123.085355,60.6372423 C123.085355,52.0724502 116.150147,45.1372423 107.585355,45.1372423 Z" id="形状结合" fill="#3389E0" fill-rule="nonzero"></path>
                    <g id="编组" transform="translate(42.000000, 109.000000)" fill-rule="nonzero">
                        <path d="M1.31885974,15.3266115 C5.1002527,19.1388088 14.3939579,17.0919915 15.6455457,13.612402 C16.4976906,11.1818064 15.7786934,7.77897252 13.8613674,5.57864387 C12.3701138,3.89001956 11.3315622,2.38049177 9.84030865,1.28032744 C8.6419799,0.410430069 8.02950076,-0.0245186171 7.60342831,0.00106659972 C4.67418025,0.128992684 -3.07501235,10.900369 1.31885974,15.3266115 Z" id="路径" fill="#ADC7E2"></path>
                        <path d="M9.01622666,17.2636565 L9.01618599,24 L7.01618599,24 L7.01644862,17.374764 C7.68237902,17.3879377 8.35514769,17.3488851 9.01622666,17.2636565 Z" id="形状结合" fill="#3389E0" opacity="0.300000012"></path>
                    </g>
                </g>
            </g>
        </g>
    </g>
</svg>