<?xml version="1.0" encoding="UTF-8"?>
<svg width="24px" height="24px" viewBox="0 0 24 24" version="1.1" xmlns="http://www.w3.org/2000/svg" xmlns:xlink="http://www.w3.org/1999/xlink">
    <title>编组备份</title>
    <g id="页面-1" stroke="none" stroke-width="1" fill="none" fill-rule="evenodd">
        <g id="签到打卡" transform="translate(-300.000000, -734.000000)">
            <g id="编组备份" transform="translate(300.000000, 734.000000)">
                <rect id="矩形" fill-opacity="0.01" fill="#999999" fill-rule="nonzero" x="0" y="0" width="24" height="24"></rect>
                <path d="M9.32388893,20.973555 C7.75502924,20.5064692 6.35854701,19.6392916 5.25277972,18.4902801 C5.66529183,18.0013779 5.91388617,17.3696861 5.91388617,16.6799421 C5.91388617,15.1285917 4.65626565,13.8709665 3.10491056,13.8709665 C3.01106736,13.8709665 2.91829626,13.8755545 2.82681729,13.8845432 C2.70219241,13.2752764 2.63674796,12.6444273 2.63674796,11.9983161 C2.63674796,11.0195754 2.78692047,10.0759 3.06548658,9.18905961 C3.0786045,9.18924687 3.09174583,9.18934051 3.10491056,9.18934051 C4.65626565,9.18934051 5.91388617,7.93171531 5.91388617,6.38036489 C5.91388617,5.93500181 5.81023497,5.51384273 5.62577891,5.13972932 C6.70859219,4.13288946 8.03021521,3.3793958 9.49631322,2.973555 C9.96087097,3.88415467 10.9076362,4.50771917 12,4.50771917 C13.0923638,4.50771917 14.039129,3.88415467 14.5036868,2.973555 C15.9697848,3.3793958 17.2914078,4.13288946 18.3742211,5.13972932 C18.189765,5.51384273 18.0861138,5.93500181 18.0861138,6.38036489 C18.0861138,7.93171531 19.343739,9.18934051 20.8950894,9.18934051 C20.9082448,9.18934051 20.9214002,9.18924687 20.9345087,9.18905961 C21.2130655,10.0759 21.363252,11.0195754 21.363252,11.9983161 C21.363252,12.6444273 21.2978029,13.2752764 21.173178,13.8845432 C21.0816991,13.8755545 20.988956,13.8709665 20.8950894,13.8709665 C19.343739,13.8709665 18.0861138,15.1285917 18.0861138,16.6799421 C18.0861138,17.3696861 18.3347082,18.0013779 18.7472062,18.4902801 C17.641453,19.6392916 16.2449708,20.5064692 14.6761111,20.973555 C14.3140341,19.8408824 13.2528031,19.0207552 12,19.0207552 C10.7471969,19.0207552 9.68596589,19.8408824 9.32388893,20.973555 Z" id="路径" stroke="#999999" stroke-width="1.5" stroke-linejoin="round"></path>
                <path d="M12,15.5 C13.933,15.5 15.5,13.933 15.5,12 C15.5,10.067 13.933,8.5 12,8.5 C10.067,8.5 8.5,10.067 8.5,12 C8.5,13.933 10.067,15.5 12,15.5 Z" id="路径" stroke="#999999" stroke-width="1.5" stroke-linejoin="round"></path>
            </g>
        </g>
    </g>
</svg>