<?xml version="1.0" encoding="UTF-8"?>
<svg width="40px" height="40px" viewBox="0 0 40 40" version="1.1" xmlns="http://www.w3.org/2000/svg" xmlns:xlink="http://www.w3.org/1999/xlink">
    <title>编组 2</title>
    <defs>
        <path d="M4.38977136,4.882 C4.38977136,7.006 5.75177136,8.835 7.62077136,9.491 L7.62077136,9.491 C3.84677136,10.169 0.803771356,13.242 0.0287713563,17.287 L0.0287713563,17.287 C-0.0472286437,17.626 0.0287713563,17.965 0.239771356,18.258 L0.239771356,18.258 C0.455771356,18.525 0.774771356,18.681 1.11377136,18.688 L1.11377136,18.688 L11.7037714,18.688 C10.5307714,17.73 9.84677136,16.279 9.84477136,14.745 L9.84477136,14.745 C9.84277136,12.773 10.9617714,10.98 12.7107714,10.146 L12.7107714,10.146 C11.9917714,9.864 11.2727714,9.671 10.5637714,9.559 L10.5637714,9.559 C12.5007714,8.938 13.9288132,7.073 13.9288132,4.892 L13.9288132,4.892 C13.9397714,2.215 11.7817714,0.001 9.15877136,0.001 L9.15877136,0.001 L9.15877136,0 C6.53577136,0 4.38977136,2.215 4.38977136,4.882 L4.38977136,4.882 Z M14.8407714,10.304 C13.6857714,10.304 12.5787714,10.773 11.7627714,11.606 L11.7627714,11.606 C10.9447714,12.442 10.4857714,13.575 10.4867697,14.756 L10.4867697,14.756 C10.4857714,15.936 10.9447714,17.069 11.7627714,17.905 L11.7627714,17.905 C12.5807714,18.74 13.6907714,19.208 14.8467714,19.2070064 L14.8467714,19.2070064 C16.0027714,19.209 17.1127714,18.74 17.9307714,17.905 L17.9307714,17.905 C18.7487714,17.07 19.2077714,15.936 19.2077714,14.756 L19.2077714,14.756 C19.2067714,12.298 17.2547714,10.304 14.8467714,10.304 L14.8467714,10.304 C14.8437714,10.304 14.8417714,10.304 14.8407714,10.304 L14.8407714,10.304 Z M14.3517714,15.987 C14.1037714,15.953 13.9197714,15.737 13.9197714,15.482 L13.9197714,15.482 L13.9197714,12.176 L13.9237714,12.112 C13.9557714,11.858 14.1667714,11.667 14.4187714,11.666 L14.4187714,11.666 C14.5517714,11.666 14.6787714,11.72 14.7727714,11.815 L14.7727714,11.815 C14.8667714,11.911 14.9197714,12.041 14.9197714,12.176 L14.9197714,12.176 L14.9197714,14.971 L17.6567714,14.971 L17.7187714,14.975 C17.9797714,15.01 18.1687714,15.245 18.1527714,15.512 L18.1527714,15.512 C18.1357714,15.781 17.9197714,15.99 17.6567714,15.991 L17.6567714,15.991 L14.4187714,15.991 L14.3517714,15.987 Z" id="path-1"></path>
    </defs>
    <g id="页面-1" stroke="none" stroke-width="1" fill="none" fill-rule="evenodd">
        <g id="申请界面" transform="translate(-50.000000, -165.000000)">
            <g id="编组-2" transform="translate(50.000000, 165.000000)">
                <rect id="矩形" fill="#3389E0" x="0" y="0" width="40" height="40" rx="20"></rect>
                <g id="编组" opacity="0.900000036" transform="translate(10.800000, 10.138000)">
                    <mask id="mask-2" fill="white">
                        <use xlink:href="#path-1"></use>
                    </mask>
                    <g id="Clip-4"></g>
                    <polygon id="Fill-3" fill="#FFFFFF" mask="url(#mask-2)" points="-0.882228644 20.043 20.0437714 20.043 20.0437714 -0.835 -0.882228644 -0.835"></polygon>
                </g>
            </g>
        </g>
    </g>
</svg>