<?xml version="1.0" encoding="UTF-8"?>
<svg width="356px" height="356px" viewBox="0 0 356 356" version="1.1" xmlns="http://www.w3.org/2000/svg" xmlns:xlink="http://www.w3.org/1999/xlink">
    <title>健康码</title>
    <g id="页面-1" stroke="none" stroke-width="1" fill="none" fill-rule="evenodd">
        <g id="绿码" transform="translate(-197.000000, -289.000000)" fill-rule="nonzero">
            <g id="健康码" transform="translate(201.000000, 293.000000)">
                <path d="M333.5,-2 L14.5,-2 C8.99999946,-2 4.94172437,-0.520145826 2.21078927,2.21078927 C-0.520150626,4.94172917 -2,9.00000913 -2,14.5 L-2,333.5 C-2,339.000001 -0.520145826,343.058276 2.21078927,345.789211 C4.94172917,348.520151 9.00000913,350 14.5,350 L333.5,350 C339.000001,350 343.058276,348.520146 345.789211,345.789211 C348.520151,343.058271 350,338.999991 350,333.5 L350,14.5 C350,8.99999946 348.520146,4.94172437 345.789211,2.21078927 C343.058271,-0.520150626 338.999991,-2 333.5,-2 Z" id="路径" stroke="#2BA568" stroke-width="4"></path>
                <path d="M187.144059,134.487288 L187.144059,160.855525 L226.656662,160.855525 L226.656662,206.987271 L200.281158,206.987271 L200.281158,180.619034 L114.731294,180.619034 L114.731294,206.987271 L141.099526,206.987271 L141.099526,318.999762 L29.0000564,318.999762 L29.0000564,206.987271 L88.3629269,206.987271 L88.3629269,180.619034 L114.63692,180.619034 L114.63692,160.855525 L160.768657,160.855525 L160.768657,134.487288 L187.136889,134.487288 L187.144059,134.487288 Z M226.743662,239.880643 L226.743662,299.243525 L206.987429,299.243525 L206.987429,318.999762 L187.231195,318.999762 L187.231195,299.243525 L200.37543,299.243525 L200.37543,239.880643 L226.743662,239.880643 L226.743662,239.880643 Z M319,299.251002 L319,319 L266.256264,319 L266.256264,299.243763 L319,299.243763 L319,299.251002 Z M187.231399,259.738391 L187.231399,299.251002 L160.863168,299.251002 L160.863168,259.738391 L187.231399,259.738391 Z M266.256264,279.494629 L266.256264,299.250866 L246.500031,299.250866 L246.500031,279.487356 L266.256264,279.487356 L266.256264,279.494629 Z M121.256191,226.750883 L48.7563237,226.750883 L48.7563237,299.250764 L121.256191,299.250764 L121.256191,226.750883 Z M101.499957,246.499881 L101.499957,279.48739 L68.512455,279.48739 L68.512455,246.499881 L101.499957,246.499881 Z M318.999898,239.880643 L318.999898,259.63688 L312.380661,259.63688 L312.380661,279.40039 L286.01243,279.40039 L286.01243,259.644153 L299.156665,259.644153 L299.156665,239.880643 L318.999898,239.880643 Z M266.256162,239.974893 L266.256162,259.73113 L246.499929,259.73113 L246.499929,239.974893 L266.256162,239.974893 Z M187.136821,206.987384 L187.136821,239.974893 L160.768589,239.974893 L160.768589,206.987384 L187.136821,206.987384 Z M246.499691,206.987384 L246.499691,226.743621 L226.743458,226.743621 L226.743458,206.987384 L246.499691,206.987384 Z M318.999558,206.987384 L318.999558,226.743621 L266.255823,226.743621 L266.255823,206.987384 L318.999558,206.987384 Z M88.3554844,160.855638 L88.3554844,180.619148 L68.6064898,180.619148 L68.6064898,160.855638 L88.362723,160.855638 L88.3554844,160.855638 Z M286.012294,160.855638 L286.012294,180.619148 L246.499691,180.619148 L246.499691,160.855638 L286.012294,160.855638 L286.012294,160.855638 Z M318.999796,160.855638 L318.999796,180.619148 L299.243563,180.619148 L299.243563,160.855638 L318.999796,160.855638 L318.999796,160.855638 Z M48.7489831,160.855627 L48.7562333,180.524875 L29,180.524875 L29,160.862876 L48.7489946,160.855627 L48.7489831,160.855627 Z M141.012594,29 L141.012594,141.012503 L68.512591,141.012503 L68.512591,160.76874 L48.7563577,160.76149 L48.7563577,141.099491 L29.0001244,141.099491 L29.0001244,29 L141.012594,29 L141.012594,29 Z M318.999796,29.0000116 L318.999796,141.012503 L206.987327,141.012503 L206.987327,29.0000116 L318.999796,29.0000116 Z M121.255987,48.7562487 L48.7561198,48.7562487 L48.7561198,121.25613 L121.255987,121.25613 L121.255987,48.7562487 Z M299.243325,48.7562487 L226.743458,48.7562487 L226.743458,121.25613 L299.243325,121.25613 L299.243325,48.7562487 Z M187.143855,88.3629955 L187.143855,114.731232 L160.768351,114.731232 L160.768351,88.3629955 L187.136583,88.3629955 L187.143855,88.3629955 Z M101.499516,68.5124858 L101.499516,101.499994 L68.5120132,101.499994 L68.5120132,68.5124858 L101.499516,68.5124858 Z M279.486854,68.5124858 L279.486854,101.499994 L246.499351,101.499994 L246.499351,68.5124858 L279.486854,68.5124858 Z M187.143516,42.1442492 L187.143516,68.5124858 L160.768012,68.5124858 L160.768012,42.1442492 L187.136243,42.1442492 L187.143516,42.1442492 Z" id="形状" fill="#2BA568"></path>
            </g>
        </g>
    </g>
</svg>