<?xml version="1.0" encoding="UTF-8"?>
<svg width="44px" height="44px" viewBox="0 0 44 44" version="1.1" xmlns="http://www.w3.org/2000/svg" xmlns:xlink="http://www.w3.org/1999/xlink">
    <title>查询</title>
    <g id="页面-1" stroke="none" stroke-width="1" fill="none" fill-rule="evenodd">
        <g id="流调人员疫情防控查询备份-3" transform="translate(-568.000000, -310.000000)" fill="#0484E1" fill-rule="nonzero">
            <g id="查询" transform="translate(568.000000, 310.000000)">
                <path d="M33.5300213,6.37221189 C29.9161504,2.75834102 25.0976664,0.76855042 19.9887716,0.76855042 C14.8798767,0.76855042 10.0614032,2.75833051 6.4367558,6.37221189 C-1.02759794,13.8365656 -1.02759794,25.9903575 6.4367558,33.4547113 C10.0506267,37.0685822 14.8691107,39.0583728 19.9780055,39.0583728 C25.0869003,39.0583728 29.9053738,37.0685927 33.5192552,33.4547113 C40.994375,25.9903575 40.994375,13.8365656 33.5300108,6.37221189 L33.5300213,6.37221189 Z M31.2498408,31.1745624 C28.2382818,34.1861214 24.2371894,35.8424789 19.9780265,35.8424789 C15.7188215,35.8424789 11.7177712,34.1861214 8.70621217,31.1745624 C2.50022839,24.9685786 2.50022839,14.8583446 8.71696774,8.65241333 C11.7285268,5.64085427 15.7296191,3.98449678 19.9887821,3.98449678 C24.247987,3.98449678 28.2490373,5.64085427 31.2605964,8.65241333 C37.4665802,14.8691107 37.4665802,24.9686311 31.2498408,31.1745624 Z M43.4574106,41.1987728 L37.4773042,35.2186665 C37.0148148,34.756177 35.9822803,34.508799 35.2078794,35.2186665 C34.4765008,35.8855117 34.74539,37.0901353 35.2078794,37.5633803 L41.1879857,43.5434867 C41.4246082,43.7801092 42.6399874,44.382421 43.5111884,43.4789532 C44.2318115,42.736819 43.9306556,41.6612622 43.4574106,41.1987728 Z" id="形状"></path>
            </g>
        </g>
    </g>
</svg>