<?xml version="1.0" encoding="UTF-8"?>
<svg width="32px" height="28px" viewBox="0 0 32 28" version="1.1" xmlns="http://www.w3.org/2000/svg" xmlns:xlink="http://www.w3.org/1999/xlink">
    <title>参与人</title>
    <defs>
        <polygon id="path-1" points="0 0 32 0 32 28 0 28"></polygon>
    </defs>
    <g id="页面-1" stroke="none" stroke-width="1" fill="none" fill-rule="evenodd">
        <g id="领导活动-全部无头像" transform="translate(-118.000000, -1757.000000)">
            <g id="参与人" transform="translate(118.000000, 1757.000000)">
                <mask id="mask-2" fill="white">
                    <use xlink:href="#path-1"></use>
                </mask>
                <g id="Clip-2"></g>
                <path d="M25.4408901,16.9959867 C25.0968626,15.7254759 24.3248573,14.644981 23.2806827,13.9723672 L18.4174656,10.7858229 C19.6352893,9.65033341 20.4439175,7.54379637 20.4439175,4.53480605 C20.4439175,2.03057406 18.4784707,0 16.0526356,0 C13.6285845,0 11.6631377,2.03057406 11.6631377,4.53480605 C11.6631377,7.19795347 12.5511074,9.5059929 13.8620495,10.7616578 C13.8384602,10.7432902 13.8148213,10.7432902 13.7910337,10.719125 L8.8263726,13.9740469 C7.78219801,14.6458479 7.01019271,15.7259094 6.66616518,16.9959867 L5.94718631,19.7148331 C5.60900655,20.9908162 6.54113184,22.2501654 7.82496605,22.2501654 L24.2820892,22.2501654 C25.5659234,22.2501654 26.4963142,20.9908162 26.1596707,19.7148331 L25.4408901,16.9959867 Z" id="Fill-1" fill="#0080FF" mask="url(#mask-2)"></path>
                <path d="M30.8046866,25.3738588 C31.4342143,25.3772181 31.9545671,25.9112346 31.9971865,26.598044 C32.0399545,27.2846367 31.5904689,27.8907693 30.9671358,27.9870505 L30.8046866,28 L1.19240079,28 C0.56287304,27.9968033 0.0425202561,27.4626242 -0.00024778704,26.7760315 C-0.0428671579,26.0894388 0.40666809,25.483252 1.03000117,25.3867541 L1.19240079,25.3757552 L30.8046866,25.3757552 L30.8046866,25.3738588 Z" id="Fill-3" fill="#0080FF" mask="url(#mask-2)"></path>
                <path d="M22.8122165,1.05784689 C24.9282683,1.05784689 26.6418643,2.99062267 26.6418643,5.37077817 C26.6418643,8.23353161 25.9347297,10.2346849 24.8758365,11.3146922 L29.1149276,14.3476309 C30.0452689,15.0189985 30.7158302,16.0424941 30.9977127,17.2216 L31.6235732,19.8071048 C31.91953,21.0221875 31.1058965,22.2187941 29.9877823,22.2187941 L27.484142,22.2207447 C27.8517589,21.3142278 27.9268879,20.2983177 27.6972884,19.3393527 L27.0545784,16.6095074 C26.6550466,14.8579158 25.6803515,13.3281448 24.3159865,12.3115845 L21.6313626,10.3381723 C22.2574213,8.89200392 22.641293,7.00940055 22.641293,4.65308508 C22.641293,3.4047889 22.3081185,2.23418954 21.7447995,1.23182488 C22.0831775,1.11712186 22.4416758,1.05784689 22.8122165,1.05784689 Z" id="Fill-4" fill="#64AFFA" mask="url(#mask-2)"></path>
                <path d="M9.10379497,1.05784519 C6.98927948,1.05784519 5.27568343,2.99062267 5.27568343,5.37077817 C5.27568343,8.23353161 5.98281808,10.2346849 7.04171122,11.3146922 L2.8026201,14.3476309 C1.87168419,15.018565 1.20032998,16.0422773 0.91829877,17.2216 L0.292438265,19.8071048 C-0.00198229632,21.0221875 0.811799901,22.2187941 1.92976547,22.2187941 L4.43340572,22.2207447 C4.06578887,21.3142278 3.99065984,20.2983177 4.22025931,19.3393527 L4.86296933,16.6095074 C5.2621047,14.8583492 6.23620511,13.328524 7.60002498,12.3115845 L10.6042446,10.3381723 C9.97818587,8.89200392 9.5960487,7.00940055 9.5960487,4.65308508 C9.5960487,3.43253002 9.87852593,2.28961759 10.3723159,1.30209877 C9.96579652,1.13993243 9.53643114,1.05741343 9.10379497,1.05784519 Z" id="Fill-5" fill="#7ACEEB" mask="url(#mask-2)"></path>
            </g>
        </g>
    </g>
</svg>