<?xml version="1.0" encoding="UTF-8"?>
<svg width="24px" height="24px" viewBox="0 0 24 24" version="1.1" xmlns="http://www.w3.org/2000/svg" xmlns:xlink="http://www.w3.org/1999/xlink">
    <title>选中</title>
    <g id="页面-1" stroke="none" stroke-width="1" fill="none" fill-rule="evenodd">
        <g id="领导活动-只看" transform="translate(-225.000000, -665.000000)">
            <g id="选中" transform="translate(225.000000, 665.000000)">
                <circle id="椭圆形" fill="#0086D9" cx="12" cy="12" r="12"></circle>
                <g id="勾" transform="translate(2.666667, 2.666667)" fill-rule="nonzero">
                    <rect id="矩形" fill="#000000" opacity="0" x="0" y="0" width="18.6666667" height="18.6666667"></rect>
                    <path d="M7.86533854,14.4700026 C7.65755026,14.4700026 7.45778726,14.3897489 7.30772656,14.2460208 L3.01484896,10.1347057 C2.69328646,9.82674219 2.68225781,9.31638021 2.99023958,8.9948724 C3.29820312,8.6733099 3.8085651,8.66228125 4.13014583,8.97024479 L7.79521094,12.4803073 L14.4432422,4.40166927 C14.7261406,4.05786719 15.2342057,4.00852083 15.5780625,4.29140104 C15.9218828,4.57429948 15.9712292,5.08236458 15.6883125,5.4261849 L8.4879375,14.1760573 C8.33477612,14.362188 8.10636608,14.4700026 7.86532031,14.4700026 L7.86533854,14.4700026 Z" id="路径" fill="#FFFFFF"></path>
                </g>
            </g>
        </g>
    </g>
</svg>