<?xml version="1.0" standalone="no"?><!DOCTYPE svg PUBLIC "-//W3C//DTD SVG 1.1//EN" "http://www.w3.org/Graphics/SVG/1.1/DTD/svg11.dtd"><svg t="1660141420801" class="icon" viewBox="0 0 1024 1024" version="1.1" xmlns="http://www.w3.org/2000/svg" p-id="1371" xmlns:xlink="http://www.w3.org/1999/xlink" width="200" height="200"><defs><style type="text/css">@font-face { font-family: feedback-iconfont; src: url("//at.alicdn.com/t/font_1031158_u69w8yhxdu.woff2?t=1630033759944") format("woff2"), url("//at.alicdn.com/t/font_1031158_u69w8yhxdu.woff?t=1630033759944") format("woff"), url("//at.alicdn.com/t/font_1031158_u69w8yhxdu.ttf?t=1630033759944") format("truetype"); }
</style></defs><path d="M656.54 544.176l0.458 0.327 211.104 153.53a42.372 42.372 0 0 1 4.446 3.722C883.506 707.4 891 718.825 891 732c0 13.18-7.5 24.61-18.465 30.251a42.213 42.213 0 0 1-3.845 3.28l-0.588 0.436-211.104 153.53c-15.186 11.045-36.45 7.687-47.495-7.5-10.934-15.033-7.753-36.025 7.047-47.16l0.452-0.334L752.444 766H167c-18.778 0-34-15.222-34-34 0-18.59 14.92-33.695 33.438-33.995L167 698h585.444l-135.442-98.503c-15.034-10.934-18.475-31.884-7.826-47.037l0.327-0.458c10.934-15.034 31.884-18.475 47.037-7.826zM414.497 112.002c10.934 15.034 7.753 36.026-7.047 47.16l-0.452 0.335L271.555 258H857c18.778 0 34 15.222 34 34 0 18.59-14.92 33.695-33.438 33.995L857 326H271.557l135.44 98.503c15.035 10.934 18.476 31.884 7.827 47.037l-0.327 0.458c-10.934 15.034-31.884 18.475-47.037 7.826l-0.458-0.327-211.104-153.53a42.372 42.372 0 0 1-4.446-3.722C140.494 316.6 133 305.175 133 292c0-13.18 7.5-24.61 18.465-30.251a42.213 42.213 0 0 1 3.845-3.28l0.588-0.436 211.104-153.53c15.186-11.045 36.45-7.687 47.495 7.5z" p-id="1372" fill="#737373"></path></svg>