<?xml version="1.0" encoding="UTF-8"?>
<svg width="100px" height="100px" viewBox="0 0 100 100" version="1.1" xmlns="http://www.w3.org/2000/svg" xmlns:xlink="http://www.w3.org/1999/xlink">
    <title>值班管理-未选中@2x</title>
    <g id="页面-1" stroke="none" stroke-width="1" fill="none" fill-rule="evenodd" opacity="0.5">
        <g id="工作台-应用中心" transform="translate(-126.000000, -629.000000)">
            <g id="值班管理-未选中" transform="translate(126.000000, 629.000000)">
                <rect id="矩形备份-16" x="0" y="0" width="100" height="100"></rect>
                <path d="M80,17 L75,17 L75,14 C75,10 71.5,7 67.5,7 C63.5,7 60,10 60,14 L60,17 L40,17 L40,14 C40,10 36.5,7 32.5,7 C28.5,7 25,10 25,14 L25,17 L20,17 C17,17 15,19.5 15,22 L15,82 C15,85 17.5,87 20,87 L80,87 C83,87 85,84.5 85,82 L85,22 C85,19 82.5,17 80,17 Z M30,14 C30,13 31,12 32.5,12 C34,12 35,13 35,14 L35,20 C35,21 34,22 32.5,22 C31,22 30,21 30,20 L30,14 Z M67.5,78.5 L32.5,78.5 C31,78.5 30,77 30,76 C30,74.5 31,73.5 32.5,73.5 L67.5,73.5 C69,73.5 70,74.5 70,76 C70,77 69,78.5 67.5,78.5 Z M30,64.5 C30,56 35,49 42.5,46 C41,44 40,42 40,39.5 C40,34 44.5,29.5 50,29.5 C55.5,29.5 60,34 60,39.5 C60,42 59,44 57.5,46 C65,49 70,56 70,64.5 L30,64.5 Z M70,20 C70,21 69,22 67.5,22 C66,22 65,21 65,20 L65,14 C65,13 66,12 67.5,12 C69,12 70,13 70,14 L70,20 Z" id="形状" fill="#FFFFFF" fill-rule="nonzero"></path>
            </g>
        </g>
    </g>
</svg>