<?xml version="1.0" encoding="UTF-8"?>
<svg width="494px" height="425px" viewBox="0 0 494 425" version="1.1" xmlns="http://www.w3.org/2000/svg" xmlns:xlink="http://www.w3.org/1999/xlink">
    <title>404</title>
    <g id="页面-1" stroke="none" stroke-width="1" fill="none" fill-rule="evenodd">
        <g id="iPhone-8" transform="translate(-116.000000, -308.000000)" fill-rule="nonzero">
            <g id="404" transform="translate(116.000000, 308.000000)">
                <path d="M480.98694,347.204769 L397.971365,347.204769 L397.971366,347.204769 C390.801579,347.056301 385.11018,341.147193 385.25922,334.006408 C385.403927,327.074642 391.011446,321.489817 397.971366,321.345683 L438.093129,321.40716 L438.093129,321.368038 L450.556127,321.368038 L450.556126,321.368038 C457.758459,321.383473 463.609615,315.580957 463.625159,308.407813 C463.625183,308.396625 463.625193,308.385437 463.625188,308.374249 L463.625188,308.374249 C463.625188,301.201049 457.786546,295.386024 450.584212,295.386024 C450.584212,295.386024 450.584212,295.386024 450.584212,295.386024 L449.776165,295.386024 L449.776176,295.385994 C457.56064,273.939272 461.531236,251.305055 461.509688,228.5 C461.509688,120.950337 374.801789,33.5760238 267.224961,32 L123.572216,32 L123.572216,32 C116.369882,32 110.53124,37.8150249 110.53124,44.9882246 C110.53124,44.9882246 110.53124,44.9882246 110.53124,44.9882246 L110.53124,44.9882098 C110.521935,52.1614095 116.353048,57.9839233 123.555381,57.9932006 C123.560996,57.9932079 123.56661,57.9932115 123.572225,57.9932115 L173.345656,57.9932115 L173.345656,57.9932115 C180.507699,57.9932112 186.313683,63.7757099 186.313683,70.9087825 C186.313683,70.9087825 186.313683,70.9087825 186.313683,70.9087825 L186.313683,70.9087825 C186.313683,78.0418552 180.507699,83.8243536 173.345656,83.8243536 C173.345656,83.8243536 173.345656,83.8243536 173.345656,83.8243536 L13.0269478,83.8243536 L13.0269472,83.8243536 C5.83235757,83.8243539 0,89.6331191 0,96.7986064 C0,103.964094 5.83235757,109.772859 13.0269472,109.772859 L108.903932,109.772859 L108.903932,109.772859 C116.065975,109.763594 121.879478,115.538591 121.888793,122.671664 C121.888808,122.682849 121.888808,122.694034 121.888793,122.705218 L121.888793,122.705218 C121.888793,129.838291 116.082809,135.620789 108.920766,135.620789 C108.920766,135.620789 108.920766,135.620789 108.920766,135.620789 L36.8418787,135.620789 L36.8418782,135.620789 C29.6472885,135.62079 23.814931,141.429555 23.814931,148.595042 C23.8149313,155.760529 29.6472885,161.569295 36.8418782,161.569295 L78.8939747,161.569295 L78.8939771,161.569289 C71.1017696,183.029591 67.1291539,205.679513 67.1548543,228.5 C67.1548543,337.027685 155.433955,425 264.335081,425 C267.253028,425 270.155992,424.936654 273.044029,424.809976 L273.044029,424.809976 C273.785378,424.937207 274.536328,425 275.288597,425 L411.646476,425 L411.646476,425 C418.861211,425 424.709897,419.174964 424.709897,411.989413 L424.709897,411.989413 C424.709897,404.803862 418.861211,398.978834 411.646476,398.978834 L314.187067,398.978834 L314.187066,398.978834 C307.032766,398.978833 301.233067,393.202595 301.233067,386.077234 C301.233068,378.951874 307.032766,373.175635 314.187066,373.175635 L480.986982,373.175635 L480.986981,373.175635 C488.173827,373.175635 494,367.373129 494,360.215354 C494,360.215354 494,360.215354 494,360.215354 L494,360.215323 C494.027753,353.057604 488.224274,347.232631 481.037484,347.204911 C481.02063,347.204846 481.003776,347.204813 480.986921,347.204813 L480.98694,347.204769 Z" id="路径" fill="#E3E3E3"></path>
                <path d="M334.926124,266.183734 L354.487081,137 L354.487081,137 C354.487081,123.74519 343.70869,113 330.412922,113 L218.820925,113 L218.820925,113 C216.467667,113.006166 214.561515,114.906446 214.555331,117.252455 L195,267.962136 L195,267.961851 C195.040022,281.77324 206.260887,292.959776 220.114952,293 L359,293" id="路径" fill="#FFFFFF"></path>
                <path d="M359,295 L220.323923,295 L220.323924,295 C205.241938,294.984586 193.018598,282.814819 193,267.795865 L193,267.510506 L212.536353,117.317045 L212.536353,117.317044 C212.627654,113.805596 215.509868,111.004868 219.037233,111 L330.456811,111 L330.456811,111 C344.966921,111.015419 356.725761,122.725139 356.741268,137.174608 L356.741268,137.510324 L337.159966,266.352288 L332.715544,265.686452 L352.218184,136.99556 L352.218184,136.99558 C352.116484,125.080426 342.394326,115.471301 330.428717,115.459439 L219.037233,115.459439 L219.037233,115.459439 C217.926307,115.459439 217.025724,116.356257 217.025724,117.46254 L217.025724,117.747898 L197.500609,267.935764 L197.500609,267.935701 C197.593095,280.426943 207.779866,290.508755 220.323867,290.523806 L359,290.523806 L359,295 Z" id="路径" fill="#848484"></path>
                <path d="M387,267 L387,267 C387,281.359402 375.583259,293 361.5,293 C347.416741,293 336,281.359402 336,267 L387,267 Z" id="路径" fill="#FFFFFF"></path>
                <path d="M360.5,296 L360.5,296 C345.319777,295.982063 333.018407,283.98049 333,269.170253 L333,267 L388,267 L388,269.170253 L388,269.169847 C387.981844,283.980084 375.680612,295.981852 360.50039,296 L360.5,296 Z M337.554599,271.340503 L337.554599,271.340503 C338.80385,283.704053 350.089594,292.738651 362.76195,291.519837 C373.707061,290.467156 382.366419,282.018906 383.445397,271.340503 L337.554599,271.340503 Z" id="形状" fill="#848484"></path>
                <path d="M330,114 L196.136878,114 L196.136878,114 C189.433849,114 184,119.148729 184,125.5 C184,131.851291 189.433866,137 196.136878,137 L305.726244,137 L305.726244,137 C305.726246,124.297472 316.593998,114 330,114 L330,114 Z" id="路径" fill="#FFFFFF"></path>
                <path d="M308.184303,140 L197.283151,140 L197.28315,140 C189.39479,140 183,133.508123 183,125.5 C183,117.491877 189.39479,111 197.28315,111 L330,111 L330,115.568728 L330,115.568728 C317.956643,115.581319 308.196678,125.489435 308.184302,137.715636 L308.184303,140 Z M197.283151,115.568728 L197.283151,115.568728 C191.880289,115.568728 187.500403,120.015111 187.500403,125.5 C187.500403,130.984889 191.880289,135.431283 197.283151,135.431283 C197.283151,135.431283 197.283152,135.431283 197.283152,135.431283 L303.779536,135.431283 L303.779535,135.431283 C304.465171,127.384383 308.697838,120.083613 315.294938,115.568728 L197.283151,115.568728 Z" id="形状" fill="#848484"></path>
                <path d="M219,197 L219,197 C219,199.209141 220.790864,201 223,201 C225.209141,201 227,199.209136 227,197 L227,197 C227,194.790859 225.209141,193 223,193 C220.790859,193 219,194.790859 219,197 L219,197 Z" id="路径" fill="#848484"></path>
                <path d="M307,275 L307,275 C307,277.209141 308.790864,279 311,279 C313.209141,279 315,277.209136 315,275 L315,275 C315,272.790859 313.209141,271 311,271 C308.790859,271 307,272.790859 307,275 L307,275 Z" id="路径" fill="#848484"></path>
                <path d="M312.719214,278 L312.719214,278 C311.772256,278.002241 311.002544,277.234663 311,276.285264 C310.998148,275.589188 311.415163,274.960694 312.056226,274.693406 C331.32289,266.671201 341.530621,258.03014 341.564913,249.78446 C341.616352,238.43877 323.086977,230.376454 322.904084,230.301962 L322.904084,230.301962 C322.032877,229.928531 321.628575,228.917736 322.001048,228.044284 C322.373519,227.170833 323.381715,226.765488 324.252922,227.138921 C325.104518,227.499921 345.057032,236.198283 345,249.80165 C344.954154,259.680422 334.317767,269.123704 313.382203,277.879367 L313.382202,277.879367 C313.171319,277.963044 312.945973,278.003945 312.719214,278 L312.719214,278 Z" id="路径" fill="#848484"></path>
                <path d="M142.837292,259 L142.837292,259 C134.120895,259 126.633293,264.795021 124.996834,272.808375 L124.996833,272.808375 C119.230622,270.812077 112.827181,273.568959 110.694353,278.966043 C108.561519,284.363122 111.506958,290.356637 117.273175,292.352928 C118.517009,292.783551 119.833049,293.002679 121.159243,293 L142.837302,293 L142.837301,293 C152.868267,293 161,285.388808 161,276 C161,266.611173 152.868267,259 142.837301,259 L142.837292,259 Z" id="路径" fill="#FFFFFF"></path>
                <path d="M141.840818,296 L121.58898,296 L121.58898,296 C114.636305,296 109,290.116504 109,282.85891 C109,275.601316 114.636305,269.717823 121.58898,269.717823 L121.588979,269.717823 C122.261932,269.717547 122.933767,269.774874 123.597743,269.889228 L123.597742,269.889231 C126.832256,259.373791 137.620661,253.586399 147.694308,256.962801 C157.767955,260.339169 163.312197,271.600715 160.07765,282.116156 C157.533269,290.387956 150.163555,295.998572 141.840816,296 L141.840818,296 Z M121.58898,274.288636 L121.58898,274.288636 C117.05461,274.288636 113.378776,278.125679 113.378776,282.85891 C113.378776,287.592141 117.05461,291.429184 121.58898,291.429184 L141.840817,291.429184 L141.840817,291.429184 C150.002691,291.429184 156.619021,284.522343 156.619021,276.002519 C156.619021,267.482695 150.002362,260.576197 141.840489,260.576197 C134.748733,260.576197 128.656817,265.834855 127.325176,273.105938 L126.843511,275.757009 L124.418764,274.825706 L124.418764,274.825706 C123.51337,274.473336 122.55525,274.291493 121.58898,274.288636 L121.58898,274.288636 Z" id="形状" fill="#848484"></path>
                <path d="M172,293 C172,284.715385 166.177083,278 159,278 C151.822917,278 146,284.715385 146,293 L172,293 Z" id="路径" fill="#FFFFFF"></path>
                <path d="M175,296 L143,296 L143,293.882353 C143,285.125882 150.177143,278 159,278 C167.822857,278 175,285.125882 175,293.882353 L175,296 Z M147.76,291.764706 L170.24,291.764706 C169.262857,286.348824 164.594286,282.235294 159,282.235294 C153.405714,282.235294 148.714286,286.348824 147.76,291.764706 L147.76,291.764706 Z" id="形状" fill="#848484"></path>
                <path d="M363.75592,294.586667 L124.104991,294.586667 L124.104991,294.586667 C122.865619,294.586667 121.860911,293.559907 121.860911,292.293333 C121.860911,291.02676 122.865619,290 124.104991,290 L363.75592,290 L363.75592,290 C364.995292,290 366,291.02676 366,292.293333 C366,293.559907 364.995292,294.586667 363.75592,294.586667 L363.75592,294.586667 Z M104.46929,294.586667 L74.0844445,294.586667 L74.0844444,294.586667 C72.8450726,294.586667 71.8403643,293.559907 71.8403643,292.293333 C71.8403643,291.02676 72.8450726,290 74.0844444,290 L104.4749,290 L104.4749,290 C105.714272,290 106.71898,291.02676 106.71898,292.293333 C106.71898,293.559907 105.714272,294.586667 104.4749,294.586667 L104.46929,294.586667 Z M66.5106741,294.586667 L60.2440802,294.586667 L60.2440801,294.586667 C59.0047083,294.586667 58,293.559907 58,292.293333 C58,291.02676 59.0047083,290 60.2440801,290 L66.510674,290 L66.5106739,290 C67.7500457,290 68.754754,291.02676 68.754754,292.293333 C68.754754,293.559907 67.7500457,294.586667 66.5106739,294.586667 L66.5106741,294.586667 Z M338.510018,312.933333 L277.358834,312.933333 L277.358834,312.933333 C276.119463,312.933333 275.114754,311.906574 275.114754,310.64 C275.114754,309.373426 276.119463,308.346667 277.358834,308.346667 L338.510018,308.346667 L338.510018,308.346667 C339.74939,308.346667 340.754098,309.373426 340.754098,310.64 C340.754098,311.906574 339.74939,312.933333 338.510018,312.933333 L338.510018,312.933333 Z M259.59133,312.933333 L126.444445,312.933333 L126.444444,312.933333 C125.205073,312.933333 124.200364,311.906574 124.200364,310.64 C124.200364,309.373426 125.205073,308.346667 126.444444,308.346667 L259.59133,308.346667 L259.59133,308.346667 C260.830701,308.346667 261.83541,309.373426 261.83541,310.64 C261.83541,311.906574 260.830701,312.933333 259.59133,312.933333 L259.59133,312.933333 Z M344.120219,333 L238.272568,333 L238.272568,333 C237.033197,333 236.028488,331.97324 236.028488,330.706667 C236.028488,329.440093 237.033197,328.413333 238.272568,328.413333 L344.120219,328.413333 L344.120219,328.413333 C345.35959,328.413333 346.364299,329.440093 346.364299,330.706667 C346.364299,331.97324 345.35959,333 344.120219,333 L344.120219,333 Z M223.125027,333 L204.98725,333 L204.98725,333 C203.747878,333 202.743169,331.97324 202.743169,330.706667 C202.743169,329.440093 203.747878,328.413333 204.98725,328.413333 L223.125027,328.413333 L223.125027,328.413333 C224.364399,328.413333 225.369107,329.440093 225.369107,330.706667 C225.369107,331.97324 224.364399,333 223.125027,333 L223.125027,333 Z" id="形状" fill="#848484"></path>
                <path d="M327.199443,11.2502776 L318.79777,11.2502776 L318.79777,2.81256941 L318.79777,2.81256941 C318.79777,1.25923232 317.543915,0 315.997212,0 C314.450509,0 313.196655,1.25923232 313.196655,2.81256941 L313.196655,11.2502776 L304.794982,11.2502776 L304.794982,11.2502776 C303.248279,11.2502777 301.994424,12.5095099 301.994424,14.062847 C301.994424,15.6161841 303.248279,16.8754164 304.794982,16.8754164 L313.196655,16.8754164 L313.196655,25.3131246 L313.196655,25.3131251 C313.196655,26.8664622 314.450509,28.1256945 315.997212,28.1256945 C317.543915,28.1256945 318.79777,26.8664622 318.79777,25.3131251 L318.79777,16.8754169 L327.199443,16.8754169 L327.199442,16.8754169 C328.746146,16.8754169 330,15.6161845 330,14.0628475 C330,12.5095104 328.746146,11.250278 327.199442,11.250278 L327.199443,11.2502776 Z M27.192512,186.231471 L22.5267831,181.54573 L27.192512,176.859989 L27.1925122,176.859989 C28.0509335,175.997886 28.0509335,174.60014 27.1925118,173.738037 C26.3340905,172.875934 24.9423142,172.875934 24.0838929,173.738037 L19.418164,178.423778 L14.7524351,173.738037 L14.7524352,173.738038 C13.8940139,172.875934 12.5022376,172.875934 11.6438163,173.738037 C10.785395,174.60014 10.785395,175.997886 11.643816,176.859989 C11.643816,176.859989 11.643816,176.859989 11.643816,176.859989 L16.3095449,181.54573 L11.643816,186.231471 L11.643816,186.231471 C10.7853947,187.093574 10.7853947,188.491319 11.643816,189.353423 C12.5022373,190.215526 13.8940136,190.215526 14.7524349,189.353423 L19.4181639,184.667682 L24.0838928,189.353423 L24.0838928,189.353423 C24.9423141,190.215526 26.3340904,190.215526 27.1925117,189.353423 C28.050933,188.491319 28.050933,187.093574 27.1925117,186.231471 C27.1925117,186.231471 27.1925117,186.231471 27.1925117,186.231471 L27.192512,186.231471 Z" id="形状" fill="#E3E3E3"></path>
                <path d="M111.300396,232.834496 L105.5,238.634892 L99.699604,232.834496 L99.6996041,232.834496 C98.6508367,231.748625 96.9203671,231.718546 95.8344958,232.767317 C94.7486245,233.816085 94.7185455,235.546554 95.7673173,236.632426 C95.7893192,236.655206 95.8117155,236.677602 95.8344958,236.699604 L101.634892,242.5 L95.8344958,248.300396 L95.8344958,248.300396 C94.7486245,249.349163 94.7185456,251.079633 95.7673173,252.165504 C96.8160846,253.251376 98.5465543,253.281454 99.6324256,252.232683 C99.6552059,252.210681 99.6776021,252.188285 99.6996041,252.165504 L105.5,246.365108 L111.300396,252.165504 L111.300396,252.165504 C112.349163,253.251375 114.079633,253.281454 115.165504,252.232683 C116.251375,251.183915 116.281454,249.453446 115.232683,248.367574 C115.210681,248.344794 115.188284,248.322398 115.165504,248.300396 L109.365108,242.5 L115.165504,236.699604 L115.165504,236.699604 C116.251376,235.650837 116.281454,233.920367 115.232683,232.834496 C114.183915,231.748624 112.453446,231.718546 111.367574,232.767317 C111.344794,232.789319 111.322398,232.811715 111.300396,232.834496 L111.300396,232.834496 Z" id="路径" fill="#FFFFFF"></path>
                <path d="M416,75.5 L416,75.5 C416,81.8512857 421.148725,87 427.5,87 C433.851286,87 439,81.8512748 439,75.5 L439,75.5 C439,69.1487143 433.851275,64 427.5,64 C421.148714,64 416,69.1487252 416,75.5 L416,75.5 Z" id="路径" fill="#E3E3E3"></path>
                <path d="M410.5,229 L410.5,229 C404.148707,229 399,223.851272 399,217.5 C399,211.148707 404.148728,206 410.5,206 C416.851293,206 422,211.148728 422,217.5 L422,217.5 C422,223.851293 416.851272,229 410.5,229 L410.5,229 Z M410.500001,211.227273 L410.5,211.227273 C407.035667,211.227273 404.227273,214.035667 404.227273,217.5 C404.227273,220.964333 407.035667,223.772727 410.5,223.772727 C413.964333,223.772727 416.772728,220.964333 416.772728,217.5 L416.772728,217.5 C416.772728,214.035667 413.964333,211.227273 410.5,211.227273 L410.500001,211.227273 Z" id="形状" fill="#FFFFFF"></path>
                <path d="M229.696176,179 L250.303824,179 C252.101276,179 253,179.792062 253,181.37619 L253,181.62381 C253,183.207938 252.101276,184 250.303824,184 L229.696176,184 C227.898724,184 227,183.207938 227,181.62381 L227,181.37619 C227,179.792062 227.898724,179 229.696176,179 Z" id="路径" fill="#848484"></path>
                <path d="M294.592327,179 L315.407673,179 C317.135889,179 318,179.792296 318,181.376884 L318,181.623116 C318,183.207704 317.135889,184 315.407673,184 L294.592327,184 C292.864111,184 292,183.207704 292,181.623116 L292,181.376884 C292,179.792296 292.864111,179 294.592327,179 Z" id="路径" fill="#848484"></path>
                <path d="M230.011054,185 L252.988946,185 C254.996317,185 256,185.793362 256,187.38009 L256,187.61991 C256,189.206638 254.996317,190 252.988946,190 L230.011054,190 C228.003683,190 227,189.206638 227,187.61991 L227,187.38009 C227,185.793362 228.003683,185 230.011054,185 Z" id="路径" fill="#848484"></path>
                <path d="M290.592327,185 L311.407673,185 C313.135889,185 314,185.792296 314,187.376884 L314,187.623116 C314,189.207704 313.135889,190 311.407673,190 L290.592327,190 C288.864111,190 288,189.207704 288,187.623116 L288,187.376884 C288,185.792296 288.864111,185 290.592327,185 Z" id="路径" fill="#848484"></path>
                <path d="M294.225336,242 C292.003363,242 290.336883,239.811224 288.737063,237.695408 C287.953817,236.668367 286.51509,234.748979 285.887382,234.704081 C285.465207,234.782653 284.470874,236.180102 283.882051,237.010714 C282.30445,239.255612 280.343559,242 277.005045,242 C273.772074,242 271.20014,239.070408 268.928172,236.488775 C267.944949,235.366326 266.461782,233.682653 265.867404,233.57602 C265.167483,233.693877 263.206592,235.978061 262.156709,237.207143 C259.934736,239.777551 258.046059,242 255.8963,242 C253.674327,242 252.052286,239.457653 250.196939,236.516837 C249.324814,235.136224 247.280599,231.897959 246.452914,231.897959 C245.625229,231.897959 243.536574,234.838775 242.525577,236.253061 C240.414702,239.193877 238.414926,242 235.898542,242 C231.926765,242 227.871664,237.454081 227.421714,236.948979 L227.421714,236.948979 C226.808133,236.25003 226.871553,235.180881 227.563365,234.560969 C228.255177,233.941057 229.313408,234.005131 229.926989,234.704081 C231.243508,236.219388 234.02653,238.632653 235.892987,238.632653 C236.709562,238.632653 238.809327,235.691837 239.820324,234.277551 C241.936754,231.336735 243.93653,228.530612 246.452914,228.530612 C249.108172,228.530612 251.002404,231.527551 253.007735,234.704081 C253.85764,236.045408 255.257483,238.273469 255.951849,238.632653 C256.712875,238.425 258.612662,236.213775 259.640325,235.012755 C261.862298,232.442347 263.750975,230.219898 265.900734,230.219898 C267.87829,230.219898 269.52255,232.094388 271.427892,234.260714 C273.144366,236.213775 275.277461,238.638265 277.0106,238.638265 C278.638195,238.638265 279.932494,236.814286 281.182354,235.057653 C282.432214,233.30102 283.809837,231.336735 285.892937,231.336735 C288.11491,231.336735 289.78139,233.52551 291.381211,235.641326 C292.164456,236.668367 293.603184,238.587755 294.230891,238.632653 C295.825157,238.632653 297.769383,236.629081 298.174894,235.95 L298.174893,235.95 C298.410516,235.05112 299.32277,234.515415 300.212471,234.753469 C300.945727,234.949665 301.455331,235.621397 301.452317,236.387755 C301.446749,238.105102 297.747164,242 294.225336,242 L294.225336,242 Z M316.445067,198.22449 L316.445067,198.22449 C313.377161,198.22449 310.890134,195.711804 310.890134,192.612245 C310.890134,189.512686 313.377161,187 316.445067,187 C319.512973,187 322,189.512686 322,192.612245 L322,192.612245 C322,195.711804 319.512973,198.22449 316.445067,198.22449 L316.445067,198.22449 Z M316.445067,189.244898 L316.445067,189.244898 C314.604324,189.244898 313.112108,190.75251 313.112108,192.612245 C313.112108,194.47198 314.604324,195.979592 316.445067,195.979592 C318.285811,195.979592 319.778027,194.47198 319.778027,192.612245 L319.778027,192.612245 C319.778027,190.75251 318.285811,189.244898 316.445067,189.244898 L316.445067,189.244898 Z" id="形状" fill="#848484"></path>
                <path d="M228,187 L228,187 C230.666665,187 232,188.333335 232,191 L232,191 C232,193.666665 230.666665,195 228,195 L228,195 C225.333335,195 224,193.666665 224,191 L224,191 C224,188.333335 225.333335,187 228,187 Z" id="路径" fill="#FFFFFF"></path>
                <path d="M228.201112,196.51533 L228.201112,196.51533 C225.550759,196.51533 223.402223,194.38525 223.402223,191.757665 C223.402223,189.130079 225.550759,187 228.201112,187 C230.851464,187 233,189.130079 233,191.757665 L233,191.757525 C232.996966,194.383835 230.850313,196.512167 228.201253,196.51533 L228.201112,196.51533 Z M228.201112,189.238901 L228.201112,189.238901 C226.797984,189.238901 225.660524,190.366591 225.660524,191.757665 C225.660524,193.148739 226.797984,194.276428 228.201112,194.276428 C229.604239,194.276428 230.7417,193.148739 230.7417,191.757665 L230.7417,191.757665 C230.7417,190.366591 229.604239,189.238901 228.201112,189.238901 L228.201112,189.238901 Z M198.769812,230.994406 L198.769812,230.994406 C198.444147,230.993579 198.122516,230.922932 197.826972,230.787307 C196.432471,230.149221 184.220712,224.322481 185.039346,215.601961 C185.773294,207.799391 196.663947,201.390537 218.349276,196.011577 L218.349277,196.011577 C219.553899,195.691163 220.792436,196.399568 221.115627,197.593842 C221.438817,198.788116 220.724274,200.016014 219.519652,200.336428 C219.494728,200.343058 219.469691,200.349263 219.444553,200.355042 C194.12336,206.629562 189.843881,212.859304 189.522073,216.027349 C189.076059,220.773819 196.918007,225.45872 199.684425,226.729296 L199.684425,226.729296 C200.816285,227.248687 201.309142,228.579407 200.78525,229.701544 C200.416499,230.491383 199.619465,230.997783 198.741584,231 L198.769812,230.994406 Z" id="形状" fill="#848484"></path>
            </g>
        </g>
    </g>
</svg>