<?xml version="1.0" encoding="UTF-8"?>
<svg width="28px" height="28px" viewBox="0 0 28 28" version="1.1" xmlns="http://www.w3.org/2000/svg" xmlns:xlink="http://www.w3.org/1999/xlink">
    <title>忙碌</title>
    <defs>
        <polygon id="path-1" points="0 0 27.9979492 0 27.9979492 28 0 28"></polygon>
    </defs>
    <g id="页面-1" stroke="none" stroke-width="1" fill="none" fill-rule="evenodd">
        <g id="领导活动-全部" transform="translate(-119.000000, -1433.000000)">
            <g id="忙碌" transform="translate(119.000000, 1433.000000)">
                <mask id="mask-2" fill="white">
                    <use xlink:href="#path-1"></use>
                </mask>
                <g id="Clip-2"></g>
                <path d="M13.9980347,0 C6.2659305,0 -0.00205078375,6.26798128 -0.00205078375,14.0000854 C-0.00205078375,21.7320187 6.2659305,28 13.9980347,28 C21.7299679,28 27.9979492,21.7320187 27.9979492,14.0000854 C27.9979492,6.26798128 21.7299679,0 13.9980347,0 Z M20.9979065,15.7500534 L6.99799194,15.7500534 C6.52494449,15.7812937 6.06136482,15.6070454 5.72613004,15.2718106 C5.39099779,14.9365417 5.21664699,14.4730987 5.24802398,14.0000854 C5.21664699,13.527038 5.39099779,13.0634583 5.72613004,12.7282235 C6.06136482,12.3930913 6.52494449,12.2187063 6.99799194,12.2499466 L20.9979065,12.2499466 C21.4709539,12.2187063 21.9345336,12.3930913 22.2697684,12.7282235 C22.6049006,13.0634583 22.7792856,13.527038 22.7480453,14.0000854 C22.7792856,14.4730987 22.6049006,14.9365417 22.2697684,15.2718106 C21.9345336,15.6070454 21.4709539,15.7812937 20.9979065,15.7500534 Z" id="Fill-1" fill="#F8353F" mask="url(#mask-2)"></path>
            </g>
        </g>
    </g>
</svg>