<?xml version="1.0" encoding="UTF-8"?>
<svg width="26px" height="28px" viewBox="0 0 26 28" version="1.1" xmlns="http://www.w3.org/2000/svg" xmlns:xlink="http://www.w3.org/1999/xlink">
    <title>会议内容</title>
    <g id="页面-1" stroke="none" stroke-width="1" fill="none" fill-rule="evenodd">
        <g id="领导活动-全部无头像" transform="translate(-121.000000, -1711.000000)">
            <g id="会议内容" transform="translate(121.000000, 1711.000000)">
                <path d="M2.94731805,0 L17.6842843,0 L25.7895286,8.10527845 L25.7895286,25.0526819 C25.7895286,26.6736898 24.4632183,28 22.8420738,28 L2.94731805,28 C1.32634439,28 0,26.6736898 0,25.0526819 L0,2.94731805 C0,1.32634439 1.32634439,0 2.94731805,0 Z" id="Fill-1" fill="#2F77F1"></path>
                <path d="M17.7579758,0 L25.8632542,8.10527845 L17.7579758,8.10527845 L17.7579758,0 Z M13.9632055,18.089485 L2.83678081,18.089485 C2.43158012,18.089485 2.13691667,17.7579758 2.13691667,17.3894841 L2.13691667,17.3157584 C2.13691667,16.9105578 2.46842586,16.6157576 2.83678081,16.6157576 L13.9632055,16.6157576 C14.3315946,16.6157576 14.6632406,16.9474035 14.6632406,17.3157584 L14.6632406,17.3894841 C14.6632406,17.7579758 14.3684404,18.089485 13.9632055,18.089485 Z M10.2790067,8.51047914 L2.83678081,8.51047914 C2.43158012,8.51047914 2.13691667,8.21581569 2.13691667,7.810615 L2.13691667,7.73688933 C2.13691667,7.33155192 2.46842586,7.03688847 2.83678081,7.03688847 L10.2790067,7.03688847 C10.6473958,7.03688847 10.978905,7.36839767 10.978905,7.73688933 L10.978905,7.810615 C10.978905,8.17896995 10.6842416,8.51047914 10.2790067,8.51047914 Z M2.83678081,11.826323 L9.54216009,11.826323 C9.91051503,11.826323 10.2421609,12.1579689 10.2421609,12.5263239 L10.2421609,12.6000496 C10.2421609,12.9684045 9.91051503,13.3000504 9.54216009,13.3000504 L2.83678081,13.3000504 C2.43158012,13.3000504 2.13691667,13.0052503 2.13691667,12.6000496 L2.13691667,12.5263239 C2.13691667,12.1211232 2.46842586,11.826323 2.83678081,11.826323 Z" id="Fill-2" fill="#AFFCFE"></path>
            </g>
        </g>
    </g>
</svg>