<?xml version="1.0" encoding="UTF-8"?>
<svg width="25px" height="28px" viewBox="0 0 25 28" version="1.1" xmlns="http://www.w3.org/2000/svg" xmlns:xlink="http://www.w3.org/1999/xlink">
    <title>主持人</title>
    <defs>
        <polygon id="path-1" points="0 0 24.9526239 0 24.9526239 15.0352799 0 15.0352799"></polygon>
    </defs>
    <g id="页面-1" stroke="none" stroke-width="1" fill="none" fill-rule="evenodd">
        <g id="领导活动-全部无头像" transform="translate(-122.000000, -1665.000000)">
            <g id="主持人" transform="translate(122.000000, 1665.000000)">
                <path d="M14.8199378,13.4208017 C17.4460608,12.4368348 19.317519,9.90183138 19.317519,6.93016586 C19.317519,3.1016586 16.215895,0 12.3872495,0 C8.55874223,0 5.45708362,3.10435384 5.45708362,6.93016586 C5.45708362,9.93503801 7.37000691,12.494886 10.0459226,13.4540083 C10.7922253,13.138839 11.6132688,12.9647201 12.472944,12.9647201 C13.3050795,12.9675536 14.0956462,13.1279198 14.8199378,13.4208017 Z M9.02308224,8.53908086 C8.97608846,8.32892191 9.10608155,8.11890117 9.31893573,8.07194195 C9.52895646,8.02480995 9.73911541,8.15480304 9.78610919,8.36765722 C10.0320318,9.44571527 11.162716,10.2280581 12.4757775,10.2280581 C13.7860055,10.2280581 14.9167243,9.44854872 15.1654803,8.37035245 C15.2151693,8.16033172 15.4253283,8.0276434 15.635349,8.07747063 C15.8455079,8.12712509 15.9781963,8.33728404 15.928369,8.54730477 C15.5994471,9.97377332 14.1481686,11.0104008 12.4757775,11.0104008 C10.8005874,11.0104008 9.34930891,9.97093988 9.02308224,8.53908086 Z" id="Fill-1" fill="#FFCA28"></path>
                <g id="编组" transform="translate(0.000000, 12.964720)">
                    <mask id="mask-2" fill="white">
                        <use xlink:href="#path-1"></use>
                    </mask>
                    <g id="Clip-3"></g>
                    <path d="M14.8199378,0.456081548 C14.0956462,0.163199724 13.3050795,0 12.472944,0 C11.6132688,0 10.7922253,0.174118867 10.0459226,0.489288182 C7.84550795,1.41537664 6.28369039,3.56596406 6.21727713,6.08991016 L18.7314444,6.08991016 C18.6623359,3.53562543 17.0646164,1.36558397 14.8199378,0.456081548 Z M13.8911541,3.4857982 L12.6306151,4.78510712 C12.5420525,4.86257775 12.4093988,4.86257775 12.3209744,4.78510712 L11.0604008,3.4857982 C10.9747063,3.41129924 10.9553905,3.28400138 11.0161368,3.18735314 L12.2767104,0.774118867 C12.3679337,0.624809952 12.5835176,0.624809952 12.6747408,0.774118867 L13.9353144,3.18735314 C13.9961645,3.28400138 13.976745,3.41129924 13.8911541,3.4857982 Z" id="Fill-2" fill="#FFCA28" mask="url(#mask-2)"></path>
                    <path d="M23.6078093,6.08991016 L1.34378023,6.08991016 C0.467519005,6.08991016 -0.173911541,6.91085003 0.0389771942,7.76230131 L1.60079475,14.015273 C1.75006911,14.6151002 2.28918452,15.0352799 2.90559779,15.0352799 L22.0431237,15.0352799 C22.6595715,15.0352799 23.1986869,14.6151002 23.3479613,14.015273 L24.9124741,7.76230131 C25.122633,6.91368348 24.481237,6.08991016 23.6078093,6.08991016 Z" id="Fill-4" fill="#FD7D24" mask="url(#mask-2)"></path>
                </g>
                <path d="M15.928369,8.54730477 C15.9781963,8.33728404 15.8455079,8.12712509 15.635349,8.07747063 C15.4253283,8.0276434 15.2151693,8.16033172 15.1654803,8.37035245 C14.9167243,9.44571527 13.7860055,10.2280581 12.4757775,10.2280581 C11.162716,10.2280581 10.0320318,9.44571527 9.78610919,8.36765722 C9.73911541,8.15749827 9.52895646,8.02480995 9.31893573,8.07194195 C9.10877678,8.11890117 8.97608846,8.32892191 9.02308224,8.53908086 C9.34930891,9.97093988 10.8005874,11.0104008 12.4757775,11.0104008 C14.1454734,11.0104008 15.5994471,9.97377332 15.928369,8.54730477 Z M12.6747408,13.738839 C12.5835176,13.5895301 12.3679337,13.5895301 12.2767104,13.738839 L11.0161368,16.1520733 C10.9553905,16.2487215 10.9747063,16.3760194 11.0604008,16.4505183 L12.3209744,17.7498272 C12.4093988,17.8272979 12.5420525,17.8272979 12.6306151,17.7498272 L13.8911541,16.4505183 C13.976745,16.3760194 13.9961645,16.2487215 13.9353144,16.1520733 L12.6747408,13.738839 Z" id="Fill-5" fill="#FFFFFF"></path>
            </g>
        </g>
    </g>
</svg>