<?xml version="1.0" encoding="UTF-8"?>
<svg width="30px" height="30px" viewBox="0 0 30 30" version="1.1" xmlns="http://www.w3.org/2000/svg" xmlns:xlink="http://www.w3.org/1999/xlink">
    <title>文件</title>
    <g id="页面-1" stroke="none" stroke-width="1" fill="none" fill-rule="evenodd">
        <g id="高级检索筛选" transform="translate(-265.000000, -317.000000)" fill="#666666">
            <g id="jinqi" transform="translate(265.000000, 317.000000)">
                <path d="M27.0788496,28 C26.888644,28 26.7016762,27.9467837 26.541102,27.8430545 L15.0622953,22.59623 L3.45250458,27.8401659 C3.17381518,28.0237381 2.80336319,28.0474392 2.49836223,27.9052698 C2.19020552,27.7630634 2,27.4786505 2,27.167648 L2,2.82946339 C2,2.37032922 2.40983736,2 2.91795371,2 L27.0820463,2 C27.5901626,2 28,2.37032922 28,2.82946339 L28,27.1705366 C28,27.4815391 27.8066387,27.7661001 27.5016378,27.9083065 C27.3639734,27.9704848 27.2197107,28 27.0788496,28 Z M15.0622953,20.7445839 C15.2492631,20.7445839 15.4394686,20.7979854 15.6000429,20.9015295 L26.1607319,25.5470133 L26.1607319,3.65911195 L3.83275168,3.65911195 L3.83275168,25.55005 L14.5247116,20.9045662 C14.6852859,20.7979854 14.8754504,20.7445839 15.0622953,20.7445839 Z" id="Fill-1"></path>
            </g>
        </g>
    </g>
</svg>